<?xml version="1.0" encoding="UTF-8" standalone="no"?>
<svg
   xmlns:dc="http://purl.org/dc/elements/1.1/"
   xmlns:cc="http://creativecommons.org/ns#"
   xmlns:rdf="http://www.w3.org/1999/02/22-rdf-syntax-ns#"
   xmlns:svg="http://www.w3.org/2000/svg"
   xmlns="http://www.w3.org/2000/svg"
   viewBox="0 0 231.38667 240.8"
   height="240.8"
   width="231.38667"
   xml:space="preserve"
   id="svg2"
   version="1.1"><metadata
     id="metadata8"><rdf:RDF><cc:Work
         rdf:about=""><dc:format>image/svg+xml</dc:format><dc:type
           rdf:resource="http://purl.org/dc/dcmitype/StillImage" /></cc:Work></rdf:RDF></metadata><defs
     id="defs6"><clipPath
       id="clipPath188"
       clipPathUnits="userSpaceOnUse"><path
         id="path186"
         d="M 0,0 V 155.90744 H 155.90744 V 0 Z" /></clipPath></defs><g
     transform="matrix(1.3333333,0,0,-1.3333333,0,240.8)"
     id="g10"><g
       transform="translate(72,108.599)"
       id="g12"><g
         transform="translate(-60.3,-90.028)"
         id="g14"><g
           id="g16"><g
             id="g18"><g
               id="g20"><path
                 id="path22"
                 style="fill:none;stroke:#000000;stroke-width:0.3985;stroke-linecap:butt;stroke-linejoin:miter;stroke-miterlimit:10;stroke-dasharray:none;stroke-opacity:1"
                 d="M 0,0 H 155.44916" /><g
                 transform="translate(155.44916)"
                 id="g24"><g
                   id="g26"><path
                     id="path28"
                     style="fill:none;stroke:#000000;stroke-width:0.31878999;stroke-linecap:round;stroke-linejoin:round;stroke-miterlimit:10;stroke-dasharray:none;stroke-opacity:1"
                     d="M -1.19551,1.59401 C -1.09587,0.99626 0,0.09961 0.29886,0 0,-0.09961 -1.09587,-0.99626 -1.19551,-1.59401" /></g></g></g><g
               id="g30"><path
                 id="path32"
                 style="fill:none;stroke:#000000;stroke-width:0.3985;stroke-linecap:butt;stroke-linejoin:miter;stroke-miterlimit:10;stroke-dasharray:none;stroke-opacity:1"
                 d="M 68.20949,1.36987 V -1.36987" /><g
                 id="g34"><g
                   id="g36"><g
                     transform="scale(-1)"
                     id="g38"><g
                       id="g40" /><g
                       transform="rotate(180,-30.15,-45.014)"
                       id="g42"><g
                         id="g44" /><g
                         transform="translate(60.862,-12.863)"
                         id="g46"><text
                           id="text50"
                           style="font-style:italic;font-variant:normal;font-weight:normal;font-size:4.98129988px;font-family:CMMI5;-inkscape-font-specification:CMMI5;writing-mode:lr-tb;fill:#000000;fill-opacity:1;fill-rule:nonzero;stroke:none"
                           transform="matrix(1,0,0,-1,-57.532,-86.677)"><tspan
                             id="tspan48"
                             y="0"
                             x="0">n</tspan></text>
<text
                           id="text54"
                           style="font-style:italic;font-variant:normal;font-weight:normal;font-size:9.96259975px;font-family:CMSY10;-inkscape-font-specification:CMSY10;writing-mode:lr-tb;fill:#000000;fill-opacity:1;fill-rule:nonzero;stroke:none"
                           transform="matrix(1,0,0,-1,-58.679,-82.852)"><tspan
                             id="tspan52"
                             y="0"
                             x="0">√</tspan></text>
<g
                           id="g56"><path
                             id="path58"
                             style="fill:none;stroke:#000000;stroke-width:0.3985;stroke-linecap:butt;stroke-linejoin:miter;stroke-miterlimit:10;stroke-dasharray:none;stroke-opacity:1"
                             d="m -50.377,-82.653 h 4.771" /></g><text
                           id="text62"
                           style="font-style:italic;font-variant:normal;font-weight:normal;font-size:9.96259975px;font-family:CMMI10;-inkscape-font-specification:CMMI10;writing-mode:lr-tb;fill:#000000;fill-opacity:1;fill-rule:nonzero;stroke:none"
                           transform="matrix(1,0,0,-1,-50.377,-90.028)"><tspan
                             id="tspan60"
                             y="0"
                             x="0">r</tspan></text>
</g><g
                         transform="translate(-60.3,-90.028)"
                         id="g64" /></g></g></g></g></g><g
               id="g66"><path
                 id="path68"
                 style="fill:none;stroke:#000000;stroke-width:0.3985;stroke-linecap:butt;stroke-linejoin:miter;stroke-miterlimit:10;stroke-dasharray:none;stroke-opacity:1"
                 d="M 0,0 V 155.44916" /><g
                 transform="rotate(90,-77.72458,77.72458)"
                 id="g70"><g
                   id="g72"><path
                     id="path74"
                     style="fill:none;stroke:#000000;stroke-width:0.31878999;stroke-linecap:round;stroke-linejoin:round;stroke-miterlimit:10;stroke-dasharray:none;stroke-opacity:1"
                     d="M -1.19551,1.59401 C -1.09587,0.99626 0,0.09961 0.29886,0 0,-0.09961 -1.09587,-0.99626 -1.19551,-1.59401" /></g></g></g><g
               id="g76"><path
                 id="path78"
                 style="fill:none;stroke:#000000;stroke-width:0.3985;stroke-linecap:butt;stroke-linejoin:miter;stroke-miterlimit:10;stroke-dasharray:none;stroke-opacity:1"
                 d="M -1.36987,119.36662 H 1.36987" /><g
                 id="g80"><g
                   id="g82"><g
                     transform="scale(-1)"
                     id="g84"><g
                       id="g86" /><g
                       transform="rotate(180,-30.15,-45.014)"
                       id="g88"><g
                         id="g90" /><g
                         transform="translate(-6.921,117.222)"
                         id="g92"><text
                           id="text96"
                           style="font-style:italic;font-variant:normal;font-weight:normal;font-size:9.96259975px;font-family:CMMI10;-inkscape-font-specification:CMMI10;writing-mode:lr-tb;fill:#000000;fill-opacity:1;fill-rule:nonzero;stroke:none"
                           transform="matrix(1,0,0,-1,-60.3,-90.028)"><tspan
                             id="tspan94"
                             y="0"
                             x="0">r</tspan></text>
</g><g
                         transform="translate(-60.3,-90.028)"
                         id="g98" /></g></g></g></g></g><g
               id="g100"><g
                 id="g102"><g
                   id="g104"><g
                     transform="scale(-1)"
                     id="g106"><g
                       id="g108" /><g
                       transform="rotate(180,-30.15,-45.014)"
                       id="g110"><g
                         id="g112" /><g
                         transform="translate(153.296,-7.38)"
                         id="g114"><text
                           id="text118"
                           style="font-style:italic;font-variant:normal;font-weight:normal;font-size:8.96640015px;font-family:CMMI9;-inkscape-font-specification:CMMI9;writing-mode:lr-tb;fill:#000000;fill-opacity:1;fill-rule:nonzero;stroke:none"
                           transform="matrix(1,0,0,-1,-60.3,-90.028)"><tspan
                             id="tspan116"
                             y="0"
                             x="0">x</tspan></text>
</g><g
                         transform="translate(-60.3,-90.028)"
                         id="g120" /></g></g></g></g></g><g
               id="g122"><g
                 id="g124"><g
                   id="g126"><g
                     transform="scale(-1)"
                     id="g128"><g
                       id="g130" /><g
                       transform="rotate(180,-30.15,-45.014)"
                       id="g132"><g
                         id="g134" /><g
                         transform="translate(-8.38,154.849)"
                         id="g136"><text
                           id="text140"
                           style="font-style:italic;font-variant:normal;font-weight:normal;font-size:8.96640015px;font-family:CMMI9;-inkscape-font-specification:CMMI9;writing-mode:lr-tb;fill:#000000;fill-opacity:1;fill-rule:nonzero;stroke:none"
                           transform="matrix(1,0,0,-1,-60.3,-90.028)"><tspan
                             id="tspan138"
                             y="0"
                             x="0">y</tspan></text>
</g><g
                         transform="translate(-60.3,-90.028)"
                         id="g142" /></g></g></g></g></g><g
               id="g144"><g
                 id="g146"><g
                   id="g148"><g
                     transform="scale(-1)"
                     id="g150"><g
                       id="g152" /><g
                       transform="rotate(180,-30.15,-45.014)"
                       id="g154"><g
                         id="g156" /><g
                         transform="translate(81.474,122.385)"
                         id="g158"><text
                           id="text162"
                           style="font-style:italic;font-variant:normal;font-weight:normal;font-size:9.96259975px;font-family:CMMI10;-inkscape-font-specification:CMMI10;writing-mode:lr-tb;fill:#000000;fill-opacity:1;fill-rule:nonzero;stroke:none"
                           transform="matrix(1,0,0,-1,-60.3,-90.028)"><tspan
                             id="tspan160"
                             y="0"
                             x="0">y</tspan></text>
<text
                           id="text166"
                           style="font-variant:normal;font-weight:normal;font-size:9.96259975px;font-family:CMR10;-inkscape-font-specification:CMR10;writing-mode:lr-tb;fill:#000000;fill-opacity:1;fill-rule:nonzero;stroke:none"
                           transform="matrix(1,0,0,-1,-52.29,-90.028)"><tspan
                             id="tspan164"
                             y="0"
                             x="0">=</tspan></text>
<text
                           id="text170"
                           style="font-style:italic;font-variant:normal;font-weight:normal;font-size:9.96259975px;font-family:CMMI10;-inkscape-font-specification:CMMI10;writing-mode:lr-tb;fill:#000000;fill-opacity:1;fill-rule:nonzero;stroke:none"
                           transform="matrix(1,0,0,-1,-41.774,-90.028)"><tspan
                             id="tspan168"
                             y="0"
                             x="0">x</tspan></text>
<text
                           id="text174"
                           style="font-style:italic;font-variant:normal;font-weight:normal;font-size:6.97380018px;font-family:CMMI7;-inkscape-font-specification:CMMI7;writing-mode:lr-tb;fill:#000000;fill-opacity:1;fill-rule:nonzero;stroke:none"
                           transform="matrix(1,0,0,-1,-36.08,-86.413)"><tspan
                             id="tspan172"
                             y="0"
                             x="0">n</tspan></text>
</g><g
                         transform="translate(-60.3,-90.028)"
                         id="g176" /></g></g></g></g></g><g
               id="g178"><path
                 id="path180"
                 style="fill:none;stroke:#000000;stroke-width:0.3985;stroke-linecap:butt;stroke-linejoin:miter;stroke-miterlimit:10;stroke-dasharray:2.98883, 2.98883;stroke-dashoffset:0;stroke-opacity:1"
                 d="M 68.20949,0 V 119.36662 H 0" /></g><g
               id="g182"><g
                 clip-path="url(#clipPath188)"
                 id="g184"><g
                   id="g190"><path
                     id="path192"
                     style="fill:none;stroke:#000000;stroke-width:0.79701;stroke-linecap:butt;stroke-linejoin:miter;stroke-miterlimit:10;stroke-dasharray:none;stroke-opacity:1"
                     d="m 0,0 c 0,0 1.1374,0.02779 1.57425,0.063 0.43685,0.03522 1.13742,0.1203 1.57426,0.19092 0.43685,0.07065 1.13745,0.21231 1.5743,0.31819 0.43684,0.10587 1.13742,0.30379 1.57426,0.44487 0.43685,0.1411 1.13745,0.39572 1.5743,0.57213 0.43684,0.17642 1.13742,0.48769 1.57426,0.69943 0.43685,0.21175 1.13742,0.57964 1.57428,0.82669 0.43685,0.24704 1.13744,0.67167 1.57429,0.95395 0.43684,0.28229 1.1374,0.76303 1.57424,1.08065 0.43686,0.31761 1.13746,0.8556 1.57431,1.20851 0.43685,0.35293 1.13741,0.94702 1.57425,1.33519 0.43685,0.38815 1.13744,1.03897 1.57428,1.46245 0.43685,0.42349 1.13744,1.13105 1.57428,1.58976 0.43684,0.4587 1.13744,1.22237 1.57428,1.7164 0.43684,0.49404 1.13744,1.31493 1.57428,1.8443 0.43684,0.52936 1.13744,1.40639 1.57428,1.97098 0.43684,0.56458 1.13744,1.49832 1.57428,2.09824 0.43684,0.5999 1.13742,1.5903 1.57426,2.22551 0.43685,0.6352 1.13743,1.68233 1.57427,2.35278 0.43686,0.67047 1.13744,1.7737 1.57429,2.47949 0.43685,0.70578 1.13742,1.86623 1.57427,2.60732 0.43684,0.74107 1.13743,1.95771 1.57428,2.73402 0.43685,0.77634 1.13743,2.04964 1.57428,2.8613 0.43684,0.81166 1.13742,2.1416 1.57427,2.98857 0.43684,0.84695 1.13744,2.23364 1.57429,3.11585 0.43684,0.8822 1.13742,2.32498 1.57426,3.2425 0.43685,0.91753 1.13744,2.41756 1.57428,3.3704 0.43685,0.95283 1.13744,2.509 1.57428,3.49708 0.43685,0.98807 1.13741,2.60094 1.57425,3.62433 0.43686,1.02339 1.13745,2.69299 1.57431,3.75162 0.43685,1.05862 1.13741,2.78434 1.57425,3.87829 0.43684,1.09393 1.13745,2.87691 1.5743,4.00617 0.43685,1.12927 1.13742,2.96835 1.57426,4.13285 0.43684,1.16449 1.13744,3.06029 1.5743,4.26012 0.43684,1.19981 1.13742,3.15227 1.57426,4.38739 0.43684,1.23515 1.13742,3.24423 1.57426,4.51468 0.43685,1.27045 1.13746,3.33624 1.5743,4.64192 0.43684,1.3057 1.13742,3.42771 1.57426,4.76863 0.43685,1.34093 1.13746,3.51967 1.5743,4.89589 0.43684,1.37624 1.1374,3.61162 1.57426,5.02318 0.43685,1.41158 1.13742,3.70357 1.57427,5.15045 0.43684,1.44689 1.13743,3.79563 1.57428,5.27773 0.43686,1.4821 1.13742,3.88696 1.57426,5.4044 0.43685,1.51743 1.13745,3.97951 1.5743,5.53226 0.43684,1.55275 1.13742,4.07098 1.57426,5.65895 0.43685,1.58798 1.13744,4.16292 1.57428,5.78624 0.43685,1.62329 1.13744,4.25485 1.57428,5.91347 0.43685,1.65863 1.13744,4.34693 1.57428,6.04078 0.43685,1.69385 1.13744,4.43837 1.57428,6.16745 0.43684,1.7291 1.13742,4.53023 1.57428,6.29474 0.43684,1.76451 1.13744,4.62279 1.57428,6.42259 0.43684,1.79981 1.13741,4.71431 1.57425,6.54929 0.43686,1.83494 1.13744,4.80565 1.57428,6.67595 0.43684,1.87028 1.13744,4.89821 1.57428,6.8038 0.43684,1.90561 1.13744,4.98958 1.57428,6.93051 0.43684,1.94094 1.13744,5.08211 1.57428,7.05837 0.43684,1.97624 1.13744,5.17358 1.57428,7.18507 0.43684,2.01146 1.13742,5.2656 1.57426,7.3123 0.43685,2.04672 1.13745,5.35698 1.5743,7.43901 0.43684,2.08203 1.1374,5.44953 1.57426,7.56687 0.43685,2.11734 1.13744,5.54089 1.57428,7.69357 0.43685,2.15265 1.13742,5.63344 1.57427,7.82141 0.43686,2.18797 1.13742,5.72489 1.57426,7.94809 0.43685,2.22322 1.13745,5.81694 1.5743,8.07539 0.43684,2.25846 1.13742,5.90828 1.57426,8.20206 0.43685,2.29378 1.13745,6.00084 1.57429,8.32993 0.43685,2.32908 1.13743,6.09227 1.57427,8.4566 0.43684,2.36432 1.13743,6.18422 1.57428,8.58388 0.43686,2.39966 1.13744,6.27619 1.57428,8.71115 0.43684,2.43497 1.13741,6.36814 1.57427,8.83841 0.43684,2.47029 1.13745,6.46017 1.57429,8.9657 0.43684,2.50553 1.13741,6.55157 1.57425,9.0924 0.43686,2.54082 1.13745,6.64409 1.57431,9.22025 0.43685,2.57616 1.13741,6.73555 1.57425,9.34692 0.43684,2.61138 1.13743,6.82758 1.57428,9.4742 0.43684,2.64662 1.13743,6.91895 1.57428,9.60091 0.43684,2.68193 1.13742,7.01149 1.57426,9.72874 0.43685,2.71724 1.13745,7.10285 1.5743,9.85542 0.43684,2.75257 1.13742,7.19541 1.57426,9.98331 0.43685,2.78789 1.13742,7.28685 1.57428,10.10997 0.43684,2.82314 1.13744,7.37889 1.57428,10.23726 0.43685,2.85837 1.13742,7.47025 1.57426,10.36395 0.43687,2.89368 1.13744,7.5628 1.5743,10.4918 0.43685,2.929 1.13742,7.65423 1.57427,10.61846 0.43684,2.96425 1.13743,7.7462 1.57428,10.74578 0.43685,2.99956 1.13742,7.83816 1.57426,10.87303 0.43684,3.03485 1.13744,7.93011 1.57428,11.0003 0.43684,3.07019 1.13744,8.02214 1.57428,11.12758 0.43684,3.10544 1.13743,8.11351 1.57428,11.25426 0.43685,3.14073 1.13744,8.20607 1.57428,11.38213 0.43684,3.17608 1.13744,8.2975 1.57428,11.50881 0.43684,3.21131 1.1374,8.38947 1.57425,11.63608 0.43686,3.24662 1.13745,8.48152 1.57431,11.76337 0.43684,3.28184 1.1374,8.57284 1.57425,11.89003 0.43684,3.31718 1.13743,8.66542 1.57428,12.0179 0.43686,3.35247 1.13743,8.75688 1.57428,12.14459 0.43684,3.38774 1.13742,8.8488 1.57426,12.27185 0.43685,3.42305 1.13746,8.94078 1.5743,12.39914 0.43684,3.45836 1.57426,12.52641 1.57426,12.52641" /></g></g></g></g></g></g></g></g></svg>