<svg xmlns="http://www.w3.org/2000/svg" xmlns:xlink="http://www.w3.org/1999/xlink" version="1.1" width="162.04pt" height="112.65pt" viewBox="0 0 162.04 112.65">
<path transform="matrix(1,0,0,-1,78.151,84.074)" stroke-width=".3985" stroke-linecap="butt" stroke-miterlimit="10" stroke-linejoin="miter" fill="none" stroke="#000000" d="M-77.95284 0H77.49455"/>
<path transform="matrix(1,0,0,-1,155.64556,84.074)" stroke-width=".31879" stroke-linecap="round" stroke-linejoin="round" fill="none" stroke="#000000" d="M-1.19551 1.59401C-1.09587 .99626 0 .09961 .29886 0 0-.09961-1.09587-.99626-1.19551-1.59401"/>
<path transform="matrix(1,0,0,-1,78.151,84.074)" stroke-width=".3985" stroke-linecap="butt" stroke-miterlimit="10" stroke-linejoin="miter" fill="none" stroke="#000000" d="M-66.81673 .78278V-.78278"/>
<text xml:space="preserve" transform="matrix(1 0 -0 1 -.22699738 81.439)" font-size="7.9701" font-family="CMSY8" font-style="italic"><tspan y="12.074" x="6.151">&#x2212;</tspan></text>
<text xml:space="preserve" transform="matrix(1 0 -0 1 -.22699738 81.439)" font-size="7.9701" font-family="CMR8"><tspan y="12.074" x="12.738">3</tspan></text>
<path transform="matrix(1,0,0,-1,78.151,84.074)" stroke-width=".3985" stroke-linecap="butt" stroke-miterlimit="10" stroke-linejoin="miter" fill="none" stroke="#000000" d="M-44.54448 .78278V-.78278"/>
<text xml:space="preserve" transform="matrix(1 0 -0 1 22.044999 81.439)" font-size="7.9701" font-family="CMSY8" font-style="italic"><tspan y="12.074" x="6.151">&#x2212;</tspan></text>
<text xml:space="preserve" transform="matrix(1 0 -0 1 22.044999 81.439)" font-size="7.9701" font-family="CMR8"><tspan y="12.074" x="12.738">2</tspan></text>
<path transform="matrix(1,0,0,-1,78.151,84.074)" stroke-width=".3985" stroke-linecap="butt" stroke-miterlimit="10" stroke-linejoin="miter" fill="none" stroke="#000000" d="M-22.27223 .78278V-.78278"/>
<text xml:space="preserve" transform="matrix(1 0 -0 1 44.317 81.439)" font-size="7.9701" font-family="CMSY8" font-style="italic"><tspan y="12.074" x="6.151">&#x2212;</tspan></text>
<text xml:space="preserve" transform="matrix(1 0 -0 1 44.317 81.439)" font-size="7.9701" font-family="CMR8"><tspan y="12.074" x="12.738">1</tspan></text>
<path transform="matrix(1,0,0,-1,78.151,84.074)" stroke-width=".3985" stroke-linecap="butt" stroke-miterlimit="10" stroke-linejoin="miter" fill="none" stroke="#000000" d="M22.27223 .78278V-.78278"/>
<text xml:space="preserve" transform="matrix(1 0 -0 1 92.155 81.439)" font-size="7.9701" font-family="CMR8"><tspan y="12.074" x="6.151">1</tspan></text>
<path transform="matrix(1,0,0,-1,78.151,84.074)" stroke-width=".3985" stroke-linecap="butt" stroke-miterlimit="10" stroke-linejoin="miter" fill="none" stroke="#000000" d="M44.54448 .78278V-.78278"/>
<text xml:space="preserve" transform="matrix(1 0 -0 1 114.427 81.439)" font-size="7.9701" font-family="CMR8"><tspan y="12.074" x="6.151">2</tspan></text>
<path transform="matrix(1,0,0,-1,78.151,84.074)" stroke-width=".3985" stroke-linecap="butt" stroke-miterlimit="10" stroke-linejoin="miter" fill="none" stroke="#000000" d="M66.81673 .78278V-.78278"/>
<text xml:space="preserve" transform="matrix(1 0 -0 1 136.7 81.439)" font-size="7.9701" font-family="CMR8"><tspan y="12.074" x="6.151">3</tspan></text>
<path transform="matrix(1,0,0,-1,78.151,84.074)" stroke-width=".3985" stroke-linecap="butt" stroke-miterlimit="10" stroke-linejoin="miter" fill="none" stroke="#000000" d="M0-22.27223V77.49455"/>
<path transform="matrix(0,-1,-1,-0,78.151,6.579445)" stroke-width=".31879" stroke-linecap="round" stroke-linejoin="round" fill="none" stroke="#000000" d="M-1.19551 1.59401C-1.09587 .99626 0 .09961 .29886 0 0-.09961-1.09587-.99626-1.19551-1.59401"/>
<path transform="matrix(1,0,0,-1,78.151,84.074)" stroke-width=".3985" stroke-linecap="butt" stroke-miterlimit="10" stroke-linejoin="miter" fill="none" stroke="#000000" d="M-.78278-22.27223H.78278"/>
<text xml:space="preserve" transform="matrix(1 0 -0 1 58.442 96.425)" font-size="7.9701" font-family="CMSY8" font-style="italic"><tspan y="12.074" x="6.151">&#x2212;</tspan></text>
<text xml:space="preserve" transform="matrix(1 0 -0 1 58.442 96.425)" font-size="7.9701" font-family="CMR8"><tspan y="12.074" x="12.738">1</tspan></text>
<path transform="matrix(1,0,0,-1,78.151,84.074)" stroke-width=".3985" stroke-linecap="butt" stroke-miterlimit="10" stroke-linejoin="miter" fill="none" stroke="#000000" d="M-.78278 22.27223H.78278"/>
<text xml:space="preserve" transform="matrix(1 0 -0 1 65.029 52.295999)" font-size="7.9701" font-family="CMR8"><tspan y="12.074" x="6.151">1</tspan></text>
<path transform="matrix(1,0,0,-1,78.151,84.074)" stroke-width=".3985" stroke-linecap="butt" stroke-miterlimit="10" stroke-linejoin="miter" fill="none" stroke="#000000" d="M-.78278 44.54448H.78278"/>
<text xml:space="preserve" transform="matrix(1 0 -0 1 65.029 30.023999)" font-size="7.9701" font-family="CMR8"><tspan y="12.074" x="6.151">2</tspan></text>
<path transform="matrix(1,0,0,-1,78.151,84.074)" stroke-width=".3985" stroke-linecap="butt" stroke-miterlimit="10" stroke-linejoin="miter" fill="none" stroke="#000000" d="M-.78278 66.81673H.78278"/>
<text xml:space="preserve" transform="matrix(1 0 -0 1 65.029 7.7509996)" font-size="7.9701" font-family="CMR8"><tspan y="12.074" x="6.151">3</tspan></text>
<path transform="matrix(1,0,0,-1,78.151,84.074)" stroke-width=".3985" stroke-linecap="butt" stroke-miterlimit="10" stroke-linejoin="miter" fill="none" stroke="#000000" d="M-66.81673 66.81673 0 0 66.81673 66.81673"/>
<path transform="matrix(1,0,0,-1,78.151,84.074)" stroke-width=".3985" stroke-linecap="butt" stroke-miterlimit="10" stroke-linejoin="miter" fill="none" stroke="#000000" d=""/>
<text xml:space="preserve" transform="matrix(1 0 -0 1 147.341 79.38)" font-size="8.9664" font-family="CMMI9" font-style="italic"><tspan y="12.074" x="6.151">x</tspan></text>
<path transform="matrix(1,0,0,-1,78.151,84.074)" stroke-width=".3985" stroke-linecap="butt" stroke-miterlimit="10" stroke-linejoin="miter" fill="none" stroke="#000000" d=""/>
<text xml:space="preserve" transform="matrix(1 0 -0 1 63.62 -4.893997)" font-size="8.9664" font-family="CMMI9" font-style="italic"><tspan y="12.074" x="6.151">y</tspan></text>
<path transform="matrix(1,0,0,-1,78.151,84.074)" stroke-width=".3985" stroke-linecap="butt" stroke-miterlimit="10" stroke-linejoin="miter" fill="none" stroke="#000000" d=""/>
<text xml:space="preserve" transform="matrix(1 0 -0 1 80.527 21.694)" font-size="8.9664" font-family="CMMI9" font-style="italic"><tspan y="12.074" x="6.151">y</tspan></text>
<text xml:space="preserve" transform="matrix(1 0 -0 1 80.527 21.694)" font-size="8.9664" font-family="CMR9"><tspan y="12.074" x="13.571">=</tspan></text>
<text xml:space="preserve" transform="matrix(1 0 -0 1 80.527 21.694)" font-size="8.9664" font-family="CMSY9" font-style="italic"><tspan y="12.074" x="23.298">|</tspan></text>
<text xml:space="preserve" transform="matrix(1 0 -0 1 80.527 21.694)" font-size="8.9664" font-family="CMMI9" font-style="italic"><tspan y="12.074" x="25.858">x</tspan></text>
<text xml:space="preserve" transform="matrix(1 0 -0 1 80.527 21.694)" font-size="8.9664" font-family="CMSY9" font-style="italic"><tspan y="12.074" x="31.082">|</tspan></text>
</svg>
