<?xml version="1.0" encoding="UTF-8" standalone="no"?>
<!DOCTYPE svg PUBLIC "-//W3C//DTD SVG 1.1//EN" "http://www.w3.org/Graphics/SVG/1.1/DTD/svg11.dtd">
<svg xmlns="http://www.w3.org/2000/svg" xmlns:xlink="http://www.w3.org/1999/xlink" version="1.1" width="682.69448pt" height="668.38888pt" viewBox="0 0 682.69448 668.38888">
<g enable-background="new">
<path transform="matrix(2.7777777,0,0,-2.7777777,316.06666,352.87498)" stroke-width=".3985" stroke-linecap="butt" stroke-miterlimit="10" stroke-linejoin="miter" fill="none" stroke="#000000" d="M -113.38724 0 L 112.92896 0 "/>
<path transform="matrix(2.7777777,0,0,-2.7777777,629.7582,352.87498)" stroke-width=".31879" stroke-linecap="round" stroke-linejoin="round" fill="none" stroke="#000000" d="M -1.19551 1.59401 C -1.09587 .99626 0 .09961 .29886 0 C 0 -.09961 -1.09587 -.99626 -1.19551 -1.59401 "/>
<symbol id="font_0_5f">
<path d="M .697 .11000001 C .697 .116000007 .697 .127 .684 .127 C .673 .127 .673 .118 .672 .111 C .666 .040000004 .631 .022000002 .606 .022000002 C .557 .022000002 .549 .07300001 .535 .16600001 L .522 .246 C .504 .31000004 .455 .34300003 .40000005 .36200003 C .497 .38600005 .575 .44700004 .575 .52500006 C .575 .62100008 .46100004 .70500007 .314 .70500007 L 0 .70500007 L 0 .674 L .024000004 .674 C .10100001 .674 .103000018 .66300007 .103000018 .62700006 L .103000018 .1 C .103000018 .064 .10100001 .053000004 .024000004 .053000004 L 0 .053000004 L 0 .022000002 C .036000004 .025000003 .10700001 .025000003 .14600002 .025000003 C .18500002 .025000003 .256 .025000003 .29200004 .022000002 L .29200004 .053000004 L .268 .053000004 C .19100002 .053000004 .18900001 .064 .18900001 .1 L .18900001 .35300005 L .30400003 .35300005 C .32000003 .35300005 .36200003 .35300005 .397 .31900005 C .43500004 .28300003 .43500004 .252 .43500004 .185 C .43500004 .120000008 .43500004 .080000009 .47600005 .042000005 C .517 .006000001 .572 0 .602 0 C .68 0 .697 .082 .697 .11000001 M .47200004 .52500006 C .47200004 .45600004 .448 .37500004 .3 .37500004 L .18900001 .37500004 L .18900001 .63400009 C .18900001 .65700009 .18900001 .669 .21100001 .67200008 C .22100002 .674 .25000004 .674 .27 .674 C .36 .674 .47200004 .67 .47200004 .52500006 Z "/>
</symbol>
<symbol id="font_0_32">
<path d="M .38700003 .13000001 C .38700003 .14000002 .379 .14200002 .374 .14200002 C .365 .14200002 .36300005 .136 .36100004 .128 C .326 .025000003 .236 .025000003 .22600001 .025000003 C .17600002 .025000003 .136 .055000005 .113000009 .092 C .083000008 .14000002 .083000008 .20600002 .083000008 .24200002 L .36200003 .24200002 C .38400004 .24200002 .38700003 .24200002 .38700003 .263 C .38700003 .36200003 .33300004 .45900003 .20800002 .45900003 C .09200001 .45900003 0 .35600005 0 .23100002 C 0 .097 .105000007 0 .22000002 0 C .342 0 .38700003 .111 .38700003 .13000001 M .321 .263 L .08400001 .263 C .09 .41200004 .17400001 .43700005 .20800002 .43700005 C .31100003 .43700005 .321 .30200003 .321 .263 Z "/>
</symbol>
<use xlink:href="#font_0_5f" transform="matrix(27.673888,0,0,-27.673888,641.77688,362.631)"/>
<use xlink:href="#font_0_32" transform="matrix(27.673888,0,0,-27.673888,661.9511,362.3266)"/>
<path transform="matrix(2.7777777,0,0,-2.7777777,316.06666,352.87498)" stroke-width=".3985" stroke-linecap="butt" stroke-miterlimit="10" stroke-linejoin="miter" fill="none" stroke="#000000" d="M 0 -113.38724 L 0 112.92896 "/>
<path transform="matrix(0,-2.7777777,-2.7777777,-0,316.06666,39.183427)" stroke-width=".31879" stroke-linecap="round" stroke-linejoin="round" fill="none" stroke="#000000" d="M -1.19551 1.59401 C -1.09587 .99626 0 .09961 .29886 0 C 0 -.09961 -1.09587 -.99626 -1.19551 -1.59401 "/>
<symbol id="font_0_41">
<path d="M .305 0 L .305 .031000002 L .279 .031000002 C .20000002 .031000002 .19700001 .042000005 .19700001 .078 L .19700001 .605 C .19700001 .64100006 .20000002 .652 .279 .652 L .305 .652 L .305 .683 C .27 .68 .19100002 .68 .15300001 .68 C .11400001 .68 .035 .68 0 .683 L 0 .652 L .026 .652 C .105000007 .652 .10800001 .64100006 .10800001 .605 L .10800001 .078 C .10800001 .042000005 .105000007 .031000002 .026 .031000002 L 0 .031000002 L 0 0 C .035 .003 .11400001 .003 .15200001 .003 C .19100002 .003 .27 .003 .305 0 Z "/>
</symbol>
<symbol id="font_0_4b">
<path d="M .781 0 L .781 .031000002 C .72900006 .031000002 .70400008 .031000002 .703 .061000006 L .703 .252 C .703 .33800004 .703 .36900003 .67200008 .40500004 C .65800008 .42200003 .625 .44200004 .56700006 .44200004 C .48300005 .44200004 .439 .38200004 .42200003 .344 C .40800003 .43100003 .33400003 .44200004 .289 .44200004 C .216 .44200004 .169 .39900003 .141 .337 L .141 .44200004 L 0 .43100003 L 0 .4 C .07000001 .4 .07800001 .393 .07800001 .344 L .07800001 .076000008 C .07800001 .031000002 .067 .031000002 0 .031000002 L 0 0 L .113000009 .003 L .225 0 L .225 .031000002 C .158 .031000002 .147 .031000002 .147 .076000008 L .147 .26000003 C .147 .36400003 .218 .42000003 .282 .42000003 C .345 .42000003 .356 .36600004 .356 .30900003 L .356 .076000008 C .356 .031000002 .345 .031000002 .278 .031000002 L .278 0 L .391 .003 L .503 0 L .503 .031000002 C .43600003 .031000002 .425 .031000002 .425 .076000008 L .425 .26000003 C .425 .36400003 .496 .42000003 .56 .42000003 C .623 .42000003 .634 .36600004 .634 .30900003 L .634 .076000008 C .634 .031000002 .623 .031000002 .556 .031000002 L .556 0 L .669 .003 L .781 0 Z "/>
</symbol>
<use xlink:href="#font_0_41" transform="matrix(27.673888,0,0,-27.673888,300.3193,28.133324)"/>
<use xlink:href="#font_0_4b" transform="matrix(27.673888,0,0,-27.673888,310.4203,28.133324)"/>
<path transform="matrix(2.7777777,0,0,-2.7777777,316.06666,352.87498)" stroke-width=".79701" stroke-linecap="butt" stroke-miterlimit="10" stroke-linejoin="miter" fill="none" stroke="#ff0000" stroke-opacity=".5" d="M -113.38724 0 L 113.38724 0 "/>
<symbol id="font_0_47">
<path d="M .549 .25800003 L .52400007 .25800003 C .513 .156 .499 .031000002 .323 .031000002 L .24100003 .031000002 C .194 .031000002 .192 .038000004 .192 .071 L .192 .60400006 C .192 .638 .192 .652 .28700004 .652 L .32000003 .652 L .32000003 .683 C .284 .68 .19300002 .68 .15200001 .68 C .11300001 .68 .035000005 .68 0 .683 L 0 .652 L .024000004 .652 C .101 .652 .10300001 .64100006 .10300001 .605 L .10300001 .078 C .10300001 .042000005 .101 .031000002 .024000004 .031000002 L 0 .031000002 L 0 0 L .521 0 L .549 .25800003 Z "/>
</symbol>
<symbol id="font_0_1f6">
<path d="M .12000001 .19400004 C .12000001 .25400005 .09600001 .299 .05300001 .299 C .018 .299 0 .27200005 0 .24600002 C 0 .22 .017000005 .19299999 .05300001 .19299999 C .07300001 .19299999 .087000008 .20300004 .093 .20900002 C .094000007 .211 .09600001 .21200004 .09600001 .21200004 C .09600001 .21200004 .09800001 .19800005 .09800001 .19400004 C .09800001 .16200003 .091 .09 .028000005 .027999998 C .016000003 .016000003 .016000003 .013999999 .016000003 .011000007 C .016000003 .004000008 .021000006 0 .026 0 C .037 0 .12000001 .076000008 .12000001 .19400004 Z "/>
</symbol>
<symbol id="font_0_1c">
<path d="M .451 .1 L .451 .15600002 L .42600004 .15600002 L .42600004 .1 C .42600004 .042000005 .40100003 .036000004 .39000003 .036000004 C .35700003 .036000004 .35300002 .081 .35300002 .086 L .35300002 .286 C .35300002 .328 .35300002 .367 .317 .404 C .278 .44300003 .22800002 .45900003 .18 .45900003 C .098000008 .45900003 .029000003 .41200004 .029000003 .34600003 C .029000003 .316 .049 .29900003 .075 .29900003 C .103 .29900003 .12100001 .31900005 .12100001 .34500004 C .12100001 .35700003 .116 .39000003 .07000001 .39100004 C .097 .42600004 .146 .43700005 .178 .43700005 C .227 .43700005 .284 .39800004 .284 .30900003 L .284 .272 C .23300001 .26900003 .163 .26600004 .099999997 .23600002 C .025000003 .20200002 0 .15000002 0 .106000009 C 0 .025000003 .097 0 .16 0 C .22600001 0 .272 .040000004 .291 .087000008 C .29500003 .047000003 .322 .005000001 .36900003 .005000001 C .39000003 .005000001 .451 .019000002 .451 .1 M .284 .15100001 C .284 .056 .21200001 .022000002 .16700001 .022000002 C .118 .022000002 .07700001 .057000005 .07700001 .107 C .07700001 .16200002 .119 .24500002 .284 .25100003 L .284 .15100001 Z "/>
</symbol>
<symbol id="font_0_74">
<path d="M .504 0 L .504 .031000002 C .45000003 .031000002 .43200005 .033 .40900005 .062000004 L .275 .23500002 C .305 .273 .34300003 .32200004 .367 .34800003 C .39800004 .384 .43900005 .39900003 .48600004 .4 L .48600004 .43100003 C .46000005 .42900003 .43000005 .42800004 .404 .42800004 C .374 .42800004 .321 .43 .30800004 .43100003 L .30800004 .4 C .32900004 .39800004 .337 .38500003 .337 .36900003 C .337 .35300002 .32700003 .34 .32200004 .33400003 L .26000003 .256 L .18200001 .35700003 C .17300001 .367 .17300001 .36900003 .17300001 .37500004 C .17300001 .39000003 .18800001 .39900003 .20800002 .4 L .20800002 .43100003 L .1 .42800004 C .079 .42800004 .032000007 .42900003 .005000001 .43100003 L .005000001 .4 C .075 .4 .076000008 .39900003 .123 .33900003 L .22200002 .21000001 C .17500001 .15 .17500001 .148 .128 .091000009 C .080000009 .033 .021 .031000002 0 .031000002 L 0 0 C .026000003 .002 .057000005 .003 .083000008 .003 L .17800002 0 L .17800002 .031000002 C .15600002 .034 .14900002 .047000003 .14900002 .062000004 C .14900002 .08400001 .17800002 .117000009 .23900002 .18900001 L .31500004 .089 C .323 .078 .33600004 .062000004 .33600004 .056 C .33600004 .047000003 .32700003 .032 .3 .031000002 L .3 0 L .40800003 .003 C .43500004 .003 .47400005 .002 .504 0 Z "/>
</symbol>
<symbol id="font_0_60">
<path d="M .33600004 .381 C .33600004 .41300003 .305 .44200004 .26200003 .44200004 C .18900001 .44200004 .15300001 .37500004 .13900002 .33200003 L .13900002 .44200004 L 0 .43100003 L 0 .4 C .07000001 .4 .07800001 .393 .07800001 .344 L .07800001 .076000008 C .07800001 .031000002 .067 .031000002 0 .031000002 L 0 0 L .11400001 .003 C .15400002 .003 .20100002 .003 .24100003 0 L .24100003 .031000002 L .22000002 .031000002 C .14600002 .031000002 .14400001 .042000005 .14400001 .078 L .14400001 .23200001 C .14400001 .33100004 .18600002 .42000003 .26200003 .42000003 C .26900003 .42000003 .27100004 .42000003 .27300004 .41900004 C .27 .418 .25000004 .40600003 .25000004 .38000003 C .25000004 .35200004 .27100004 .337 .293 .337 C .31100003 .337 .33600004 .349 .33600004 .381 Z "/>
</symbol>
<symbol id="font_0_fb">
<path d="M .38700003 .13000001 C .38700003 .14000002 .379 .14200002 .374 .14200002 C .365 .14200002 .36300005 .136 .36100004 .128 C .326 .025000003 .236 .025000003 .22600001 .025000003 C .17600002 .025000003 .136 .055000005 .113000009 .092 C .083000008 .14000002 .083000008 .20600002 .083000008 .24200002 L .36200003 .24200002 C .38400004 .24200002 .38700003 .24200002 .38700003 .263 C .38700003 .36200003 .33300004 .45900003 .20800002 .45900003 C .09200001 .45900003 0 .35600005 0 .23100002 C 0 .097 .105000007 0 .22000002 0 C .342 0 .38700003 .111 .38700003 .13000001 M .321 .263 L .08400001 .263 C .09 .41200004 .17400001 .43700005 .20800002 .43700005 C .31100003 .43700005 .321 .30200003 .321 .263 M .31800003 .67300006 C .31800003 .691 .3 .709 .282 .709 C .26700003 .709 .256 .698 .252 .69200006 L .13200002 .539 L .149 .521 L .30100004 .643 C .31000004 .65000006 .31800003 .661 .31800003 .67300006 Z "/>
</symbol>
<symbol id="font_0_48">
<path d="M .22200004 0 L .22200004 .031000002 C .155 .031000002 .144 .031000002 .144 .076000008 L .144 .694 L 0 .683 L 0 .652 C .07000001 .652 .07800001 .64500007 .07800001 .596 L .07800001 .076000008 C .07800001 .031000002 .067 .031000002 0 .031000002 L 0 0 L .11100001 .003 L .22200004 0 Z "/>
</symbol>
<use xlink:href="#font_0_47" transform="matrix(27.673888,0,0,-27.673888,503.55485,382.52223)" fill="#ff0000" fill-opacity=".5"/>
<use xlink:href="#font_0_1f6" transform="matrix(27.673888,0,0,-27.673888,522.31777,371.59104)" fill="#ff0000" fill-opacity=".5"/>
<use xlink:href="#font_0_1c" transform="matrix(27.673888,0,0,-27.673888,528.51669,382.82664)" fill="#ff0000" fill-opacity=".5"/>
<use xlink:href="#font_0_74" transform="matrix(27.673888,0,0,-27.673888,541.8002,382.52223)" fill="#ff0000" fill-opacity=".5"/>
<use xlink:href="#font_0_32" transform="matrix(27.673888,0,0,-27.673888,556.85476,382.82664)" fill="#ff0000" fill-opacity=".5"/>
<use xlink:href="#font_0_60" transform="matrix(27.673888,0,0,-27.673888,578.35739,382.52223)" fill="#ff0000" fill-opacity=".5"/>
<use xlink:href="#font_0_fb" transform="matrix(27.673888,0,0,-27.673888,589.2055,382.82664)" fill="#ff0000" fill-opacity=".5"/>
<use xlink:href="#font_0_32" transform="matrix(27.673888,0,0,-27.673888,601.49276,382.82664)" fill="#ff0000" fill-opacity=".5"/>
<use xlink:href="#font_0_48" transform="matrix(27.673888,0,0,-27.673888,613.9183,382.52223)" fill="#ff0000" fill-opacity=".5"/>
</g>
</svg>
