<svg xmlns="http://www.w3.org/2000/svg" xmlns:xlink="http://www.w3.org/1999/xlink" version="1.1" width="156.3pt" height="49.55pt" viewBox="0 0 156.3 49.55">
<path transform="matrix(1,0,0,-1,78.152,36.289)" stroke-width=".3985" stroke-linecap="butt" stroke-miterlimit="10" stroke-linejoin="miter" fill="none" stroke="#000000" d="M-77.95372 0H77.95372"/>
<path transform="matrix(1,0,0,-1,78.152,36.289)" d="M1.71234 0C1.71234 .94571 .94571 1.71234 0 1.71234-.94571 1.71234-1.71234 .94571-1.71234 0-1.71234-.94571-.94571-1.71234 0-1.71234 .94571-1.71234 1.71234-.94571 1.71234 0ZM0 0"/>
<path transform="matrix(1,0,0,-1,78.152,36.289)" stroke-width=".3985" stroke-linecap="butt" stroke-miterlimit="10" stroke-linejoin="miter" fill="none" stroke="#000000" d="M1.71234 0C1.71234 .94571 .94571 1.71234 0 1.71234-.94571 1.71234-1.71234 .94571-1.71234 0-1.71234-.94571-.94571-1.71234 0-1.71234 .94571-1.71234 1.71234-.94571 1.71234 0ZM0 0"/>
<text xml:space="preserve" transform="matrix(1 0 -0 1 69.509 81.938)" font-size="9.9626" font-family="CMR10"><tspan y="-35.709" x="6.152">0</tspan></text>
<path transform="matrix(1,0,0,-1,78.152,36.289)" d="M50.43341 0C50.43341 .94571 49.66678 1.71234 48.72105 1.71234 47.77534 1.71234 47.00871 .94571 47.00871 0 47.00871-.94571 47.77534-1.71234 48.72105-1.71234 49.66678-1.71234 50.43341-.94571 50.43341 0ZM48.72105 0"/>
<path transform="matrix(1,0,0,-1,78.152,36.289)" stroke-width=".3985" stroke-linecap="butt" stroke-miterlimit="10" stroke-linejoin="miter" fill="none" stroke="#000000" d="M50.43341 0C50.43341 .94571 49.66678 1.71234 48.72105 1.71234 47.77534 1.71234 47.00871 .94571 47.00871 0 47.00871-.94571 47.77534-1.71234 48.72105-1.71234 49.66678-1.71234 50.43341-.94571 50.43341 0ZM48.72105 0"/>
<text xml:space="preserve" transform="matrix(1 0 -0 1 117.874 79.807)" font-size="9.9626" font-family="CMMI10" font-style="italic"><tspan y="-35.709" x="6.152">x</tspan></text>
<path transform="matrix(1,0,0,-1,78.152,36.289)" d="M-56.75291 0C-56.75291 .94571-57.51955 1.71234-58.46527 1.71234-59.41098 1.71234-60.17761 .94571-60.17761 0-60.17761-.94571-59.41098-1.71234-58.46527-1.71234-57.51955-1.71234-56.75291-.94571-56.75291 0ZM-58.46527 0"/>
<path transform="matrix(1,0,0,-1,78.152,36.289)" stroke-width=".3985" stroke-linecap="butt" stroke-miterlimit="10" stroke-linejoin="miter" fill="none" stroke="#000000" d="M-56.75291 0C-56.75291 .94571-57.51955 1.71234-58.46527 1.71234-59.41098 1.71234-60.17761 .94571-60.17761 0-60.17761-.94571-59.41098-1.71234-58.46527-1.71234-57.51955-1.71234-56.75291-.94571-56.75291 0ZM-58.46527 0"/>
<text xml:space="preserve" transform="matrix(1 0 -0 1 10.914001 79.807)" font-size="9.9626" font-family="CMMI10" font-style="italic"><tspan y="-35.709" x="6.152">y</tspan></text>
<path transform="matrix(1,0,0,-1,78.152,36.289)" stroke-width=".3985" stroke-linecap="butt" stroke-dasharray="2.98883,2.98883" stroke-miterlimit="10" stroke-linejoin="miter" fill="none" stroke="#000000" d="M.29886 19.48842H48.42218"/>
<path transform="matrix(-1,-0,0,1,78.45086,16.800581)" stroke-width=".3985" stroke-linecap="square" stroke-miterlimit="10" stroke-linejoin="miter" fill="none" stroke="#000000" d="M.09961-2.5903V2.5903"/>
<path transform="matrix(1,0,0,-1,126.57418,16.800581)" stroke-width=".3985" stroke-linecap="square" stroke-miterlimit="10" stroke-linejoin="miter" fill="none" stroke="#000000" d="M.09961-2.5903V2.5903"/>
<path transform="matrix(1,0,0,-1,78.152,36.289)" stroke-width=".3985" stroke-linecap="butt" stroke-dasharray="2.98883,2.98883" stroke-miterlimit="10" stroke-linejoin="miter" fill="none" stroke="#ff0000" d="M-.29886 29.23262H-58.1664"/>
<path transform="matrix(1,0,0,-1,77.85314,7.056381)" stroke-width=".3985" stroke-linecap="square" stroke-miterlimit="10" stroke-linejoin="miter" fill="none" stroke="#ff0000" d="M.09961-2.5903V2.5903"/>
<path transform="matrix(-1,-0,0,1,19.9856,7.056381)" stroke-width=".3985" stroke-linecap="square" stroke-miterlimit="10" stroke-linejoin="miter" fill="none" stroke="#ff0000" d="M.09961-2.5903V2.5903"/>
<path transform="matrix(1,0,0,-1,78.152,36.289)" stroke-width=".3985" stroke-linecap="butt" stroke-miterlimit="10" stroke-linejoin="miter" fill="none" stroke="#000000" d="M24.36052 19.48842"/>
<text xml:space="preserve" transform="matrix(1 0 -0 1 90.746 46.499)" font-size="9.9626" font-family="CMSY10" font-style="italic"><tspan y="-35.709" x="6.152">|</tspan></text>
<text xml:space="preserve" transform="matrix(1 0 -0 1 90.746 46.499)" font-size="9.9626" font-family="CMMI10" font-style="italic"><tspan y="-35.709" x="8.919">x</tspan></text>
<text xml:space="preserve" transform="matrix(1 0 -0 1 90.746 46.499)" font-size="9.9626" font-family="CMSY10" font-style="italic"><tspan y="-35.709" x="14.612999">|</tspan></text>
<path transform="matrix(1,0,0,-1,78.152,36.289)" stroke-width=".3985" stroke-linecap="butt" stroke-miterlimit="10" stroke-linejoin="miter" fill="none" stroke="#ff0000" d="M-29.23262 29.23262"/>
<text fill="#ff0000" xml:space="preserve" transform="matrix(1 0 -0 1 37.379 53.757005)" font-size="9.9626" font-family="CMSY10" font-style="italic"><tspan y="-35.709" x="6.152">|</tspan></text>
<text fill="#ff0000" xml:space="preserve" transform="matrix(1 0 -0 1 37.379 53.757005)" font-size="9.9626" font-family="CMMI10" font-style="italic"><tspan y="-35.709" x="8.919">y</tspan></text>
<text fill="#ff0000" xml:space="preserve" transform="matrix(1 0 -0 1 37.379 53.757005)" font-size="9.9626" font-family="CMSY10" font-style="italic"><tspan y="-35.709" x="14.160999">|</tspan></text>
</svg>
