<svg xmlns="http://www.w3.org/2000/svg" xmlns:xlink="http://www.w3.org/1999/xlink" width="219.813" height="216.92" viewBox="0 0 164.86 162.69"><path stroke-width=".399" stroke-miterlimit="10" fill="none" stroke="#000" d="M.198 84.34h155.448"/><path stroke-width=".319" stroke-linecap="round" stroke-linejoin="round" fill="none" stroke="#000" d="M154.45 82.746c.1.598 1.196 1.494 1.494 1.594-.298.1-1.394.996-1.494 1.594"/><path stroke-width=".399" stroke-miterlimit="10" fill="none" stroke="#000" d="M26.182 83.427v1.826"/><symbol id="a"><path d="M.611 0c.016 0 .038 0 .038.023S.627.046.611.046H.038C.022.046 0 .046 0 .023S.022 0 .038 0h.573z"/></symbol><use xlink:href="#a" transform="matrix(7.9701 0 0 -7.9701 30.403 92.1)"/><symbol id="b"><path d="M.229.204c.016.015.058.048.074.062.062.057.121.112.121.203 0 .119-.1.196-.225.196C.079.665 0 .574 0 .485 0 .436.039.429.053.429c.021 0 .052.015.052.053 0 .052-.05.052-.062.052a.155.155 0 0 0 .145.098C.281.632.329.553.329.469.329.365.256.289.138.168L.012.038C0 .027 0 .025 0 0h.395l.029.179H.393A.316.316 0 0 0 .37.09C.364.082.288.082.272.082H.094l.135.122z"/></symbol><use xlink:href="#b" transform="matrix(7.9701 0 0 -7.9701 36.711 93.909)"/><path stroke-width=".399" stroke-miterlimit="10" fill="none" stroke="#000" d="M52.167 83.427v1.826"/><use xlink:href="#a" transform="matrix(7.9701 0 0 -7.9701 56.388 92.1)"/><symbol id="c"><path d="M.218.637c0 .027-.002.028-.029.028C.148.625.095.601 0 .601V.568c.027 0 .081 0 .139.027V.082C.139.045.136.033.041.033H.006V0c.041.003.127.003.172.003C.223.003.31.003.351 0v.033H.316C.221.033.218.045.218.082v.555z"/></symbol><use xlink:href="#c" transform="matrix(7.9701 0 0 -7.9701 63.04 93.909)"/><path stroke-width=".399" stroke-miterlimit="10" fill="none" stroke="#000" d="M104.135 83.427v1.826"/><use xlink:href="#c" transform="matrix(7.9701 0 0 -7.9701 108.42 93.909)"/><path stroke-width=".399" stroke-miterlimit="10" fill="none" stroke="#000" d="M130.12 83.427v1.826"/><use xlink:href="#b" transform="matrix(7.9701 0 0 -7.9701 134.061 93.909)"/><path stroke-width=".399" stroke-miterlimit="10" fill="none" stroke="#000" d="M78.151 162.293V6.845"/><path stroke-width=".319" stroke-linecap="round" stroke-linejoin="round" fill="none" stroke="#000" d="M76.557 8.04c.598-.099 1.494-1.195 1.594-1.493.1.298.996 1.394 1.594 1.494"/><path stroke-width=".797" stroke-miterlimit="10" fill="none" stroke="red" d="M26.182 162.293V6.387M130.12 162.293V6.387"/><symbol id="d"><path d="M.189.376v.257c0 .026.002.035.021.039a.527.527 0 0 0 .062.002c.086 0 .213 0 .213-.149C.485.439.441.376.305.376H.189M.414.361c.095.027.173.086.173.164 0 .099-.121.18-.268.18H0V.674h.023C.1.674.102.663.102.626V.101C.102.064.1.053.023.053H0V.022c.047.003.097.003.145.003.048 0 .098 0 .146-.003v.031H.268C.191.053.189.064.189.101v.25h.12C.381.351.413.313.417.309c.03-.037.03-.052.03-.123 0-.067 0-.111.048-.149C.542 0 .602 0 .613 0c.084 0 .099.087.099.111 0 .006 0 .018-.014.018C.685.129.685.12.684.112.679.049.648.025.617.025c-.032 0-.043.02-.051.037C.557.084.548.152.542.197.534.259.525.326.414.361z"/></symbol><symbol id="e"><path d="M.371.24c.022 0 .027 0 .027.021 0 .103-.056.198-.184.198C.094.459 0 .355 0 .231 0 .1.105 0 .227 0c.122 0 .171.107.171.13 0 .007-.005.013-.014.013C.374.143.371.136.37.132A.142.142 0 0 0 .232.028.137.137 0 0 0 .12.089.265.265 0 0 0 .086.24h.285M.087.264c.009.154.099.17.127.17.055 0 .115-.042.116-.17H.087z"/></symbol><use xlink:href="#d" transform="matrix(8.9664 0 0 -8.9664 151.022 94.184)"/><use xlink:href="#e" transform="matrix(8.9664 0 0 -8.9664 157.71 94.086)"/><symbol id="f"><path d="M.197.604c0 .036.002.048.082.048h.025v.031C.263.68.195.68.152.68S.041.68 0 .683V.652h.025C.105.652.107.64.107.604V.079C.107.043.105.031.025.031H0V0c.041.003.109.003.152.003S.263.003.304 0v.031H.279c-.08 0-.082.012-.082.048v.525z"/></symbol><symbol id="g"><path d="M.151.259c0 .108.078.158.138.158.055 0 .073-.039.073-.109V.077C.362.031.351.031.285.031V0c.047.002.066.003.114.003S.46.002.513 0v.031c-.066 0-.077 0-.077.046v.182c0 .108.078.158.138.158.055 0 .073-.039.073-.109V.077C.647.031.636.031.57.031V0c.047.002.066.003.114.003S.745.002.798 0v.031c-.051 0-.076 0-.077.031v.192c0 .087 0 .115-.033.152C.667.43.627.442.581.442A.165.165 0 0 1 .432.347C.42.406.38.442.296.442a.163.163 0 0 1-.15-.098H.145v.098L0 .431V.4C.068.4.077.393.077.344V.077C.077.031.066.031 0 .031V0c.047.002.066.003.114.003S.175.002.228 0v.031c-.066 0-.077 0-.077.046v.182z"/></symbol><use xlink:href="#f" transform="matrix(8.9664 0 0 -8.9664 63.92 9.451)"/><use xlink:href="#g" transform="matrix(8.9664 0 0 -8.9664 67.265 9.451)"/></svg>