<?xml version="1.0" encoding="UTF-8" standalone="no"?>
<!DOCTYPE svg PUBLIC "-//W3C//DTD SVG 1.1//EN" "http://www.w3.org/Graphics/SVG/1.1/DTD/svg11.dtd">
<svg xmlns="http://www.w3.org/2000/svg" xmlns:xlink="http://www.w3.org/1999/xlink" version="1.1" width="698.9166pt" height="668.38888pt" viewBox="0 0 698.9166 668.38888">
<g enable-background="new">
<path transform="matrix(2.7777777,0,0,-2.7777777,315.5139,352.87498)" stroke-width=".3985" stroke-linecap="butt" stroke-miterlimit="10" stroke-linejoin="miter" fill="none" stroke="#000000" d="M -113.38724 0 L 112.92896 0 "/>
<path transform="matrix(2.7777777,0,0,-2.7777777,629.20547,352.87498)" stroke-width=".31879" stroke-linecap="round" stroke-linejoin="round" fill="none" stroke="#000000" d="M -1.19551 1.59401 C -1.09587 .99626 0 .09961 .29886 0 C 0 -.09961 -1.09587 -.99626 -1.19551 -1.59401 "/>
<symbol id="font_0_5f">
<path d="M .697 .11000001 C .697 .116000007 .697 .127 .684 .127 C .673 .127 .673 .118 .672 .111 C .666 .040000004 .631 .022000002 .606 .022000002 C .557 .022000002 .549 .07300001 .535 .16600001 L .522 .246 C .504 .31000004 .455 .34300003 .40000005 .36200003 C .497 .38600005 .575 .44700004 .575 .52500006 C .575 .62100008 .46100004 .70500007 .314 .70500007 L 0 .70500007 L 0 .674 L .024000004 .674 C .10100001 .674 .103000018 .66300007 .103000018 .62700006 L .103000018 .1 C .103000018 .064 .10100001 .053000004 .024000004 .053000004 L 0 .053000004 L 0 .022000002 C .036000004 .025000003 .10700001 .025000003 .14600002 .025000003 C .18500002 .025000003 .256 .025000003 .29200004 .022000002 L .29200004 .053000004 L .268 .053000004 C .19100002 .053000004 .18900001 .064 .18900001 .1 L .18900001 .35300005 L .30400003 .35300005 C .32000003 .35300005 .36200003 .35300005 .397 .31900005 C .43500004 .28300003 .43500004 .252 .43500004 .185 C .43500004 .120000008 .43500004 .080000009 .47600005 .042000005 C .517 .006000001 .572 0 .602 0 C .68 0 .697 .082 .697 .11000001 M .47200004 .52500006 C .47200004 .45600004 .448 .37500004 .3 .37500004 L .18900001 .37500004 L .18900001 .63400009 C .18900001 .65700009 .18900001 .669 .21100001 .67200008 C .22100002 .674 .25000004 .674 .27 .674 C .36 .674 .47200004 .67 .47200004 .52500006 Z "/>
</symbol>
<symbol id="font_0_32">
<path d="M .38700003 .13000001 C .38700003 .14000002 .379 .14200002 .374 .14200002 C .365 .14200002 .36300005 .136 .36100004 .128 C .326 .025000003 .236 .025000003 .22600001 .025000003 C .17600002 .025000003 .136 .055000005 .113000009 .092 C .083000008 .14000002 .083000008 .20600002 .083000008 .24200002 L .36200003 .24200002 C .38400004 .24200002 .38700003 .24200002 .38700003 .263 C .38700003 .36200003 .33300004 .45900003 .20800002 .45900003 C .09200001 .45900003 0 .35600005 0 .23100002 C 0 .097 .105000007 0 .22000002 0 C .342 0 .38700003 .111 .38700003 .13000001 M .321 .263 L .08400001 .263 C .09 .41200004 .17400001 .43700005 .20800002 .43700005 C .31100003 .43700005 .321 .30200003 .321 .263 Z "/>
</symbol>
<use xlink:href="#font_0_5f" transform="matrix(27.673888,0,0,-27.673888,641.22409,362.631)"/>
<use xlink:href="#font_0_32" transform="matrix(27.673888,0,0,-27.673888,661.3984,362.3266)"/>
<path transform="matrix(2.7777777,0,0,-2.7777777,315.5139,352.87498)" stroke-width=".3985" stroke-linecap="butt" stroke-miterlimit="10" stroke-linejoin="miter" fill="none" stroke="#000000" d="M 0 -113.38724 L 0 112.92896 "/>
<path transform="matrix(0,-2.7777777,-2.7777777,-0,315.5139,39.183427)" stroke-width=".31879" stroke-linecap="round" stroke-linejoin="round" fill="none" stroke="#000000" d="M -1.19551 1.59401 C -1.09587 .99626 0 .09961 .29886 0 C 0 -.09961 -1.09587 -.99626 -1.19551 -1.59401 "/>
<symbol id="font_0_41">
<path d="M .305 0 L .305 .031000002 L .279 .031000002 C .20000002 .031000002 .19700001 .042000005 .19700001 .078 L .19700001 .605 C .19700001 .64100006 .20000002 .652 .279 .652 L .305 .652 L .305 .683 C .27 .68 .19100002 .68 .15300001 .68 C .11400001 .68 .035 .68 0 .683 L 0 .652 L .026 .652 C .105000007 .652 .10800001 .64100006 .10800001 .605 L .10800001 .078 C .10800001 .042000005 .105000007 .031000002 .026 .031000002 L 0 .031000002 L 0 0 C .035 .003 .11400001 .003 .15200001 .003 C .19100002 .003 .27 .003 .305 0 Z "/>
</symbol>
<symbol id="font_0_4b">
<path d="M .781 0 L .781 .031000002 C .72900006 .031000002 .70400008 .031000002 .703 .061000006 L .703 .252 C .703 .33800004 .703 .36900003 .67200008 .40500004 C .65800008 .42200003 .625 .44200004 .56700006 .44200004 C .48300005 .44200004 .439 .38200004 .42200003 .344 C .40800003 .43100003 .33400003 .44200004 .289 .44200004 C .216 .44200004 .169 .39900003 .141 .337 L .141 .44200004 L 0 .43100003 L 0 .4 C .07000001 .4 .07800001 .393 .07800001 .344 L .07800001 .076000008 C .07800001 .031000002 .067 .031000002 0 .031000002 L 0 0 L .113000009 .003 L .225 0 L .225 .031000002 C .158 .031000002 .147 .031000002 .147 .076000008 L .147 .26000003 C .147 .36400003 .218 .42000003 .282 .42000003 C .345 .42000003 .356 .36600004 .356 .30900003 L .356 .076000008 C .356 .031000002 .345 .031000002 .278 .031000002 L .278 0 L .391 .003 L .503 0 L .503 .031000002 C .43600003 .031000002 .425 .031000002 .425 .076000008 L .425 .26000003 C .425 .36400003 .496 .42000003 .56 .42000003 C .623 .42000003 .634 .36600004 .634 .30900003 L .634 .076000008 C .634 .031000002 .623 .031000002 .556 .031000002 L .556 0 L .669 .003 L .781 0 Z "/>
</symbol>
<use xlink:href="#font_0_41" transform="matrix(27.673888,0,0,-27.673888,299.76655,28.133324)"/>
<use xlink:href="#font_0_4b" transform="matrix(27.673888,0,0,-27.673888,309.8675,28.133324)"/>
<path transform="matrix(2.7777777,0,0,-2.7777777,315.5139,352.87498)" stroke-width=".3985" stroke-linecap="butt" stroke-miterlimit="10" stroke-linejoin="miter" fill="none" stroke="#ff0000" d="M -99.21382 99.21382 L 99.21382 -99.21382 "/>
<symbol id="font_1_2">
<path d="M .45700003 .586 C .461 .6 .461 .602 .461 .609 C .461 .62700006 .447 .63600006 .432 .63600006 C .42200003 .63600006 .40600003 .63 .397 .615 C .395 .61 .387 .579 .38300003 .561 C .37600003 .535 .36900003 .508 .363 .48100005 L .318 .301 C .314 .286 .271 .21600002 .20500002 .21600002 C .15400002 .21600002 .143 .26000003 .143 .29700003 C .143 .34300003 .16000001 .40500004 .194 .49300004 C .21000001 .53400006 .21400002 .545 .21400002 .56500008 C .21400002 .61 .18200001 .6470001 .13200002 .6470001 C .037 .6470001 0 .50200006 0 .49300004 C 0 .48300005 .01 .48300005 .012 .48300005 C .022000002 .48300005 .023 .485 .028000003 .50100007 C .055000009 .595 .095000009 .625 .12900001 .625 C .13700001 .625 .15400002 .625 .15400002 .59300008 C .15400002 .568 .14400001 .54200008 .13700001 .523 C .097 .41700004 .079 .36 .079 .31300003 C .079 .224 .142 .194 .201 .194 C .24000003 .194 .274 .21100001 .30200003 .23900002 C .289 .187 .277 .13800001 .237 .08500001 C .21100001 .051 .17300001 .022 .127 .022 C .113000009 .022 .068 .025000006 .051000008 .06400001 C .067 .06400001 .080000009 .06400001 .094000007 .076000008 C .104 .08500001 .11400001 .098000008 .11400001 .117000009 C .11400001 .148 .087000008 .15200001 .07700001 .15200001 C .054000006 .15200001 .021 .136 .021 .087000008 C .021 .037 .065000008 0 .127 0 C .23 0 .333 .091000009 .361 .20400001 L .45700003 .586 Z "/>
</symbol>
<use xlink:href="#font_1_2" transform="matrix(27.673888,0,0,-27.673888,601.68869,639.52316)" fill="#ff0000"/>
<symbol id="font_2_1">
<path d="M .63100007 .19400002 C .646 .19400002 .665 .19400002 .665 .214 C .665 .23400001 .646 .23400001 .632 .23400001 L .033 .23400001 C .019000002 .23400001 0 .23400001 0 .214 C 0 .19400002 .019000002 .19400002 .034 .19400002 L .63100007 .19400002 M .632 0 C .646 0 .665 0 .665 .02000001 C .665 .040000008 .646 .040000008 .63100007 .040000008 L .034 .040000008 C .019000002 .040000008 0 .040000008 0 .02000001 C 0 0 .019000002 0 .033 0 L .632 0 Z "/>
</symbol>
<use xlink:href="#font_2_1" transform="matrix(27.673888,0,0,-27.673888,624.68307,630.1694)" fill="#ff0000"/>
<symbol id="font_3_1">
<path d="M .57600006 0 C .59300008 0 .611 0 .611 .019999996 C .611 .040000008 .59300008 .040000008 .57600006 .040000008 L .035000005 .040000008 C .018 .040000008 0 .040000008 0 .019999996 C 0 0 .018 0 .035000005 0 L .57600006 0 Z "/>
</symbol>
<use xlink:href="#font_3_1" transform="matrix(27.673888,0,0,-27.673888,654.64138,627.485)" fill="#ff0000"/>
<symbol id="font_1_1">
<path d="M .305 .31300003 C .311 .33900003 .334 .43100003 .404 .43100003 C .409 .43100003 .433 .43100003 .454 .418 C .426 .41300003 .40600003 .388 .40600003 .36400003 C .40600003 .34800003 .417 .32900004 .444 .32900004 C .46600003 .32900004 .498 .34700004 .498 .38700003 C .498 .43900005 .439 .45300005 .405 .45300005 C .347 .45300005 .312 .40000005 .3 .37700004 C .275 .44300003 .221 .45300005 .19200002 .45300005 C .08800001 .45300005 .031000002 .32400004 .031000002 .29900003 C .031000002 .28900004 .041 .28900004 .043000007 .28900004 C .051000008 .28900004 .054000006 .291 .056 .3 C .09 .40600003 .156 .43100003 .19000001 .43100003 C .209 .43100003 .244 .42200003 .244 .36400003 C .244 .33300004 .22700002 .26600004 .19000001 .126 C .17400001 .064 .13900002 .022000002 .095000009 .022000002 C .08900001 .022000002 .06600001 .022000002 .045 .035 C .07000001 .040000004 .09200001 .061 .09200001 .089 C .09200001 .116000007 .07000001 .124000009 .055000009 .124000009 C .025 .124000009 0 .098000008 0 .06600001 C 0 .020000002 .050000006 0 .094000007 0 C .16000001 0 .19600001 .07000001 .19900002 .076000008 C .21100001 .039 .24700003 0 .307 0 C .41 0 .467 .12900001 .467 .15400002 C .467 .16400002 .458 .16400002 .455 .16400002 C .446 .16400002 .444 .16000001 .442 .15300001 C .409 .046 .341 .022000002 .30900003 .022000002 C .27 .022000002 .254 .054 .254 .08800001 C .254 .11000001 .26 .13200002 .271 .17600002 L .305 .31300003 Z "/>
</symbol>
<use xlink:href="#font_1_1" transform="matrix(27.673888,0,0,-27.673888,674.67196,634.15438)" fill="#ff0000"/>
</g>
</svg>
