<svg xmlns="http://www.w3.org/2000/svg" xmlns:xlink="http://www.w3.org/1999/xlink" width="219.827" height="216.68" viewBox="0 0 164.87 162.51"><path stroke-width=".399" stroke-miterlimit="10" fill="none" stroke="#000" d="M.2 123.334h155.448"/><path stroke-width=".319" stroke-linecap="round" stroke-linejoin="round" fill="none" stroke="#000" d="M154.453 121.74c.1.598 1.195 1.494 1.494 1.594-.299.1-1.395.996-1.494 1.594"/><path stroke-width=".399" stroke-miterlimit="10" fill="none" stroke="#000" d="M117.13 121.964v2.74"/><symbol id="a"><path d="M.424.179H.393A.316.316 0 0 0 .37.09C.364.082.288.082.272.082H.094l.135.122c.016.015.058.048.074.062.062.057.121.112.121.203 0 .119-.1.196-.225.196C.079.665 0 .574 0 .485 0 .436.039.429.053.429c.021 0 .052.015.052.053 0 .052-.05.052-.062.052a.155.155 0 0 0 .145.098C.281.632.329.553.329.469.329.365.256.289.138.168L.012.038C0 .027 0 .025 0 0h.395l.029.179z"/></symbol><use xlink:href="#a" transform="matrix(7.9701 0 0 -7.9701 115.435 133.36)"/><path stroke-width=".399" stroke-miterlimit="10" fill="none" stroke="#000" d="M39.176 162.31V6.863"/><path stroke-width=".319" stroke-linecap="round" stroke-linejoin="round" fill="none" stroke="#000" d="M37.582 8.057c.598-.1 1.494-1.195 1.594-1.494.1.299.996 1.395 1.594 1.494"/><path stroke-width=".399" stroke-miterlimit="10" fill="none" stroke="#000" d="M37.806 45.38h2.74"/><symbol id="b"><path d="M.218 0v.033C.153.033.149.038.149.077v.364L.003.43V.397C.067.397.076.391.076.342V.078C.076.033.064.033 0 .033V0c.039.003.095.003.11.003.013 0 .073 0 .108-.003M.161.602a.055.055 0 1 1-.11 0c0-.029.023-.055.055-.055.031 0 .055.026.055.055z"/></symbol><use xlink:href="#a" transform="matrix(7.9701 0 0 -7.9701 29.852 47.948)"/><use xlink:href="#b" transform="matrix(7.9701 0 0 -7.9701 34.563 47.948)"/><path stroke-width=".399" stroke-miterlimit="10" fill="none" stroke="#000" d="M39.176 123.334 117.13 45.38M58.664 123.334c0-5.164-2.051-10.12-5.377-13.45"/><path stroke-width=".31899362" stroke-linecap="round" stroke-linejoin="round" fill="none" stroke="#000" d="M53.004 111.857c.353-.493.212-1.902.072-2.183.281.14 1.69.282 2.183-.07"/><path d="M39.176 123.334h19.488c0-5.164-2.051-10.12-5.701-13.773z" fill="#b7b7b7"/><path stroke-width=".399" stroke-miterlimit="10" fill="none" stroke="#000" d="M58.664 123.334c0-5.164-2.051-10.12-5.377-13.45"/><path stroke-width=".31899362" stroke-linecap="round" stroke-linejoin="round" fill="none" stroke="#000" d="M53.004 111.857c.353-.493.212-1.902.072-2.183.281.14 1.69.282 2.183-.07"/><symbol id="c"><path d="M.521.48H.502C.5.461.481.454.464.454.366.454.268.461.17.461.07.461.029.446.012.34h.024c.007.031.032.048.063.048h.05V.356C.149.299.15.073.067.073.039.073.028.108.028.131H.004C.005.075 0 0 .077 0 .18 0 .179.225.179.293L.178.388h.134V.115C.312.051.341 0 .411 0c.09 0 .105.084.105.156H.492c0-.034-.006-.12-.054-.12C.4.036.396.076.396.105v.283c.08 0 .123-.007.125.092z"/></symbol><use xlink:href="#c" transform="matrix(7.2727 0 0 -7.2727 64.274 110.273)"/><path stroke-width=".558" stroke-miterlimit="10" fill="none" stroke="#000" d="M64.049 111.565h4.269"/><symbol id="d"><path d="M.49.164V.2H.379v.446c0 .021 0 .028-.022.028-.012 0-.016 0-.026-.014L0 .2V.164h.294V.082c0-.034 0-.046-.081-.046H.186V0l.15.004L.487 0v.036H.46C.379.036.379.048.379.082v.082H.49M.301.2H.037l.264.366V.2z"/></symbol><use xlink:href="#d" transform="matrix(7.2727 0 0 -7.2727 64.397 117.562)"/><use xlink:href="#a" transform="scale(7.97002 -7.97002) rotate(45 17.422 5.267)"/><symbol id="e"><path d="M.673 1H.615L.388.217.192.634 0 .532.012.511l.107.04L.382 0l.291 1z"/></symbol><use xlink:href="#e" transform="scale(7.97002 -7.97002) rotate(45 17.291 5.974)"/><path stroke-width=".44599554" stroke-miterlimit="10" fill="none" stroke="#000" d="m72.177 74.4 2.994-2.995"/><use xlink:href="#a" transform="scale(7.97002 -7.97002) rotate(45 16.804 6.757)"/><path d="M118.346 45.36a1.195 1.195 0 1 0-2.39 0 1.195 1.195 0 0 0 2.39 0zm-1.195 0"/><path stroke-width=".399" stroke-miterlimit="10" fill="none" stroke="#000" d="M118.346 45.36a1.195 1.195 0 1 0-2.39 0 1.195 1.195 0 0 0 2.39 0zm-1.195 0"/><path d="M40.372 123.334a1.196 1.196 0 1 0-2.392 0 1.196 1.196 0 0 0 2.392 0zm-1.196 0"/><path stroke-width=".399" stroke-miterlimit="10" fill="none" stroke="#000" d="M40.372 123.334a1.196 1.196 0 1 0-2.392 0 1.196 1.196 0 0 0 2.392 0zm-1.196 0"/><symbol id="f"><path d="M.411.177H.383C.381.164.373.105.36.089.354.08.285.08.265.08H.087l.099.094C.35.316.411.369.411.471c0 .115-.095.195-.218.195A.188.188 0 0 1 0 .484C0 .434.043.429.052.429c.022 0 .052.016.052.052a.05.05 0 0 1-.052.052L.04.532a.15.15 0 0 0 .142.103C.284.635.319.54.319.471.319.369.242.286.194.234L.011.036C0 .025 0 .023 0 0h.383l.028.177z"/></symbol><use xlink:href="#f" transform="matrix(8.9664 0 0 -8.9664 106.323 41.86)"/><symbol id="g"><path d="M.512.229v.056H.284v.226H.228V.285H0V.229h.228V0h.056v.229h.228z"/></symbol><use xlink:href="#g" transform="matrix(8.9664 0 0 -8.9664 113.022 41.86)"/><symbol id="h"><path d="M.217 0v.031C.152.031.148.036.148.075v.367L.004.431V.4C.068.4.077.394.077.345V.077C.077.031.066.031 0 .031V0c.045.002.066.003.11.003.016 0 .058 0 .107-.003M.161.603c0 .03-.024.054-.054.054A.054.054 0 0 1 .053.603c0-.03.024-.054.054-.054s.054.024.054.054z"/></symbol><use xlink:href="#f" transform="matrix(8.9664 0 0 -8.9664 120.618 41.86)"/><use xlink:href="#h" transform="matrix(8.9664 0 0 -8.9664 125.657 41.86)"/><symbol id="i"><path d="M.433.342A.541.541 0 0 1 .395.57a.19.19 0 0 1-.178.118.19.19 0 0 1-.18-.12A.54.54 0 0 1 0 .342.51.51 0 0 1 .045.101.19.19 0 0 1 .216 0a.19.19 0 0 1 .181.12c.03.067.036.142.036.222M.347.354c0-.062 0-.146-.01-.205C.316.035.242.025.217.025c-.03 0-.102.014-.121.127-.01.059-.01.145-.01.202 0 .068 0 .147.012.202.02.089.084.107.118.107.038 0 .101-.02.12-.113C.347.495.347.417.347.354z"/></symbol><use xlink:href="#i" transform="matrix(8.9664 0 0 -8.9664 31.407 132.724)"/><symbol id="j"><path d="M.712.111c0 .006 0 .018-.014.018C.685.129.685.12.684.112.679.049.648.025.617.025c-.032 0-.043.02-.051.037C.557.084.548.152.542.197.534.259.525.326.414.361c.095.027.173.086.173.164 0 .099-.121.18-.268.18H0V.674h.023C.1.674.102.663.102.626V.101C.102.064.1.053.023.053H0V.022c.047.003.097.003.145.003.048 0 .098 0 .146-.003v.031H.268C.191.053.189.064.189.101v.25h.12C.381.351.413.313.417.309c.03-.037.03-.052.03-.123 0-.067 0-.111.048-.149C.542 0 .602 0 .613 0c.084 0 .099.087.099.111M.485.525C.485.439.441.376.305.376H.189v.257c0 .026.002.035.021.039a.527.527 0 0 0 .062.002c.086 0 .213 0 .213-.149z"/></symbol><symbol id="k"><path d="M.398.13c0 .007-.005.013-.014.013C.374.143.371.136.37.132A.142.142 0 0 0 .232.028.137.137 0 0 0 .12.089.265.265 0 0 0 .086.24h.285c.022 0 .027 0 .027.021 0 .103-.056.198-.184.198C.094.459 0 .355 0 .231 0 .1.105 0 .227 0c.122 0 .171.107.171.13M.33.264H.087c.009.154.099.17.127.17.055 0 .115-.042.116-.17z"/></symbol><use xlink:href="#j" transform="matrix(8.9664 0 0 -8.9664 151.025 133.228)"/><use xlink:href="#k" transform="matrix(8.9664 0 0 -8.9664 157.705 133.13)"/><symbol id="l"><path d="M.304 0v.031H.279c-.08 0-.082.012-.082.048v.525c0 .036.002.048.082.048h.025v.031C.263.68.195.68.152.68S.041.68 0 .683V.652h.025C.105.652.107.64.107.604V.079C.107.043.105.031.025.031H0V0c.041.003.109.003.152.003S.263.003.304 0z"/></symbol><symbol id="m"><path d="M.798 0v.031c-.051 0-.076 0-.077.031v.192c0 .087 0 .115-.033.152C.667.43.627.442.581.442A.165.165 0 0 1 .432.347C.42.406.38.442.296.442a.163.163 0 0 1-.15-.098H.145v.098L0 .431V.4C.068.4.077.393.077.344V.077C.077.031.066.031 0 .031V0c.047.002.066.003.114.003S.175.002.228 0v.031c-.066 0-.077 0-.077.046v.182c0 .108.078.158.138.158.055 0 .073-.039.073-.109V.077C.362.031.351.031.285.031V0c.047.002.066.003.114.003S.46.002.513 0v.031c-.066 0-.077 0-.077.046v.182c0 .108.078.158.138.158.055 0 .073-.039.073-.109V.077C.647.031.636.031.57.031V0c.047.002.066.003.114.003S.745.002.798 0z"/></symbol><use xlink:href="#l" transform="matrix(8.9664 0 0 -8.9664 24.908 9.492)"/><use xlink:href="#m" transform="matrix(8.9664 0 0 -8.9664 28.252 9.492)"/></svg>