<?xml version="1.0" encoding="UTF-8" standalone="no"?>
<!DOCTYPE svg PUBLIC "-//W3C//DTD SVG 1.1//EN" "http://www.w3.org/Graphics/SVG/1.1/DTD/svg11.dtd">
<svg xmlns="http://www.w3.org/2000/svg" xmlns:xlink="http://www.w3.org/1999/xlink" version="1.1" width="682.13888pt" height="668.38888pt" viewBox="0 0 682.13888 668.38888">
<g enable-background="new">
<path transform="matrix(2.7777777,0,0,-2.7777777,315.5139,352.87498)" stroke-width=".3985" stroke-linecap="butt" stroke-miterlimit="10" stroke-linejoin="miter" fill="none" stroke="#000000" d="M -113.38724 0 L 112.92896 0 "/>
<path transform="matrix(2.7777777,0,0,-2.7777777,629.20547,352.87498)" stroke-width=".31879" stroke-linecap="round" stroke-linejoin="round" fill="none" stroke="#000000" d="M -1.19551 1.59401 C -1.09587 .99626 0 .09961 .29886 0 C 0 -.09961 -1.09587 -.99626 -1.19551 -1.59401 "/>
<symbol id="font_0_5f">
<path d="M .697 .11000001 C .697 .116000007 .697 .127 .684 .127 C .673 .127 .673 .118 .672 .111 C .666 .040000004 .631 .022000002 .606 .022000002 C .557 .022000002 .549 .07300001 .535 .16600001 L .522 .246 C .504 .31000004 .455 .34300003 .40000005 .36200003 C .497 .38600005 .575 .44700004 .575 .52500006 C .575 .62100008 .46100004 .70500007 .314 .70500007 L 0 .70500007 L 0 .674 L .024000004 .674 C .10100001 .674 .103000018 .66300007 .103000018 .62700006 L .103000018 .1 C .103000018 .064 .10100001 .053000004 .024000004 .053000004 L 0 .053000004 L 0 .022000002 C .036000004 .025000003 .10700001 .025000003 .14600002 .025000003 C .18500002 .025000003 .256 .025000003 .29200004 .022000002 L .29200004 .053000004 L .268 .053000004 C .19100002 .053000004 .18900001 .064 .18900001 .1 L .18900001 .35300005 L .30400003 .35300005 C .32000003 .35300005 .36200003 .35300005 .397 .31900005 C .43500004 .28300003 .43500004 .252 .43500004 .185 C .43500004 .120000008 .43500004 .080000009 .47600005 .042000005 C .517 .006000001 .572 0 .602 0 C .68 0 .697 .082 .697 .11000001 M .47200004 .52500006 C .47200004 .45600004 .448 .37500004 .3 .37500004 L .18900001 .37500004 L .18900001 .63400009 C .18900001 .65700009 .18900001 .669 .21100001 .67200008 C .22100002 .674 .25000004 .674 .27 .674 C .36 .674 .47200004 .67 .47200004 .52500006 Z "/>
</symbol>
<symbol id="font_0_32">
<path d="M .38700003 .13000001 C .38700003 .14000002 .379 .14200002 .374 .14200002 C .365 .14200002 .36300005 .136 .36100004 .128 C .326 .025000003 .236 .025000003 .22600001 .025000003 C .17600002 .025000003 .136 .055000005 .113000009 .092 C .083000008 .14000002 .083000008 .20600002 .083000008 .24200002 L .36200003 .24200002 C .38400004 .24200002 .38700003 .24200002 .38700003 .263 C .38700003 .36200003 .33300004 .45900003 .20800002 .45900003 C .09200001 .45900003 0 .35600005 0 .23100002 C 0 .097 .105000007 0 .22000002 0 C .342 0 .38700003 .111 .38700003 .13000001 M .321 .263 L .08400001 .263 C .09 .41200004 .17400001 .43700005 .20800002 .43700005 C .31100003 .43700005 .321 .30200003 .321 .263 Z "/>
</symbol>
<use xlink:href="#font_0_5f" transform="matrix(27.673888,0,0,-27.673888,641.22409,362.631)"/>
<use xlink:href="#font_0_32" transform="matrix(27.673888,0,0,-27.673888,661.3984,362.3266)"/>
<path transform="matrix(2.7777777,0,0,-2.7777777,315.5139,352.87498)" stroke-width=".3985" stroke-linecap="butt" stroke-miterlimit="10" stroke-linejoin="miter" fill="none" stroke="#000000" d="M 0 -113.38724 L 0 112.92896 "/>
<path transform="matrix(0,-2.7777777,-2.7777777,-0,315.5139,39.183427)" stroke-width=".31879" stroke-linecap="round" stroke-linejoin="round" fill="none" stroke="#000000" d="M -1.19551 1.59401 C -1.09587 .99626 0 .09961 .29886 0 C 0 -.09961 -1.09587 -.99626 -1.19551 -1.59401 "/>
<symbol id="font_0_41">
<path d="M .305 0 L .305 .031000002 L .279 .031000002 C .20000002 .031000002 .19700001 .042000005 .19700001 .078 L .19700001 .605 C .19700001 .64100006 .20000002 .652 .279 .652 L .305 .652 L .305 .683 C .27 .68 .19100002 .68 .15300001 .68 C .11400001 .68 .035 .68 0 .683 L 0 .652 L .026 .652 C .105000007 .652 .10800001 .64100006 .10800001 .605 L .10800001 .078 C .10800001 .042000005 .105000007 .031000002 .026 .031000002 L 0 .031000002 L 0 0 C .035 .003 .11400001 .003 .15200001 .003 C .19100002 .003 .27 .003 .305 0 Z "/>
</symbol>
<symbol id="font_0_4b">
<path d="M .781 0 L .781 .031000002 C .72900006 .031000002 .70400008 .031000002 .703 .061000006 L .703 .252 C .703 .33800004 .703 .36900003 .67200008 .40500004 C .65800008 .42200003 .625 .44200004 .56700006 .44200004 C .48300005 .44200004 .439 .38200004 .42200003 .344 C .40800003 .43100003 .33400003 .44200004 .289 .44200004 C .216 .44200004 .169 .39900003 .141 .337 L .141 .44200004 L 0 .43100003 L 0 .4 C .07000001 .4 .07800001 .393 .07800001 .344 L .07800001 .076000008 C .07800001 .031000002 .067 .031000002 0 .031000002 L 0 0 L .113000009 .003 L .225 0 L .225 .031000002 C .158 .031000002 .147 .031000002 .147 .076000008 L .147 .26000003 C .147 .36400003 .218 .42000003 .282 .42000003 C .345 .42000003 .356 .36600004 .356 .30900003 L .356 .076000008 C .356 .031000002 .345 .031000002 .278 .031000002 L .278 0 L .391 .003 L .503 0 L .503 .031000002 C .43600003 .031000002 .425 .031000002 .425 .076000008 L .425 .26000003 C .425 .36400003 .496 .42000003 .56 .42000003 C .623 .42000003 .634 .36600004 .634 .30900003 L .634 .076000008 C .634 .031000002 .623 .031000002 .556 .031000002 L .556 0 L .669 .003 L .781 0 Z "/>
</symbol>
<use xlink:href="#font_0_41" transform="matrix(27.673888,0,0,-27.673888,299.76655,28.133324)"/>
<use xlink:href="#font_0_4b" transform="matrix(27.673888,0,0,-27.673888,309.8675,28.133324)"/>
<path transform="matrix(2.7777777,0,0,-2.7777777,315.5139,352.87498)" stroke-width=".3985" stroke-linecap="butt" stroke-miterlimit="10" stroke-linejoin="miter" fill="none" stroke="#ff0000" d="M 29.98927 100.09247 L -22.75038 69.64328 L -14.89676 56.0404 L 37.84288 86.48958 Z M -14.89676 56.0404 "/>
<symbol id="font_0_1b">
<path d="M .685 0 L .685 .031000002 L .66700008 .031000002 C .60700008 .031000002 .593 .038000004 .582 .071 L .36600004 .69600006 C .361 .70900008 .35900004 .716 .34300003 .716 C .32700003 .716 .324 .71000006 .319 .69600006 L .112 .098000008 C .094 .047000003 .054 .032 0 .031000002 L 0 0 L .102 .003 L .21700001 0 L .21700001 .031000002 C .16700001 .031000002 .142 .056 .142 .082 C .142 .085 .143 .095000009 .14400001 .097 L .19000001 .22800002 L .437 .22800002 L .49 .075 C .491 .071 .49300004 .065000008 .49300004 .061000006 C .49300004 .031000002 .437 .031000002 .41000004 .031000002 L .41000004 0 C .446 .003 .51600006 .003 .554 .003 L .685 0 M .42600004 .259 L .201 .259 L .31300003 .58400008 L .42600004 .259 Z "/>
</symbol>
<symbol id="font_0_6d">
<path d="M .503 .011000001 L .503 .042000005 C .43300004 .042000005 .425 .049000004 .425 .098000008 L .425 .45300005 L .278 .44200004 L .278 .411 C .34800003 .411 .356 .404 .356 .35500003 L .356 .17700002 C .356 .09 .308 .022000002 .23500002 .022000002 C .15100001 .022000002 .147 .069000009 .147 .12100001 L .147 .45300005 L 0 .44200004 L 0 .411 C .07800001 .411 .07800001 .40800003 .07800001 .31900005 L .07800001 .16900002 C .07800001 .091000009 .07800001 0 .23000002 0 C .286 0 .33 .028 .35900004 .09 L .35900004 0 L .503 .011000001 Z "/>
</symbol>
<symbol id="font_0_2b">
<path d="M .381 .13000001 C .381 .14000002 .37100003 .14000002 .368 .14000002 C .359 .14000002 .35700003 .136 .35500003 .13000001 C .326 .037 .261 .025000003 .224 .025000003 C .171 .025000003 .083000008 .068 .083000008 .22900002 C .083000008 .39200003 .16500002 .43400003 .218 .43400003 C .227 .43400003 .29 .43300004 .32500003 .397 C .284 .39400003 .278 .36400003 .278 .351 C .278 .32500003 .296 .305 .324 .305 C .35 .305 .37 .32200004 .37 .35200004 C .37 .42000003 .294 .45900003 .21700001 .45900003 C .092 .45900003 0 .351 0 .22700002 C 0 .09900001 .099 0 .215 0 C .349 0 .381 .120000008 .381 .13000001 Z "/>
</symbol>
<symbol id="font_0_4d">
<path d="M .503 0 L .503 .031000002 C .451 .031000002 .42600004 .031000002 .425 .061000006 L .425 .252 C .425 .33800004 .425 .36900003 .39400003 .40500004 C .38000003 .42200003 .347 .44200004 .289 .44200004 C .216 .44200004 .169 .39900003 .141 .337 L .141 .44200004 L 0 .43100003 L 0 .4 C .07000001 .4 .07800001 .393 .07800001 .344 L .07800001 .076000008 C .07800001 .031000002 .067 .031000002 0 .031000002 L 0 0 L .113000009 .003 L .225 0 L .225 .031000002 C .158 .031000002 .147 .031000002 .147 .076000008 L .147 .26000003 C .147 .36400003 .218 .42000003 .282 .42000003 C .345 .42000003 .356 .36600004 .356 .30900003 L .356 .076000008 C .356 .031000002 .345 .031000002 .278 .031000002 L .278 0 L .391 .003 L .503 0 Z "/>
</symbol>
<symbol id="font_0_54">
<path d="M .49300004 .41000004 C .49300004 .53700008 .39600004 .63600006 .284 .63600006 C .20600002 .63600006 .164 .592 .14400001 .57000008 L .14400001 .63600006 L 0 .625 L 0 .594 C .07100001 .594 .07800001 .58800008 .07800001 .544 L .07800001 .076 C .07800001 .031000004 .067 .031000004 0 .031000004 L 0 0 L .112 .0029999912 L .22500003 0 L .22500003 .031000004 C .158 .031000004 .14700002 .031000004 .14700002 .076 L .14700002 .244 L .14700002 .25300003 C .15200001 .237 .19400002 .183 .27 .183 C .38900004 .183 .49300004 .28100003 .49300004 .41000004 M .41000004 .41000004 C .41000004 .289 .34000004 .20500002 .266 .20500002 C .22600001 .20500002 .18800001 .22500001 .16100002 .266 C .14700002 .287 .14700002 .28800003 .14700002 .30800004 L .14700002 .531 C .17600002 .582 .22500003 .61100009 .27600003 .61100009 C .349 .61100009 .41000004 .523 .41000004 .41000004 Z "/>
</symbol>
<symbol id="font_0_51">
<path d="M .44300003 .22500003 C .44300003 .35300002 .34300003 .45900003 .222 .45900003 C .097 .45900003 0 .35000003 0 .22500003 C 0 .096 .104 0 .22100002 0 C .342 0 .44300003 .098000008 .44300003 .22500003 M .36 .23300003 C .36 .19700001 .36 .143 .33800004 .09900001 C .316 .054 .272 .025000003 .222 .025000003 C .17900002 .025000003 .135 .046 .10800001 .092 C .083000008 .136 .083000008 .19700001 .083000008 .23300003 C .083000008 .272 .083000008 .32600004 .10700001 .37000004 C .134 .41600005 .18100001 .43700005 .22100002 .43700005 C .26500003 .43700005 .30800004 .41500003 .33400003 .37200005 C .36 .32900004 .36 .27100004 .36 .23300003 Z "/>
</symbol>
<symbol id="font_0_42">
<path d="M .21400002 0 L .21400002 .031000002 C .148 .031000002 .144 .036000004 .144 .075 L .144 .44200004 L .0040000008 .43100003 L .0040000008 .4 C .069000009 .4 .07800001 .39400003 .07800001 .34500004 L .07800001 .076000008 C .07800001 .031000002 .067 .031000002 0 .031000002 L 0 0 L .11000001 .003 C .14500001 .003 .18 .001 .21400002 0 M .15900001 .60400006 C .15900001 .63100007 .136 .657 .10600001 .657 C .072000008 .657 .052 .629 .052 .60400006 C .052 .577 .075 .551 .10500001 .551 C .139 .551 .15900001 .57900008 .15900001 .60400006 Z "/>
</symbol>
<symbol id="font_0_69">
<path d="M .31300003 .135 L .31300003 .19200002 L .28800003 .19200002 L .28800003 .13700001 C .28800003 .063 .25800003 .025000003 .22100002 .025000003 C .15400002 .025000003 .15400002 .116000007 .15400002 .13300002 L .15400002 .411 L .29700003 .411 L .29700003 .44200004 L .15400002 .44200004 L .15400002 .626 L .12900001 .626 C .12799999 .544 .098000008 .43700005 0 .43300004 L 0 .411 L .085 .411 L .085 .135 C .085 .012000001 .178 0 .21400002 0 C .28500004 0 .31300003 .071 .31300003 .135 Z "/>
</symbol>
<use xlink:href="#font_0_1b" transform="matrix(23.966416,-13.836944,-13.836944,-23.966416,275.59294,179.51554)" fill="#ff0000"/>
<use xlink:href="#font_0_6d" transform="matrix(23.966416,-13.836944,-13.836944,-23.966416,293.0728,169.77504)" fill="#ff0000"/>
<use xlink:href="#font_0_2b" transform="matrix(23.966416,-13.836944,-13.836944,-23.966416,306.4461,162.05403)" fill="#ff0000"/>
<use xlink:href="#font_0_6d" transform="matrix(23.966416,-13.836944,-13.836944,-23.966416,317.03926,155.9381)" fill="#ff0000"/>
<use xlink:href="#font_0_4d" transform="matrix(23.966416,-13.836944,-13.836944,-23.966416,330.21238,147.98114)" fill="#ff0000"/>
<use xlink:href="#font_0_54" transform="matrix(23.966416,-13.836944,-13.836944,-23.966416,354.08308,140.39876)" fill="#ff0000"/>
<use xlink:href="#font_0_51" transform="matrix(23.966416,-13.836944,-13.836944,-23.966416,365.5473,127.93212)" fill="#ff0000"/>
<use xlink:href="#font_0_42" transform="matrix(23.966416,-13.836944,-13.836944,-23.966416,377.49815,120.68083)" fill="#ff0000"/>
<use xlink:href="#font_0_4d" transform="matrix(23.966416,-13.836944,-13.836944,-23.966416,384.13685,116.84801)" fill="#ff0000"/>
<use xlink:href="#font_0_69" transform="matrix(23.966416,-13.836944,-13.836944,-23.966416,396.6557,109.97177)" fill="#ff0000"/>
</g>
</svg>
