<svg xmlns="http://www.w3.org/2000/svg" xmlns:xlink="http://www.w3.org/1999/xlink" version="1.1" width="164.86pt" height="131.31pt" viewBox="0 0 164.86 131.31">
<path transform="matrix(1,0,0,-1,62.561,68.749)" stroke-width=".3985" stroke-linecap="butt" stroke-miterlimit="10" stroke-linejoin="miter" fill="none" stroke="#000000" d="M-62.36244 0H93.0854"/>
<path transform="matrix(1,0,0,-1,155.64641,68.749)" stroke-width=".31879" stroke-linecap="round" stroke-linejoin="round" fill="none" stroke="#000000" d="M-1.19551 1.59401C-1.09587 .99626 0 .09961 .29886 0 0-.09961-1.09587-.99626-1.19551-1.59401"/>
<path transform="matrix(1,0,0,-1,62.561,68.749)" stroke-width=".3985" stroke-linecap="butt" stroke-miterlimit="10" stroke-linejoin="miter" fill="none" stroke="#000000" d="M0-62.36244V61.90416"/>
<path transform="matrix(0,-1,-1,-0,62.561,6.844841)" stroke-width=".31879" stroke-linecap="round" stroke-linejoin="round" fill="none" stroke="#000000" d="M-1.19551 1.59401C-1.09587 .99626 0 .09961 .29886 0 0-.09961-1.09587-.99626-1.19551-1.59401"/>
<path transform="matrix(1,0,0,-1,62.561,68.749)" d="M64.00629 31.18121C64.00629 32.08908 63.27031 32.82504 62.36244 32.82504 61.45459 32.82504 60.71861 32.08908 60.71861 31.18121 60.71861 30.27335 61.45459 29.53737 62.36244 29.53737 63.27031 29.53737 64.00629 30.27335 64.00629 31.18121ZM62.36244 31.18121"/>
<path transform="matrix(1,0,0,-1,62.561,68.749)" stroke-width=".3985" stroke-linecap="butt" stroke-miterlimit="10" stroke-linejoin="miter" fill="none" stroke="#000000" d="M64.00629 31.18121C64.00629 32.08908 63.27031 32.82504 62.36244 32.82504 61.45459 32.82504 60.71861 32.08908 60.71861 31.18121 60.71861 30.27335 61.45459 29.53737 62.36244 29.53737 63.27031 29.53737 64.00629 30.27335 64.00629 31.18121ZM62.36244 31.18121"/>
<text xml:space="preserve" transform="matrix(1 0 -0 1 137.882 42.967)" font-size="9.9626" font-family="CMMI10" font-style="italic"><tspan y="-3.254" x="-9.439">z</tspan></text>
<path transform="matrix(1,0,0,-1,62.561,68.749)" d="M64.00629-31.18121C64.00629-30.27335 63.27031-29.53737 62.36244-29.53737 61.45459-29.53737 60.71861-30.27335 60.71861-31.18121 60.71861-32.08908 61.45459-32.82504 62.36244-32.82504 63.27031-32.82504 64.00629-32.08908 64.00629-31.18121ZM62.36244-31.18121"/>
<path transform="matrix(1,0,0,-1,62.561,68.749)" stroke-width=".3985" stroke-linecap="butt" stroke-miterlimit="10" stroke-linejoin="miter" fill="none" stroke="#000000" d="M64.00629-31.18121C64.00629-30.27335 63.27031-29.53737 62.36244-29.53737 61.45459-29.53737 60.71861-30.27335 60.71861-31.18121 60.71861-32.08908 61.45459-32.82504 62.36244-32.82504 63.27031-32.82504 64.00629-32.08908 64.00629-31.18121ZM62.36244-31.18121"/>
<path transform="matrix(1,0,0,-1,137.882,106.325)" stroke-width=".3985" stroke-linecap="butt" stroke-miterlimit="10" stroke-linejoin="miter" fill="none" stroke="#000000" d="M-9.439 8.938H-4.368"/>
<text xml:space="preserve" transform="matrix(1 0 -0 1 137.882 106.325)" font-size="9.9626" font-family="CMMI10" font-style="italic"><tspan y="-3.254" x="-9.439">z</tspan></text>
<path transform="matrix(1,0,0,-1,62.561,68.749)" stroke-width=".3985" stroke-linecap="butt" stroke-dasharray="2.98883,2.98883" stroke-miterlimit="10" stroke-linejoin="miter" fill="none" stroke="#000000" d="M62.36244 31.18121V-31.18121"/>
<path transform="matrix(1,0,0,-1,62.561,68.749)" d="M-29.53737 0C-29.53737 .90785-30.27335 1.64383-31.18121 1.64383-32.08908 1.64383-32.82504 .90785-32.82504 0-32.82504-.90785-32.08908-1.64383-31.18121-1.64383-30.27335-1.64383-29.53737-.90785-29.53737 0ZM-31.18121 0"/>
<path transform="matrix(1,0,0,-1,62.561,68.749)" stroke-width=".3985" stroke-linecap="butt" stroke-miterlimit="10" stroke-linejoin="miter" fill="none" stroke="#000000" d="M-29.53737 0C-29.53737 .90785-30.27335 1.64383-31.18121 1.64383-32.08908 1.64383-32.82504 .90785-32.82504 0-32.82504-.90785-32.08908-1.64383-31.18121-1.64383-30.27335-1.64383-29.53737-.90785-29.53737 0ZM-31.18121 0"/>
<text xml:space="preserve" transform="matrix(1 0 -0 1 26.776001 81.805)" font-size="9.9626" font-family="CMMI10" font-style="italic"><tspan y="-3.254" x="-9.439">w</tspan></text>
<text xml:space="preserve" transform="matrix(1 0 -0 1 26.776001 81.805)" font-size="9.9626" font-family="CMR10"><tspan y="-3.254" x=".7290001">=</tspan></text>
<path transform="matrix(1,0,0,-1,26.776001,81.805)" stroke-width=".3985" stroke-linecap="butt" stroke-miterlimit="10" stroke-linejoin="miter" fill="none" stroke="#000000" d="M11.245 8.938H18.645"/>
<text xml:space="preserve" transform="matrix(1 0 -0 1 26.776001 81.805)" font-size="9.9626" font-family="CMMI10" font-style="italic"><tspan y="-3.254" x="11.245">w</tspan></text>
<path transform="matrix(1,0,0,-1,62.561,68.749)" stroke-width=".3985" stroke-linecap="butt" stroke-miterlimit="10" stroke-linejoin="miter" fill="none" stroke="#000000" d=""/>
<text xml:space="preserve" transform="matrix(1 0 -0 1 160.103 81.65)" font-size="8.9664" font-family="CMR9"><tspan y="-3.254" x="-9.439 -2.651435">Re</tspan></text>
<path transform="matrix(1,0,0,-1,62.561,68.749)" stroke-width=".3985" stroke-linecap="butt" stroke-miterlimit="10" stroke-linejoin="miter" fill="none" stroke="#000000" d=""/>
<text xml:space="preserve" transform="matrix(1 0 -0 1 57.474 12.703999)" font-size="8.9664" font-family="CMR9"><tspan y="-3.254" x="-9.439 -6.1124656">Im</tspan></text>
</svg>
