<?xml version="1.0" encoding="utf-8"?>
<!-- Generator: Adobe Illustrator 19.2.1, SVG Export Plug-In . SVG Version: 6.00 Build 0)  -->
<svg version="1.1" id="layer" xmlns="http://www.w3.org/2000/svg" xmlns:xlink="http://www.w3.org/1999/xlink" x="0px" y="0px"
	 viewBox="0 0 652 652" style="enable-background:new 0 0 652 652;" xml:space="preserve">
<style type="text/css">
	.st0{fill:#EB212E;}
	.st1{fill:#FFCA30;}
	.st2{fill:#00AFEC;}
	.st3{fill:#DCDDDE;}
</style>
<g>
	<path d="M284,230h6v30c0,7.7-5.5,15.6-17.9,15.6c-11.2,0-18-5.7-18-15.3V230h6.8v29.4c0,7.7,3.7,11.3,11.7,11.3
		c7.9,0,11.4-5.7,11.4-11.3V230z"/>
	<path d="M309.3,230h-5.8v44.7h5.8v-34.1l26.7,34.2h6.1V230h-5.8v34.6L309.3,230z"/>
	<path d="M363.2,230v44.7h-6.7V230H363.2z"/>
	<path d="M372.7,230h6.8l11,33.5l12.2-33.5h5.7l-17,44.7H388L372.7,230z"/>
	<path d="M444.1,230v4.7h-19.8v14.6h15.9v4.7h-15.9v16h19.8v4.7h-26.6V230H444.1z"/>
	<path d="M473.7,253.7l0.7-0.2c3.4-1,8.4-6.3,8.4-12.3c0-5.4-5-11.2-15.9-11.2h-12.2v44.7h6.8v-40.5h4.8c7.2,0,9.8,4.2,9.8,7.7
		c0,3.8-3.1,9-9.9,9c0,0-1.1,0-1.7,0l15,23.7h8L473.7,253.7z"/>
	<path d="M515.1,264.2c0-4.2-4-6.6-8.6-9.4l-1.5-0.9c-5.1-3.1-10.6-7-10.6-13.3c0-6.5,5.8-11.4,13.4-11.4c6.6,0,10.2,1.5,11.9,2.3
		c-0.1,0.3-1.7,4-1.8,4.4c-1.5-0.7-4.6-2-8.9-2c-4.8,0-7.9,2.1-7.9,5.5c0,4.1,3.4,6.2,7.7,8.9l2,1.2c0,0,0.3,0.2,0.3,0.2
		c4.5,2.8,11.2,7.1,11.2,13.2c0,7.6-8.1,12.7-15.8,12.7c-7.3,0-11.5-2-13.2-2.9c0.2-0.4,1.7-3.9,1.9-4.3c0,0,0,0,0,0
		c2,0.9,5.6,2.5,11.4,2.5C511.3,270.8,515.1,267.8,515.1,264.2z"/>
	<path d="M540.3,230v44.7h-6.7V230H540.3z"/>
	<path d="M585.1,230v4.7h-14.6v40h-6.8v-40h-14.7V230H585.1z"/>
	<g>
		<path d="M600.7,234.7v14.6h15.9v4.7h-15.9v16c0,0,19.4,0,19.8,0v4.7h-26.6V230h26.6v4.7H600.7z"/>
		<path d="M613.9,215.1l2.6,3.9l-11.5,6.3l-1.6-2.4L613.9,215.1z"/>
	</g>
</g>
<g>
	<path d="M452.7,292.4v0.4c9.6,3.7,4.3,15.8,0.2,26.2l-20.9,53l-30.6-79.6h-20.4v0.4c6,4.6,9.1,13.6,12,21.1l29.2,75.5h14.7l38.9-97
		L452.7,292.4L452.7,292.4z"/>
	<path d="M620.5,374.9c-5.6,2.6-11.9,3.8-18.8,3.8h-21v-86.3h-22.7v0.4c7.1,2.4,6.9,13.5,6.9,20.3l0,75.7
		c-7.5-3.8-11.5-12.5-15-20.9l-32-75.6h-24.3v0.4c7.3,2.2,4.5,8.4,2.3,13.7L470.3,368c-3.5,8.4-7.1,17.1-15,20.9v0.4h19.3l9.9-25.6
		h47.3l10.2,25.6h78.6V374.9z M488.6,352.9l19.2-48l19.5,48H488.6z"/>
	<path d="M389.4,368l-32-75.6h-24.3v0.4c7.3,2.2,4.5,8.4,2.3,13.7l0,0l0,0L309.7,368c-1.3,3-2.6,6.1-4.1,9
		c-3.7,1.1-7.7,1.7-11.9,1.7h-21v-86.3h-22.6v0.5c7.1,2.4,6.9,13.5,6.9,20.3l0,76.2H314l9.9-25.6h47.3h0l10.2,25.6h23.3v-0.4
		C396.5,384.9,393,376.4,389.4,368z M328,352.9l19.2-48l19.5,48H328z"/>
</g>
<path d="M20.5,198.3v193.2c0,16.6,12.8,29.6,29.1,29.6h45.9c6.1,0,14.1,4.1,18.1,15.8l2.2,6.4c0.5,1.3,1.3,2.2,2.2,2.2
	c0.9,0,1.7-0.8,2.2-2.2l2.2-6.4c4-11.6,12-15.8,18.1-15.8h45.9c16.3,0,29.1-13,29.1-29.6V198.3H20.5z"/>
<g>
	<rect x="25.2" y="203" class="st0" width="75.6" height="89.4"/>
	<path class="st0" d="M25.2,327v64.5c0,14.5,11.2,25,24.5,25c0,0,45.8,0,45.9,0c1.7,0,3.4,0.2,5.2,0.7V327H25.2z"/>
	<rect x="135.4" y="203" class="st0" width="75.6" height="89.4"/>
	<path class="st0" d="M135.4,417.2c1.8-0.5,3.6-0.7,5.2-0.7c0.1,0,45.9,0,45.9,0c13.3,0,24.5-10.4,24.5-25V327h-75.6V417.2z"/>
</g>
<path class="st1" d="M135.4,292.4V203h-34.6v89.4H25.2V327h75.6v90.2c6.6,1.8,13.6,7.3,17.3,18.2c3.7-10.9,10.7-16.3,17.3-18.2V327
	H211v-34.6H135.4z"/>
<g>
	<path d="M53.1,239.9c0.2,0.6-0.2,1-0.6,1.2c-0.8,0.4-3.1,0.6-4,0.3c0,0-1.1,2.1-2.8,2.1c-1.7,0-2.8-2.1-2.8-2.1
		c-0.9,0.3-3.2,0.1-4-0.3c-0.4-0.2-0.8-0.7-0.6-1.2c0.5-1.8,2-7.8,2.5-9.9l-3.1,1.1c-0.5,2.4-2.2,6.2-5,6.4c-0.4,0-1-0.1-1-0.5
		c0.4-3.2,2.3-17.6,2.5-19c0.2-1.4,0.6-2,1.6-2.3c0.9-0.3,1.6-0.1,2.6,0.8c0.8,0.7,3.6,3.3,3.6,3.3s0.3-2.4,0.4-3.1
		c-0.3,0-0.7,0-0.7,0c-0.4,0-0.7-0.3-0.7-0.7l0.3-2.9c0-0.3,0.2-0.6,0.4-0.7c0,0,1.2-0.6,2.2-1c1-0.4,1.7-0.4,1.7-0.4
		c0.8,0,1.4,0.2,2,0.7c0.6,0.5,1,1.1,1,1.9l0.6,6.2c0,0,2.8-2.6,3.6-3.3c1-0.9,1.7-1.1,2.6-0.8c1,0.3,1.4,1,1.6,2.3
		c0.2,1.4,2.1,15.8,2.5,19c0,0.4-0.6,0.6-1,0.5c-2.8-0.2-4.5-4-5-6.4l-3.1-1.2C51,232.1,52.6,238.1,53.1,239.9z"/>
	<path d="M87.7,239.9c0.2,0.6-0.2,1-0.6,1.2c-0.8,0.4-3.1,0.6-4,0.3c0,0-1.1,2.1-2.8,2.1s-2.8-2.1-2.8-2.1c-0.9,0.3-3.2,0.1-4-0.3
		c-0.4-0.2-0.8-0.7-0.6-1.2c0.5-1.8,2-7.8,2.5-9.9l-3.1,1.1c-0.5,2.4-2.2,6.2-5,6.4c-0.4,0-1-0.1-1-0.5c0.4-3.2,2.3-17.6,2.5-19
		c0.2-1.4,0.6-2,1.6-2.3c0.9-0.3,1.6-0.1,2.6,0.8c0.8,0.7,3.6,3.3,3.6,3.3s0.3-2.4,0.4-3.1c-0.3,0-0.7,0-0.7,0
		c-0.4,0-0.7-0.3-0.7-0.7l0.3-2.9c0-0.3,0.2-0.6,0.4-0.7c0,0,1.2-0.6,2.2-1c1-0.4,1.7-0.4,1.7-0.4c0.8,0,1.4,0.2,2,0.7
		c0.6,0.5,1,1.1,1,1.9l0.6,6.2c0,0,2.8-2.6,3.6-3.3c1-0.9,1.7-1.1,2.6-0.8c1,0.3,1.4,1,1.6,2.3c0.2,1.4,2.1,15.8,2.5,19
		c0,0.4-0.6,0.6-1,0.5c-2.8-0.2-4.5-4-5-6.4l-3.1-1.2C85.7,232.1,87.2,238.1,87.7,239.9z"/>
	<path d="M53.1,280.7c0.2,0.6-0.2,1-0.6,1.2c-0.8,0.4-3.1,0.6-4,0.3c0,0-1.1,2.1-2.8,2.1c-1.7,0-2.8-2.1-2.8-2.1
		c-0.9,0.3-3.2,0.1-4-0.3c-0.4-0.2-0.8-0.7-0.6-1.2c0.5-1.8,2-7.8,2.5-9.9l-3.1,1.1c-0.5,2.4-2.2,6.2-5,6.4c-0.4,0-1-0.1-1-0.5
		c0.4-3.2,2.3-17.6,2.5-19c0.2-1.4,0.6-2,1.6-2.3c0.9-0.3,1.6-0.1,2.6,0.8c0.8,0.7,3.6,3.3,3.6,3.3s0.3-2.4,0.4-3.1
		c-0.3,0-0.7,0-0.7,0c-0.4,0-0.7-0.3-0.7-0.7l0.3-2.9c0-0.3,0.2-0.6,0.4-0.7c0,0,1.2-0.6,2.2-1c1-0.4,1.7-0.4,1.7-0.4
		c0.8,0,1.4,0.2,2,0.7c0.6,0.5,1,1.1,1,1.9l0.6,6.2c0,0,2.8-2.6,3.6-3.3c1-0.9,1.7-1.1,2.6-0.8c1,0.3,1.4,1,1.6,2.3
		c0.2,1.4,2.1,15.8,2.5,19c0,0.4-0.6,0.6-1,0.5c-2.8-0.2-4.5-4-5-6.4l-3.1-1.2C51,272.9,52.6,278.9,53.1,280.7z"/>
	<path d="M87.7,280.7c0.2,0.6-0.2,1-0.6,1.2c-0.8,0.4-3.1,0.6-4,0.3c0,0-1.1,2.1-2.8,2.1s-2.8-2.1-2.8-2.1c-0.9,0.3-3.2,0.1-4-0.3
		c-0.4-0.2-0.8-0.7-0.6-1.2c0.5-1.8,2-7.8,2.5-9.9l-3.1,1.1c-0.5,2.4-2.2,6.2-5,6.4c-0.4,0-1-0.1-1-0.5c0.4-3.2,2.3-17.6,2.5-19
		c0.2-1.4,0.6-2,1.6-2.3c0.9-0.3,1.6-0.1,2.6,0.8c0.8,0.7,3.6,3.3,3.6,3.3s0.3-2.4,0.4-3.1c-0.3,0-0.7,0-0.7,0
		c-0.4,0-0.7-0.3-0.7-0.7l0.3-2.9c0-0.3,0.2-0.6,0.4-0.7c0,0,1.2-0.6,2.2-1c1-0.4,1.7-0.4,1.7-0.4c0.8,0,1.4,0.2,2,0.7
		c0.6,0.5,1,1.1,1,1.9l0.6,6.2c0,0,2.8-2.6,3.6-3.3c1-0.9,1.7-1.1,2.6-0.8c1,0.3,1.4,1,1.6,2.3c0.2,1.4,2.1,15.8,2.5,19
		c0,0.4-0.6,0.6-1,0.5c-2.8-0.2-4.5-4-5-6.4l-3.1-1.2C85.7,272.9,87.2,278.9,87.7,280.7z"/>
	<path d="M163.3,239.9c0.2,0.6-0.2,1-0.6,1.2c-0.8,0.4-3.1,0.6-4,0.3c0,0-1.1,2.1-2.8,2.1s-2.8-2.1-2.8-2.1c-0.9,0.3-3.2,0.1-4-0.3
		c-0.4-0.2-0.8-0.7-0.6-1.2c0.5-1.8,2-7.8,2.5-9.9l-3.1,1.2c-0.5,2.4-2.2,6.2-5,6.4c-0.4,0-1-0.1-1-0.5c0.4-3.2,2.3-17.6,2.5-19
		c0.2-1.4,0.6-2,1.6-2.3c0.9-0.3,1.6-0.1,2.6,0.8c0.8,0.7,3.6,3.3,3.6,3.3s0.3-2.4,0.4-3.1c-0.3,0-0.7,0-0.7,0
		c-0.4,0-0.7-0.3-0.7-0.7l0.3-2.9c0-0.3,0.2-0.6,0.4-0.7c0,0,1.2-0.6,2.2-1c1-0.4,1.7-0.4,1.7-0.4c0.8,0,1.4,0.2,2,0.7
		c0.6,0.5,1,1.1,1,1.9l0.6,6.2c0,0,2.8-2.6,3.6-3.3c1-0.9,1.7-1.1,2.6-0.8c1,0.3,1.4,1,1.6,2.3c0.2,1.4,2.1,15.8,2.5,19
		c0,0.4-0.6,0.6-1,0.5c-2.8-0.2-4.5-4-5-6.4l-3.1-1.2C161.3,232.1,162.8,238.1,163.3,239.9z"/>
	<path d="M197.9,239.9c0.2,0.6-0.2,1-0.6,1.2c-0.8,0.4-3.1,0.6-4,0.3c0,0-1.1,2.1-2.8,2.1c-1.7,0-2.8-2.1-2.8-2.1
		c-0.9,0.3-3.2,0.1-4-0.3c-0.4-0.2-0.8-0.7-0.6-1.2c0.5-1.8,2-7.8,2.5-9.9l-3.1,1.2c-0.5,2.4-2.2,6.2-5,6.4c-0.4,0-1-0.1-1-0.5
		c0.4-3.2,2.3-17.6,2.5-19c0.2-1.4,0.6-2,1.6-2.3c0.9-0.3,1.6-0.1,2.6,0.8c0.8,0.7,3.6,3.3,3.6,3.3s0.3-2.4,0.4-3.1
		c-0.3,0-0.7,0-0.7,0c-0.4,0-0.7-0.3-0.7-0.7l0.3-2.9c0-0.3,0.2-0.6,0.4-0.7c0,0,1.2-0.6,2.2-1c1-0.4,1.7-0.4,1.7-0.4
		c0.8,0,1.4,0.2,2,0.7c0.6,0.5,1,1.1,1,1.9l0.6,6.2c0,0,2.8-2.6,3.6-3.3c1-0.9,1.7-1.1,2.6-0.8c1,0.3,1.4,1,1.6,2.3
		c0.2,1.4,2.1,15.8,2.5,19c0,0.4-0.6,0.6-1,0.5c-2.8-0.2-4.5-4-5-6.4l-3.1-1.2C195.9,232.1,197.4,238.1,197.9,239.9z"/>
	<path d="M163.3,280.7c0.2,0.6-0.2,1-0.6,1.2c-0.8,0.4-3.1,0.6-4,0.3c0,0-1.1,2.1-2.8,2.1s-2.8-2.1-2.8-2.1c-0.9,0.3-3.2,0.1-4-0.3
		c-0.4-0.2-0.8-0.7-0.6-1.2c0.5-1.8,2-7.8,2.5-9.9l-3.1,1.2c-0.5,2.4-2.2,6.2-5,6.4c-0.4,0-1-0.1-1-0.5c0.4-3.2,2.3-17.6,2.5-19
		c0.2-1.4,0.6-2,1.6-2.3c0.9-0.3,1.6-0.1,2.6,0.8c0.8,0.7,3.6,3.3,3.6,3.3s0.3-2.4,0.4-3.1c-0.3,0-0.7,0-0.7,0
		c-0.4,0-0.7-0.3-0.7-0.7l0.3-2.9c0-0.3,0.2-0.6,0.4-0.7c0,0,1.2-0.6,2.2-1c1-0.4,1.7-0.4,1.7-0.4c0.8,0,1.4,0.2,2,0.7
		c0.6,0.5,1,1.1,1,1.9l0.6,6.2c0,0,2.8-2.6,3.6-3.3c1-0.9,1.7-1.1,2.6-0.8c1,0.3,1.4,1,1.6,2.3c0.2,1.4,2.1,15.8,2.5,19
		c0,0.4-0.6,0.6-1,0.5c-2.8-0.2-4.5-4-5-6.4l-3.1-1.2C161.3,272.9,162.8,278.9,163.3,280.7z"/>
	<path d="M197.9,280.7c0.2,0.6-0.2,1-0.6,1.2c-0.8,0.4-3.1,0.6-4,0.3c0,0-1.1,2.1-2.8,2.1c-1.7,0-2.8-2.1-2.8-2.1
		c-0.9,0.3-3.2,0.1-4-0.3c-0.4-0.2-0.8-0.7-0.6-1.2c0.5-1.8,2-7.8,2.5-9.9l-3.1,1.2c-0.5,2.4-2.2,6.2-5,6.4c-0.4,0-1-0.1-1-0.5
		c0.4-3.2,2.3-17.6,2.5-19c0.2-1.4,0.6-2,1.6-2.3c0.9-0.3,1.6-0.1,2.6,0.8c0.8,0.7,3.6,3.3,3.6,3.3s0.3-2.4,0.4-3.1
		c-0.3,0-0.7,0-0.7,0c-0.4,0-0.7-0.3-0.7-0.7l0.3-2.9c0-0.3,0.2-0.6,0.4-0.7c0,0,1.2-0.6,2.2-1c1-0.4,1.7-0.4,1.7-0.4
		c0.8,0,1.4,0.2,2,0.7c0.6,0.5,1,1.1,1,1.9l0.6,6.2c0,0,2.8-2.6,3.6-3.3c1-0.9,1.7-1.1,2.6-0.8c1,0.3,1.4,1,1.6,2.3
		c0.2,1.4,2.1,15.8,2.5,19c0,0.4-0.6,0.6-1,0.5c-2.8-0.2-4.5-4-5-6.4l-3.1-1.2C195.9,272.9,197.4,278.9,197.9,280.7z"/>
	<path d="M53.1,363.9c0.2,0.6-0.2,1-0.6,1.2c-0.8,0.4-3.1,0.6-4,0.3c0,0-1.1,2.1-2.8,2.1c-1.7,0-2.8-2.1-2.8-2.1
		c-0.9,0.3-3.2,0.1-4-0.3c-0.4-0.2-0.8-0.7-0.6-1.2c0.5-1.8,2-7.8,2.5-9.9l-3.1,1.1c-0.5,2.4-2.2,6.2-5,6.4c-0.4,0-1-0.1-1-0.5
		c0.4-3.2,2.3-17.6,2.5-19c0.2-1.4,0.6-2,1.6-2.3c0.9-0.3,1.6-0.1,2.6,0.8c0.8,0.7,3.6,3.3,3.6,3.3s0.3-2.4,0.4-3.1
		c-0.3,0-0.7,0-0.7,0c-0.4,0-0.7-0.3-0.7-0.7l0.3-2.9c0-0.3,0.2-0.6,0.4-0.7c0,0,1.2-0.6,2.2-1c1-0.4,1.7-0.4,1.7-0.4
		c0.8,0,1.4,0.2,2,0.7c0.6,0.5,1,1.1,1,1.9l0.6,6.2c0,0,2.8-2.6,3.6-3.3c1-0.9,1.7-1.1,2.6-0.8c1,0.3,1.4,1,1.6,2.3
		c0.2,1.4,2.1,15.8,2.5,19c0,0.4-0.6,0.6-1,0.5c-2.8-0.2-4.5-4-5-6.4l-3.1-1.1C51,356.1,52.6,362.1,53.1,363.9z"/>
	<path d="M87.7,363.9c0.2,0.6-0.2,1-0.6,1.2c-0.8,0.4-3.1,0.6-4,0.3c0,0-1.1,2.1-2.8,2.1s-2.8-2.1-2.8-2.1c-0.9,0.3-3.2,0.1-4-0.3
		c-0.4-0.2-0.8-0.7-0.6-1.2c0.5-1.8,2-7.8,2.5-9.9l-3.1,1.1c-0.5,2.4-2.2,6.2-5,6.4c-0.4,0-1-0.1-1-0.5c0.4-3.2,2.3-17.6,2.5-19
		c0.2-1.4,0.6-2,1.6-2.3c0.9-0.3,1.6-0.1,2.6,0.8c0.8,0.7,3.6,3.3,3.6,3.3s0.3-2.4,0.4-3.1c-0.3,0-0.7,0-0.7,0
		c-0.4,0-0.7-0.3-0.7-0.7l0.3-2.9c0-0.3,0.2-0.6,0.4-0.7c0,0,1.2-0.6,2.2-1c1-0.4,1.7-0.4,1.7-0.4c0.8,0,1.4,0.2,2,0.7
		c0.6,0.5,1,1.1,1,1.9l0.6,6.2c0,0,2.8-2.6,3.6-3.3c1-0.9,1.7-1.1,2.6-0.8c1,0.3,1.4,1,1.6,2.3c0.2,1.4,2.1,15.8,2.5,19
		c0,0.4-0.6,0.6-1,0.5c-2.8-0.2-4.5-4-5-6.4l-3.1-1.1C85.7,356.1,87.2,362.1,87.7,363.9z"/>
	<path d="M53.1,404.8c0.2,0.6-0.2,1-0.6,1.2c-0.8,0.4-3.1,0.6-4,0.3c0,0-1.1,2.1-2.8,2.1c-1.7,0-2.8-2.1-2.8-2.1
		c-0.9,0.3-3.2,0.1-4-0.3c-0.4-0.2-0.8-0.7-0.6-1.2c0.5-1.8,2-7.8,2.5-9.9l-3.1,1.2c-0.5,2.4-2.2,6.2-5,6.4c-0.4,0-1-0.1-1-0.5
		c0.4-3.2,2.3-17.6,2.5-19c0.2-1.4,0.6-2,1.6-2.3c0.9-0.3,1.6-0.1,2.6,0.8c0.8,0.7,3.6,3.3,3.6,3.3s0.3-2.4,0.4-3.1
		c-0.3,0-0.7,0-0.7,0c-0.4,0-0.7-0.3-0.7-0.7l0.3-2.9c0-0.3,0.2-0.6,0.4-0.7c0,0,1.2-0.6,2.2-1c1-0.4,1.7-0.4,1.7-0.4
		c0.8,0,1.4,0.2,2,0.7c0.6,0.5,1,1.1,1,1.9l0.6,6.2c0,0,2.8-2.6,3.6-3.3c1-0.9,1.7-1.1,2.6-0.8c1,0.3,1.4,1,1.6,2.3
		c0.2,1.4,2.1,15.8,2.5,19c0,0.4-0.6,0.6-1,0.5c-2.8-0.2-4.5-4-5-6.4l-3.1-1.2C51,397,52.6,402.9,53.1,404.8z"/>
	<path d="M87.7,404.8c0.2,0.6-0.2,1-0.6,1.2c-0.8,0.4-3.1,0.6-4,0.3c0,0-1.1,2.1-2.8,2.1s-2.8-2.1-2.8-2.1c-0.9,0.3-3.2,0.1-4-0.3
		c-0.4-0.2-0.8-0.7-0.6-1.2c0.5-1.8,2-7.8,2.5-9.9l-3.1,1.2c-0.5,2.4-2.2,6.2-5,6.4c-0.4,0-1-0.1-1-0.5c0.4-3.2,2.3-17.6,2.5-19
		c0.2-1.4,0.6-2,1.6-2.3c0.9-0.3,1.6-0.1,2.6,0.8c0.8,0.7,3.6,3.3,3.6,3.3s0.3-2.4,0.4-3.1c-0.3,0-0.7,0-0.7,0
		c-0.4,0-0.7-0.3-0.7-0.7l0.3-2.9c0-0.3,0.2-0.6,0.4-0.7c0,0,1.2-0.6,2.2-1c1-0.4,1.7-0.4,1.7-0.4c0.8,0,1.4,0.2,2,0.7
		c0.6,0.5,1,1.1,1,1.9l0.6,6.2c0,0,2.8-2.6,3.6-3.3c1-0.9,1.7-1.1,2.6-0.8c1,0.3,1.4,1,1.6,2.3c0.2,1.4,2.1,15.8,2.5,19
		c0,0.4-0.6,0.6-1,0.5c-2.8-0.2-4.5-4-5-6.4l-3.1-1.2C85.7,397,87.2,402.9,87.7,404.8z"/>
	<path d="M163.3,363.9c0.2,0.6-0.2,1-0.6,1.2c-0.8,0.4-3.1,0.6-4,0.3c0,0-1.1,2.1-2.8,2.1s-2.8-2.1-2.8-2.1c-0.9,0.3-3.2,0.1-4-0.3
		c-0.4-0.2-0.8-0.7-0.6-1.2c0.5-1.8,2-7.8,2.5-9.9l-3.1,1.1c-0.5,2.4-2.2,6.2-5,6.4c-0.4,0-1-0.1-1-0.5c0.4-3.2,2.3-17.6,2.5-19
		c0.2-1.4,0.6-2,1.6-2.3c0.9-0.3,1.6-0.1,2.6,0.8c0.8,0.7,3.6,3.3,3.6,3.3s0.3-2.4,0.4-3.1c-0.3,0-0.7,0-0.7,0
		c-0.4,0-0.7-0.3-0.7-0.7l0.3-2.9c0-0.3,0.2-0.6,0.4-0.7c0,0,1.2-0.6,2.2-1c1-0.4,1.7-0.4,1.7-0.4c0.8,0,1.4,0.2,2,0.7
		c0.6,0.5,1,1.1,1,1.9l0.6,6.2c0,0,2.8-2.6,3.6-3.3c1-0.9,1.7-1.1,2.6-0.8c1,0.3,1.4,1,1.6,2.3c0.2,1.4,2.1,15.8,2.5,19
		c0,0.4-0.6,0.6-1,0.5c-2.8-0.2-4.5-4-5-6.4l-3.1-1.1C161.3,356.1,162.8,362.1,163.3,363.9z"/>
	<path d="M197.9,363.9c0.2,0.6-0.2,1-0.6,1.2c-0.8,0.4-3.1,0.6-4,0.3c0,0-1.1,2.1-2.8,2.1c-1.7,0-2.8-2.1-2.8-2.1
		c-0.9,0.3-3.2,0.1-4-0.3c-0.4-0.2-0.8-0.7-0.6-1.2c0.5-1.8,2-7.8,2.5-9.9l-3.1,1.1c-0.5,2.4-2.2,6.2-5,6.4c-0.4,0-1-0.1-1-0.5
		c0.4-3.2,2.3-17.6,2.5-19c0.2-1.4,0.6-2,1.6-2.3c0.9-0.3,1.6-0.1,2.6,0.8c0.8,0.7,3.6,3.3,3.6,3.3s0.3-2.4,0.4-3.1
		c-0.3,0-0.7,0-0.7,0c-0.4,0-0.7-0.3-0.7-0.7l0.3-2.9c0-0.3,0.2-0.6,0.4-0.7c0,0,1.2-0.6,2.2-1c1-0.4,1.7-0.4,1.7-0.4
		c0.8,0,1.4,0.2,2,0.7c0.6,0.5,1,1.1,1,1.9l0.6,6.2c0,0,2.8-2.6,3.6-3.3c1-0.9,1.7-1.1,2.6-0.8c1,0.3,1.4,1,1.6,2.3
		c0.2,1.4,2.1,15.8,2.5,19c0,0.4-0.6,0.6-1,0.5c-2.8-0.2-4.5-4-5-6.4l-3.1-1.1C195.9,356.1,197.4,362.1,197.9,363.9z"/>
	<path d="M163.3,404.8c0.2,0.6-0.2,1-0.6,1.2c-0.8,0.4-3.1,0.6-4,0.3c0,0-1.1,2.1-2.8,2.1s-2.8-2.1-2.8-2.1c-0.9,0.3-3.2,0.1-4-0.3
		c-0.4-0.2-0.8-0.7-0.6-1.2c0.5-1.8,2-7.8,2.5-9.9l-3.1,1.2c-0.5,2.4-2.2,6.2-5,6.4c-0.4,0-1-0.1-1-0.5c0.4-3.2,2.3-17.6,2.5-19
		c0.2-1.4,0.6-2,1.6-2.3c0.9-0.3,1.6-0.1,2.6,0.8c0.8,0.7,3.6,3.3,3.6,3.3s0.3-2.4,0.4-3.1c-0.3,0-0.7,0-0.7,0
		c-0.4,0-0.7-0.3-0.7-0.7l0.3-2.9c0-0.3,0.2-0.6,0.4-0.7c0,0,1.2-0.6,2.2-1c1-0.4,1.7-0.4,1.7-0.4c0.8,0,1.4,0.2,2,0.7
		c0.6,0.5,1,1.1,1,1.9l0.6,6.2c0,0,2.8-2.6,3.6-3.3c1-0.9,1.7-1.1,2.6-0.8c1,0.3,1.4,1,1.6,2.3c0.2,1.4,2.1,15.8,2.5,19
		c0,0.4-0.6,0.6-1,0.5c-2.8-0.2-4.5-4-5-6.4l-3.1-1.2C161.3,397,162.8,402.9,163.3,404.8z"/>
	<path d="M197.9,404.8c0.2,0.6-0.2,1-0.6,1.2c-0.8,0.4-3.1,0.6-4,0.3c0,0-1.1,2.1-2.8,2.1c-1.7,0-2.8-2.1-2.8-2.1
		c-0.9,0.3-3.2,0.1-4-0.3c-0.4-0.2-0.8-0.7-0.6-1.2c0.5-1.8,2-7.8,2.5-9.9l-3.1,1.2c-0.5,2.4-2.2,6.2-5,6.4c-0.4,0-1-0.1-1-0.5
		c0.4-3.2,2.3-17.6,2.5-19c0.2-1.4,0.6-2,1.6-2.3c0.9-0.3,1.6-0.1,2.6,0.8c0.8,0.7,3.6,3.3,3.6,3.3s0.3-2.4,0.4-3.1
		c-0.3,0-0.7,0-0.7,0c-0.4,0-0.7-0.3-0.7-0.7l0.3-2.9c0-0.3,0.2-0.6,0.4-0.7c0,0,1.2-0.6,2.2-1c1-0.4,1.7-0.4,1.7-0.4
		c0.8,0,1.4,0.2,2,0.7c0.6,0.5,1,1.1,1,1.9l0.6,6.2c0,0,2.8-2.6,3.6-3.3c1-0.9,1.7-1.1,2.6-0.8c1,0.3,1.4,1,1.6,2.3
		c0.2,1.4,2.1,15.8,2.5,19c0,0.4-0.6,0.6-1,0.5c-2.8-0.2-4.5-4-5-6.4l-3.1-1.2C195.9,397,197.4,402.9,197.9,404.8z"/>
</g>
<g>
	<path d="M118.1,260.4c1.5,0,2.8-0.8,3.5-1.9c0.6,0.3,1.2,0.5,1.9,0.5c2.2,0,4-1.7,4.2-3.8c2.3,0,4.1-1.9,4.1-4.2c0-1-0.4-2-1-2.7
		c-1-1.2-4.7-5.6-4.7-5.7c0-0.3,0-2.4,0-2.4c0-1.1-0.9-2-2-2c0,0-2,0-2.1,0c-0.2-0.2-1.9-1.9-1.9-1.9c-0.5-0.5-1.2-0.8-2-0.8
		c-0.8,0-1.5,0.3-2,0.8c0,0-1.7,1.7-1.9,1.9c-0.1,0-2.1,0-2.1,0c-1.1,0-2,0.9-2,2c0,0,0,2.1,0,2.4c-0.1,0.1-3.7,4.5-4.7,5.7
		c-0.6,0.7-1,1.7-1,2.7c0,2.3,1.8,4.2,4.1,4.2c0.2,2.1,2,3.8,4.2,3.8c0.7,0,1.4-0.2,1.9-0.5C115.3,259.6,116.6,260.4,118.1,260.4z"
		/>
	<path d="M118.1,322.4c1.5,0,2.8-0.8,3.5-1.9c0.6,0.3,1.2,0.5,1.9,0.5c2.2,0,4-1.7,4.2-3.8c2.3,0,4.1-1.9,4.1-4.2c0-1-0.4-2-1-2.7
		c-1-1.2-4.7-5.6-4.7-5.7c0-0.3,0-2.4,0-2.4c0-1.1-0.9-2-2-2c0,0-2,0-2.1,0c-0.2-0.2-1.9-1.9-1.9-1.9c-0.5-0.5-1.2-0.8-2-0.8
		c-0.8,0-1.5,0.3-2,0.8c0,0-1.7,1.7-1.9,1.9c-0.1,0-2.1,0-2.1,0c-1.1,0-2,0.9-2,2c0,0,0,2.1,0,2.4c-0.1,0.1-3.7,4.5-4.7,5.7
		c-0.6,0.7-1,1.7-1,2.7c0,2.3,1.8,4.1,4.1,4.2c0.2,2.1,2,3.8,4.2,3.8c0.7,0,1.4-0.2,1.9-0.5C115.3,321.7,116.6,322.4,118.1,322.4z"
		/>
	<path d="M63,322.4c1.5,0,2.8-0.8,3.5-1.9c0.6,0.3,1.2,0.5,1.9,0.5c2.2,0,4-1.7,4.2-3.8c2.3,0,4.1-1.9,4.1-4.2c0-1-0.4-2-1-2.7
		c-1-1.2-4.7-5.6-4.7-5.7c0-0.3,0-2.4,0-2.4c0-1.1-0.9-2-2-2c0,0-2,0-2.1,0c-0.2-0.2-1.9-1.9-1.9-1.9c-0.5-0.5-1.2-0.8-2-0.8
		c-0.8,0-1.5,0.3-2,0.8c0,0-1.7,1.7-1.9,1.9c-0.1,0-2.1,0-2.1,0c-1.1,0-2,0.9-2,2c0,0,0,2.1,0,2.4c-0.1,0.1-3.7,4.5-4.7,5.7
		c-0.6,0.7-1,1.7-1,2.7c0,2.3,1.8,4.1,4.1,4.2c0.2,2.1,2,3.8,4.2,3.8c0.7,0,1.4-0.2,1.9-0.5C60.2,321.7,61.5,322.4,63,322.4z"/>
	<path d="M173.2,322.4c1.5,0,2.8-0.8,3.5-1.9c0.6,0.3,1.2,0.5,1.9,0.5c2.2,0,4-1.7,4.2-3.8c2.3,0,4.1-1.9,4.1-4.2c0-1-0.4-2-1-2.7
		c-1-1.2-4.7-5.6-4.7-5.7c0-0.3,0-2.4,0-2.4c0-1.1-0.9-2-2-2c0,0-2,0-2.1,0c-0.2-0.2-1.9-1.9-1.9-1.9c-0.5-0.5-1.2-0.8-2-0.8
		s-1.5,0.3-2,0.8c0,0-1.7,1.7-1.9,1.9c-0.1,0-2.1,0-2.1,0c-1.1,0-2,0.9-2,2c0,0,0,2.1,0,2.4c-0.1,0.1-3.7,4.5-4.7,5.7
		c-0.6,0.7-1,1.7-1,2.7c0,2.3,1.8,4.1,4.1,4.2c0.2,2.1,2,3.8,4.2,3.8c0.7,0,1.4-0.2,1.9-0.5C170.4,321.7,171.7,322.4,173.2,322.4z"
		/>
	<path d="M118.1,384.5c1.5,0,2.8-0.8,3.5-1.9c0.6,0.3,1.2,0.5,1.9,0.5c2.2,0,4-1.7,4.2-3.8c2.3,0,4.1-1.9,4.1-4.2c0-1-0.4-2-1-2.7
		c-1-1.2-4.7-5.6-4.7-5.7c0-0.3,0-2.4,0-2.4c0-1.1-0.9-2-2-2c0,0-2,0-2.1,0c-0.2-0.2-1.9-1.9-1.9-1.9c-0.5-0.5-1.2-0.8-2-0.8
		c-0.8,0-1.5,0.3-2,0.8c0,0-1.7,1.7-1.9,1.9c-0.1,0-2.1,0-2.1,0c-1.1,0-2,0.9-2,2c0,0,0,2.1,0,2.4c-0.1,0.1-3.7,4.5-4.7,5.7
		c-0.6,0.7-1,1.7-1,2.7c0,2.3,1.8,4.1,4.1,4.2c0.2,2.1,2,3.8,4.2,3.8c0.7,0,1.4-0.2,1.9-0.5C115.3,383.7,116.6,384.5,118.1,384.5z"
		/>
</g>
<g>
	<path class="st2" d="M118.1,259c1-0.1,1.8-0.6,2.3-1.4l-0.8-7.6c0-0.3,0.2-0.6,0.5-0.6c0.3,0,0.6,0.2,0.6,0.5l1.3,7.3
		c0.4,0.2,0.9,0.4,1.4,0.4c1.5,0,2.7-1.1,2.8-2.6l-3.1-7.2c-0.1-0.3,0-0.6,0.3-0.7c0.3-0.1,0.6,0,0.7,0.3l3.4,6.5c0,0,0,0,0,0
		c1.6,0,2.8-1.3,2.8-2.8c0-0.6-0.1-1.1-0.4-1.5l-5.3-6.4v-2.9c0-0.3-0.2-0.6-0.6-0.6c0,0-2.7,0-2.7,0l-2.3-2.3
		c-0.2-0.2-0.6-0.4-1-0.4c-0.4,0-0.7,0.1-1,0.4l-2.3,2.3c0,0-2.7,0-2.7,0c-0.3,0-0.6,0.3-0.6,0.6v2.9l-5.3,6.4
		c-0.3,0.4-0.4,0.9-0.4,1.5c0,1.6,1.3,2.8,2.8,2.8c0,0,0,0,0,0l3.4-6.5c0.1-0.3,0.5-0.4,0.7-0.3c0.3,0.1,0.4,0.5,0.3,0.7l-3.1,7.2
		c0.1,1.5,1.3,2.6,2.8,2.6c0.5,0,1-0.1,1.4-0.4l1.3-7.3c0.1-0.3,0.3-0.5,0.6-0.5c0.3,0,0.5,0.3,0.5,0.6l-0.8,7.6
		C116.3,258.4,117.1,259,118.1,259z"/>
	<path class="st2" d="M118.1,321.1c1-0.1,1.8-0.6,2.3-1.4l-0.8-7.6c0-0.3,0.2-0.6,0.5-0.6c0.3,0,0.6,0.2,0.6,0.5l1.3,7.3
		c0.4,0.2,0.9,0.4,1.4,0.4c1.5,0,2.7-1.1,2.8-2.6l-3.1-7.2c-0.1-0.3,0-0.6,0.3-0.7c0.3-0.1,0.6,0,0.7,0.3l3.4,6.5c0,0,0,0,0,0
		c1.6,0,2.8-1.3,2.8-2.8c0-0.6-0.1-1.1-0.4-1.5l-5.3-6.4v-2.9c0-0.3-0.2-0.6-0.6-0.6c0,0-2.7,0-2.7,0l-2.3-2.3
		c-0.2-0.2-0.6-0.4-1-0.4c-0.4,0-0.7,0.1-1,0.4l-2.3,2.3c0,0-2.7,0-2.7,0c-0.3,0-0.6,0.3-0.6,0.6v2.9l-5.3,6.4
		c-0.3,0.4-0.4,0.9-0.4,1.5c0,1.6,1.3,2.8,2.8,2.8c0,0,0,0,0,0l3.4-6.5c0.1-0.3,0.5-0.4,0.7-0.3c0.3,0.1,0.4,0.5,0.3,0.7l-3.1,7.2
		c0.1,1.5,1.3,2.6,2.8,2.6c0.5,0,1-0.1,1.4-0.4l1.3-7.3c0.1-0.3,0.3-0.5,0.6-0.5c0.3,0,0.5,0.3,0.5,0.6l-0.8,7.6
		C116.3,320.5,117.1,321,118.1,321.1z"/>
	<path class="st2" d="M63,321.1c1-0.1,1.8-0.6,2.3-1.4l-0.8-7.6c0-0.3,0.2-0.6,0.5-0.6c0.3,0,0.6,0.2,0.6,0.5l1.3,7.3
		c0.4,0.2,0.9,0.4,1.4,0.4c1.5,0,2.7-1.1,2.8-2.6l-3.1-7.2c-0.1-0.3,0-0.6,0.3-0.7c0.3-0.1,0.6,0,0.7,0.3l3.4,6.5c0,0,0,0,0,0
		c1.6,0,2.8-1.3,2.8-2.8c0-0.6-0.1-1.1-0.4-1.5l-5.3-6.4v-2.9c0-0.3-0.2-0.6-0.6-0.6c0,0-2.7,0-2.7,0l-2.3-2.3
		c-0.2-0.2-0.6-0.4-1-0.4c-0.4,0-0.7,0.1-1,0.4l-2.3,2.3c0,0-2.7,0-2.7,0c-0.3,0-0.6,0.3-0.6,0.6v2.9l-5.4,6.4
		c-0.3,0.4-0.4,0.9-0.4,1.5c0,1.6,1.3,2.8,2.8,2.8c0,0,0,0,0,0l3.4-6.5c0.1-0.3,0.5-0.4,0.7-0.3c0.3,0.1,0.4,0.5,0.3,0.7l-3.1,7.2
		c0.1,1.5,1.3,2.6,2.8,2.6c0.5,0,1-0.1,1.4-0.4l1.3-7.3c0.1-0.3,0.3-0.5,0.6-0.5c0.3,0,0.5,0.3,0.5,0.6l-0.8,7.6
		C61.1,320.5,62,321,63,321.1z"/>
	<path class="st2" d="M173.2,321.1c1-0.1,1.8-0.6,2.3-1.4l-0.8-7.6c0-0.3,0.2-0.6,0.5-0.6c0.3,0,0.6,0.2,0.6,0.5l1.3,7.3
		c0.4,0.2,0.9,0.4,1.4,0.4c1.5,0,2.7-1.1,2.8-2.6l-3.1-7.2c-0.1-0.3,0-0.6,0.3-0.7c0.3-0.1,0.6,0,0.7,0.3l3.4,6.5c0,0,0,0,0,0
		c1.6,0,2.8-1.3,2.8-2.8c0-0.6-0.1-1.1-0.4-1.5l-5.3-6.4v-2.9c0-0.3-0.2-0.6-0.6-0.6c0,0-2.7,0-2.7,0l-2.3-2.3
		c-0.2-0.2-0.6-0.4-1-0.4s-0.7,0.1-1,0.4l-2.3,2.3c0,0-2.7,0-2.7,0c-0.3,0-0.6,0.3-0.6,0.6v2.9l-5.3,6.4c-0.3,0.4-0.4,0.9-0.4,1.5
		c0,1.6,1.3,2.8,2.8,2.8c0,0,0,0,0,0l3.4-6.5c0.1-0.3,0.5-0.4,0.7-0.3c0.3,0.1,0.4,0.5,0.3,0.7l-3.1,7.2c0.1,1.5,1.3,2.6,2.8,2.6
		c0.5,0,1-0.1,1.4-0.4l1.3-7.3c0.1-0.3,0.3-0.5,0.6-0.5c0.3,0,0.5,0.3,0.5,0.6l-0.8,7.6C171.4,320.5,172.2,321,173.2,321.1z"/>
	<path class="st2" d="M118.1,383.1c1-0.1,1.8-0.6,2.3-1.4l-0.8-7.6c0-0.3,0.2-0.6,0.5-0.6c0.3,0,0.6,0.2,0.6,0.5l1.3,7.3
		c0.4,0.2,0.9,0.4,1.4,0.4c1.5,0,2.7-1.1,2.8-2.6l-3.1-7.2c-0.1-0.3,0-0.6,0.3-0.7c0.3-0.1,0.6,0,0.7,0.3l3.4,6.5c0,0,0,0,0,0
		c1.6,0,2.8-1.3,2.8-2.8c0-0.6-0.1-1.1-0.4-1.5l-5.3-6.4v-2.9c0-0.3-0.2-0.6-0.6-0.6c0,0-2.7,0-2.7,0l-2.3-2.3
		c-0.2-0.2-0.6-0.4-1-0.4c-0.4,0-0.7,0.1-1,0.4l-2.3,2.3c0,0-2.7,0-2.7,0c-0.3,0-0.6,0.3-0.6,0.6v2.9l-5.3,6.4
		c-0.3,0.4-0.4,0.9-0.4,1.5c0,1.6,1.3,2.8,2.8,2.8c0,0,0,0,0,0l3.4-6.5c0.1-0.3,0.5-0.4,0.7-0.3c0.3,0.1,0.4,0.5,0.3,0.7l-3.1,7.2
		c0.1,1.5,1.3,2.6,2.8,2.6c0.5,0,1-0.1,1.4-0.4l1.3-7.3c0.1-0.3,0.3-0.5,0.6-0.5c0.3,0,0.5,0.3,0.5,0.6l-0.8,7.6
		C116.3,382.5,117.1,383,118.1,383.1z"/>
</g>
<g>
	<path class="st3" d="M51.6,239.9c-0.5,0.2-1.6,0.3-2.2,0.2c-0.2,0-0.3,0-0.4-0.1l-0.1-0.1l-1.1-5.4c-0.2-1-1-0.9-0.9,0.2l0.6,5.6
		c-0.2,0.3-1,1.7-1.8,1.7c-0.8,0-1.6-1.4-1.8-1.7l0.6-5.6c0.1-1.1-0.7-1.2-0.9-0.2l-1.1,5.4l-0.1,0.1c-0.1,0-0.2,0.1-0.4,0.1
		c-0.6,0-1.7,0-2.2-0.2c0.7-2.8,2.3-9,2.8-10.9c0.1-0.3-0.1-0.8-0.7-0.8c-0.1,0-0.2,0-0.3,0.1c-0.7,0.3-2.7,1-3.3,1.3l0.4-4.5
		c0.1-1.1-0.8-1.2-1-0.2c-0.9,4-1.4,9.3-4.2,11.1c0.2-1.9,2.1-16,2.4-17.9c0.1-0.4,0.1-0.8,0.6-0.9c0.4-0.1,0.7,0,1,0.3
		c0,0,4.7,4.3,4.7,4.3c0.2,0.2,0.5,0.3,0.8,0.3c0.3-0.1,0.5-0.3,0.5-0.6l0.7-5.3c0-0.2,0-0.4-0.2-0.6c-0.1-0.2-0.3-0.3-0.5-0.3
		c0,0-0.4,0-0.7,0l0.2-1.7c0.5-0.3,2-0.9,2.6-1c0,0,0,0,0,0c0,0,0.3,0,0.3,0c0.4,0,0.8,0.1,1.1,0.3c0.3,0.2,0.5,0.5,0.5,0.9l0.8,7.6
		c0,0.3,0.2,0.5,0.5,0.6c0.3,0.1,0.6,0,0.8-0.3c0,0,4.7-4.3,4.7-4.3c0.3-0.3,0.6-0.5,1-0.3c0.5,0.2,0.5,0.5,0.6,0.9
		c0.3,1.9,2.1,16,2.4,17.9c-2.9-1.8-3.4-7.1-4.2-11.1c-0.2-1-1.1-0.9-1,0.2l0.4,4.5c-0.6-0.2-2.6-1-3.3-1.3
		c-0.2-0.1-0.3-0.1-0.3-0.1c-0.6,0-0.8,0.5-0.7,0.8C49.2,230.9,50.9,237.1,51.6,239.9z"/>
	<path class="st3" d="M86.2,239.9c-0.5,0.2-1.6,0.3-2.2,0.2c-0.2,0-0.3,0-0.4-0.1l-0.1-0.1l-1.1-5.4c-0.2-1-1-0.9-0.9,0.2l0.6,5.6
		c-0.2,0.3-1,1.7-1.8,1.7c-0.8,0-1.6-1.4-1.8-1.7l0.6-5.6c0.1-1.1-0.7-1.2-0.9-0.2L77,240l-0.1,0.1c-0.1,0-0.2,0.1-0.4,0.1
		c-0.6,0-1.7,0-2.2-0.2c0.7-2.8,2.3-9,2.8-10.9c0.1-0.3-0.1-0.8-0.7-0.8c-0.1,0-0.2,0-0.3,0.1c-0.7,0.3-2.7,1-3.3,1.3l0.4-4.5
		c0.1-1.1-0.8-1.2-1-0.2c-0.9,4-1.4,9.3-4.2,11.1c0.2-1.9,2.1-16,2.4-17.9c0.1-0.4,0.1-0.8,0.6-0.9c0.4-0.1,0.7,0,1,0.3
		c0,0,4.7,4.3,4.7,4.3c0.2,0.2,0.5,0.3,0.8,0.3c0.3-0.1,0.5-0.3,0.5-0.6l0.7-5.3c0-0.2,0-0.4-0.2-0.6c-0.1-0.2-0.3-0.3-0.5-0.3
		c0,0-0.4,0-0.7,0l0.2-1.7c0.5-0.3,2-0.9,2.6-1c0,0,0,0,0,0c0,0,0.3,0,0.3,0c0.4,0,0.8,0.1,1.1,0.3c0.3,0.2,0.5,0.5,0.5,0.9l0.8,7.6
		c0,0.3,0.2,0.5,0.5,0.6c0.3,0.1,0.6,0,0.8-0.3c0,0,4.7-4.3,4.7-4.3c0.3-0.3,0.6-0.5,1-0.3c0.5,0.2,0.5,0.5,0.6,0.9
		c0.3,1.9,2.1,16,2.4,17.9c-2.9-1.8-3.4-7.1-4.2-11.1c-0.2-1-1.1-0.9-1,0.2l0.4,4.5c-0.6-0.2-2.6-1-3.3-1.3
		c-0.2-0.1-0.3-0.1-0.3-0.1c-0.6,0-0.8,0.5-0.7,0.8C83.9,230.9,85.5,237.1,86.2,239.9z"/>
	<path class="st3" d="M51.6,280.7c-0.5,0.2-1.6,0.3-2.2,0.2c-0.2,0-0.3,0-0.4-0.1l-0.1-0.1l-1.1-5.4c-0.2-1-1-0.9-0.9,0.2l0.6,5.6
		c-0.2,0.3-1,1.7-1.8,1.7c-0.8,0-1.6-1.4-1.8-1.7l0.6-5.6c0.1-1.1-0.7-1.2-0.9-0.2l-1.1,5.4l-0.1,0.1c-0.1,0-0.2,0.1-0.4,0.1
		c-0.6,0-1.7,0-2.2-0.2c0.7-2.8,2.3-9,2.8-10.9c0.1-0.3-0.1-0.8-0.7-0.8c-0.1,0-0.2,0-0.3,0.1c-0.7,0.3-2.7,1-3.3,1.3l0.4-4.5
		c0.1-1.1-0.8-1.2-1-0.2c-0.9,4-1.4,9.3-4.2,11.1c0.2-1.9,2.1-16,2.4-17.9c0.1-0.4,0.1-0.8,0.6-0.9c0.4-0.1,0.7,0,1,0.4
		c0,0,4.7,4.3,4.7,4.3c0.2,0.2,0.5,0.3,0.8,0.3c0.3-0.1,0.5-0.3,0.5-0.6l0.7-5.3c0-0.2,0-0.4-0.2-0.6c-0.1-0.2-0.3-0.3-0.5-0.3
		c0,0-0.4,0-0.7,0l0.2-1.7c0.5-0.3,2-0.9,2.6-1c0,0,0,0,0,0c0,0,0.3,0,0.3,0c0.4,0,0.8,0.1,1.1,0.3c0.3,0.2,0.5,0.5,0.5,0.9l0.8,7.6
		c0,0.3,0.2,0.5,0.5,0.6c0.3,0.1,0.6,0,0.8-0.3c0,0,4.7-4.3,4.7-4.3c0.3-0.3,0.6-0.5,1-0.4c0.5,0.2,0.5,0.5,0.6,0.9
		c0.3,1.9,2.1,16,2.4,17.9c-2.9-1.8-3.4-7.1-4.2-11.1c-0.2-1-1.1-0.9-1,0.2l0.4,4.5c-0.6-0.2-2.6-1-3.3-1.3
		c-0.2-0.1-0.3-0.1-0.3-0.1c-0.6,0-0.8,0.5-0.7,0.8C49.2,271.8,50.9,277.9,51.6,280.7z"/>
	<path class="st3" d="M86.2,280.7c-0.5,0.2-1.6,0.3-2.2,0.2c-0.2,0-0.3,0-0.4-0.1l-0.1-0.1l-1.1-5.4c-0.2-1-1-0.9-0.9,0.2l0.6,5.6
		c-0.2,0.3-1,1.7-1.8,1.7c-0.8,0-1.6-1.4-1.8-1.7l0.6-5.6c0.1-1.1-0.7-1.2-0.9-0.2l-1.1,5.4l-0.1,0.1c-0.1,0-0.2,0.1-0.4,0.1
		c-0.6,0-1.7,0-2.2-0.2c0.7-2.8,2.3-9,2.8-10.9c0.1-0.3-0.1-0.8-0.7-0.8c-0.1,0-0.2,0-0.3,0.1c-0.7,0.3-2.7,1-3.3,1.3l0.4-4.5
		c0.1-1.1-0.8-1.2-1-0.2c-0.9,4-1.4,9.3-4.2,11.1c0.2-1.9,2.1-16,2.4-17.9c0.1-0.4,0.1-0.8,0.6-0.9c0.4-0.1,0.7,0,1,0.4
		c0,0,4.7,4.3,4.7,4.3c0.2,0.2,0.5,0.3,0.8,0.3c0.3-0.1,0.5-0.3,0.5-0.6l0.7-5.3c0-0.2,0-0.4-0.2-0.6c-0.1-0.2-0.3-0.3-0.5-0.3
		c0,0-0.4,0-0.7,0l0.2-1.7c0.5-0.3,2-0.9,2.6-1c0,0,0,0,0,0c0,0,0.3,0,0.3,0c0.4,0,0.8,0.1,1.1,0.3c0.3,0.2,0.5,0.5,0.5,0.9l0.8,7.6
		c0,0.3,0.2,0.5,0.5,0.6c0.3,0.1,0.6,0,0.8-0.3c0,0,4.7-4.3,4.7-4.3c0.3-0.3,0.6-0.5,1-0.4c0.5,0.2,0.5,0.5,0.6,0.9
		c0.3,1.9,2.1,16,2.4,17.9c-2.9-1.8-3.4-7.1-4.2-11.1c-0.2-1-1.1-0.9-1,0.2l0.4,4.5c-0.6-0.2-2.6-1-3.3-1.3
		c-0.2-0.1-0.3-0.1-0.3-0.1c-0.6,0-0.8,0.5-0.7,0.8C83.9,271.8,85.5,277.9,86.2,280.7z"/>
	<path class="st3" d="M161.8,239.9c-0.5,0.2-1.6,0.3-2.2,0.2c-0.2,0-0.3,0-0.4-0.1l-0.1-0.1l-1.1-5.4c-0.2-1-1-0.9-0.9,0.2l0.6,5.6
		c-0.2,0.3-1,1.7-1.8,1.7c-0.8,0-1.6-1.4-1.8-1.7l0.6-5.6c0.1-1.1-0.7-1.2-0.9-0.2l-1.1,5.4l-0.1,0.1c-0.1,0-0.2,0.1-0.4,0.1
		c-0.6,0-1.7,0-2.2-0.2c0.7-2.8,2.3-9,2.8-10.9c0.1-0.3-0.1-0.8-0.7-0.8c-0.1,0-0.2,0-0.3,0.1c-0.7,0.3-2.7,1-3.3,1.3l0.4-4.5
		c0.1-1.1-0.8-1.2-1-0.2c-0.9,4-1.4,9.3-4.2,11.1c0.2-1.9,2.1-16,2.4-17.9c0.1-0.4,0.1-0.8,0.6-0.9c0.4-0.1,0.7,0,1,0.3
		c0,0,4.7,4.3,4.7,4.3c0.2,0.2,0.5,0.3,0.8,0.3c0.3-0.1,0.5-0.3,0.5-0.6l0.7-5.3c0-0.2,0-0.4-0.2-0.6c-0.1-0.2-0.3-0.3-0.5-0.3
		c0,0-0.4,0-0.7,0l0.2-1.7c0.5-0.3,2-0.9,2.6-1c0,0,0,0,0,0c0,0,0.3,0,0.3,0c0.4,0,0.8,0.1,1.1,0.3c0.3,0.2,0.5,0.5,0.5,0.9l0.8,7.6
		c0,0.3,0.2,0.5,0.5,0.6c0.3,0.1,0.6,0,0.8-0.3c0,0,4.7-4.3,4.7-4.3c0.3-0.3,0.6-0.5,1-0.3c0.5,0.2,0.5,0.5,0.6,0.9
		c0.3,1.9,2.1,16,2.4,17.9c-2.9-1.8-3.4-7.1-4.2-11.1c-0.2-1-1.1-0.9-1,0.2l0.4,4.5c-0.6-0.2-2.6-1-3.3-1.3
		c-0.2-0.1-0.3-0.1-0.3-0.1c-0.6,0-0.8,0.5-0.7,0.8C159.5,230.9,161.1,237.1,161.8,239.9z"/>
	<path class="st3" d="M196.4,239.9c-0.5,0.2-1.6,0.3-2.2,0.2c-0.2,0-0.3,0-0.4-0.1l-0.1-0.1l-1.1-5.4c-0.2-1-1-0.9-0.9,0.2l0.6,5.6
		c-0.2,0.3-1,1.7-1.8,1.7c-0.8,0-1.6-1.4-1.8-1.7l0.6-5.6c0.1-1.1-0.7-1.2-0.9-0.2l-1.1,5.4l-0.1,0.1c-0.1,0-0.2,0.1-0.4,0.1
		c-0.6,0-1.7,0-2.2-0.2c0.7-2.8,2.3-9,2.8-10.9c0.1-0.3-0.1-0.8-0.7-0.8c-0.1,0-0.2,0-0.3,0.1c-0.7,0.3-2.7,1-3.3,1.3l0.4-4.5
		c0.1-1.1-0.8-1.2-1-0.2c-0.9,4-1.4,9.3-4.2,11.1c0.2-1.9,2.1-16,2.4-17.9c0.1-0.4,0.1-0.8,0.6-0.9c0.4-0.1,0.7,0,1,0.3
		c0,0,4.7,4.3,4.7,4.3c0.2,0.2,0.5,0.3,0.8,0.3c0.3-0.1,0.5-0.3,0.5-0.6l0.7-5.3c0-0.2,0-0.4-0.2-0.6c-0.1-0.2-0.3-0.3-0.5-0.3
		c0,0-0.4,0-0.7,0l0.2-1.7c0.5-0.3,2-0.9,2.6-1c0,0,0,0,0,0c0,0,0.3,0,0.3,0c0.4,0,0.8,0.1,1.1,0.3c0.3,0.2,0.5,0.5,0.5,0.9l0.8,7.6
		c0,0.3,0.2,0.5,0.5,0.6c0.3,0.1,0.6,0,0.8-0.3c0,0,4.7-4.3,4.7-4.3c0.3-0.3,0.6-0.5,1-0.3c0.5,0.2,0.5,0.5,0.6,0.9
		c0.3,1.9,2.1,16,2.4,17.9c-2.9-1.8-3.4-7.1-4.2-11.1c-0.2-1-1.1-0.9-1,0.2l0.4,4.5c-0.6-0.2-2.6-1-3.3-1.3
		c-0.2-0.1-0.3-0.1-0.3-0.1c-0.6,0-0.8,0.5-0.7,0.8C194.1,230.9,195.7,237.1,196.4,239.9z"/>
	<path class="st3" d="M161.8,280.7c-0.5,0.2-1.6,0.3-2.2,0.2c-0.2,0-0.3,0-0.4-0.1l-0.1-0.1l-1.1-5.4c-0.2-1-1-0.9-0.9,0.2l0.6,5.6
		c-0.2,0.3-1,1.7-1.8,1.7c-0.8,0-1.6-1.4-1.8-1.7l0.6-5.6c0.1-1.1-0.7-1.2-0.9-0.2l-1.1,5.4l-0.1,0.1c-0.1,0-0.2,0.1-0.4,0.1
		c-0.6,0-1.7,0-2.2-0.2c0.7-2.8,2.3-9,2.8-10.9c0.1-0.3-0.1-0.8-0.7-0.8c-0.1,0-0.2,0-0.3,0.1c-0.7,0.3-2.7,1-3.3,1.3l0.4-4.5
		c0.1-1.1-0.8-1.2-1-0.2c-0.9,4-1.4,9.3-4.2,11.1c0.2-1.9,2.1-16,2.4-17.9c0.1-0.4,0.1-0.8,0.6-0.9c0.4-0.1,0.7,0,1,0.4
		c0,0,4.7,4.3,4.7,4.3c0.2,0.2,0.5,0.3,0.8,0.3c0.3-0.1,0.5-0.3,0.5-0.6l0.7-5.3c0-0.2,0-0.4-0.2-0.6c-0.1-0.2-0.3-0.3-0.5-0.3
		c0,0-0.4,0-0.7,0l0.2-1.7c0.5-0.3,2-0.9,2.6-1c0,0,0,0,0,0c0,0,0.3,0,0.3,0c0.4,0,0.8,0.1,1.1,0.3c0.3,0.2,0.5,0.5,0.5,0.9l0.8,7.6
		c0,0.3,0.2,0.5,0.5,0.6c0.3,0.1,0.6,0,0.8-0.3c0,0,4.7-4.3,4.7-4.3c0.3-0.3,0.6-0.5,1-0.4c0.5,0.2,0.5,0.5,0.6,0.9
		c0.3,1.9,2.1,16,2.4,17.9c-2.9-1.8-3.4-7.1-4.2-11.1c-0.2-1-1.1-0.9-1,0.2l0.4,4.5c-0.6-0.2-2.6-1-3.3-1.3
		c-0.2-0.1-0.3-0.1-0.3-0.1c-0.6,0-0.8,0.5-0.7,0.8C159.5,271.8,161.1,277.9,161.8,280.7z"/>
	<path class="st3" d="M196.4,280.7c-0.5,0.2-1.6,0.3-2.2,0.2c-0.2,0-0.3,0-0.4-0.1l-0.1-0.1l-1.1-5.4c-0.2-1-1-0.9-0.9,0.2l0.6,5.6
		c-0.2,0.3-1,1.7-1.8,1.7c-0.8,0-1.6-1.4-1.8-1.7l0.6-5.6c0.1-1.1-0.7-1.2-0.9-0.2l-1.1,5.4l-0.1,0.1c-0.1,0-0.2,0.1-0.4,0.1
		c-0.6,0-1.7,0-2.2-0.2c0.7-2.8,2.3-9,2.8-10.9c0.1-0.3-0.1-0.8-0.7-0.8c-0.1,0-0.2,0-0.3,0.1c-0.7,0.3-2.7,1-3.3,1.3l0.4-4.5
		c0.1-1.1-0.8-1.2-1-0.2c-0.9,4-1.4,9.3-4.2,11.1c0.2-1.9,2.1-16,2.4-17.9c0.1-0.4,0.1-0.8,0.6-0.9c0.4-0.1,0.7,0,1,0.4
		c0,0,4.7,4.3,4.7,4.3c0.2,0.2,0.5,0.3,0.8,0.3c0.3-0.1,0.5-0.3,0.5-0.6l0.7-5.3c0-0.2,0-0.4-0.2-0.6c-0.1-0.2-0.3-0.3-0.5-0.3
		c0,0-0.4,0-0.7,0l0.2-1.7c0.5-0.3,2-0.9,2.6-1c0,0,0,0,0,0c0,0,0.3,0,0.3,0c0.4,0,0.8,0.1,1.1,0.3c0.3,0.2,0.5,0.5,0.5,0.9l0.8,7.6
		c0,0.3,0.2,0.5,0.5,0.6c0.3,0.1,0.6,0,0.8-0.3c0,0,4.7-4.3,4.7-4.3c0.3-0.3,0.6-0.5,1-0.4c0.5,0.2,0.5,0.5,0.6,0.9
		c0.3,1.9,2.1,16,2.4,17.9c-2.9-1.8-3.4-7.1-4.2-11.1c-0.2-1-1.1-0.9-1,0.2l0.4,4.5c-0.6-0.2-2.6-1-3.3-1.3
		c-0.2-0.1-0.3-0.1-0.3-0.1c-0.6,0-0.8,0.5-0.7,0.8C194.1,271.8,195.7,277.9,196.4,280.7z"/>
	<path class="st3" d="M51.6,363.9c-0.5,0.2-1.6,0.3-2.2,0.2c-0.2,0-0.3,0-0.4-0.1l-0.1-0.1l-1.1-5.4c-0.2-1-1-0.9-0.9,0.2l0.6,5.6
		c-0.2,0.3-1,1.7-1.8,1.7c-0.8,0-1.6-1.4-1.8-1.7l0.6-5.6c0.1-1.1-0.7-1.2-0.9-0.2l-1.1,5.4l-0.1,0.1c-0.1,0-0.2,0.1-0.4,0.1
		c-0.6,0-1.7,0-2.2-0.2c0.7-2.8,2.3-9,2.8-10.9c0.1-0.3-0.1-0.8-0.7-0.8c-0.1,0-0.2,0-0.3,0.1c-0.7,0.3-2.7,1-3.3,1.3l0.4-4.5
		c0.1-1.1-0.8-1.2-1-0.2c-0.9,4-1.4,9.3-4.2,11.1c0.2-1.9,2.1-16,2.4-17.9c0.1-0.4,0.1-0.8,0.6-0.9c0.4-0.1,0.7,0,1,0.4
		c0,0,4.7,4.3,4.7,4.3c0.2,0.2,0.5,0.3,0.8,0.3c0.3-0.1,0.5-0.3,0.5-0.6l0.7-5.3c0-0.2,0-0.4-0.2-0.6c-0.1-0.2-0.3-0.3-0.5-0.3
		c0,0-0.4,0-0.7,0l0.2-1.7c0.5-0.3,2-0.9,2.6-1c0,0,0,0,0,0c0,0,0.3,0,0.3,0c0.4,0,0.8,0.1,1.1,0.3c0.3,0.2,0.5,0.5,0.5,0.9l0.8,7.6
		c0,0.3,0.2,0.5,0.5,0.6c0.3,0.1,0.6,0,0.8-0.3c0,0,4.7-4.3,4.7-4.3c0.3-0.3,0.6-0.5,1-0.4c0.5,0.2,0.5,0.5,0.6,0.9
		c0.3,1.9,2.1,16,2.4,17.9c-2.9-1.8-3.4-7.1-4.2-11.1c-0.2-1-1.1-0.9-1,0.2l0.4,4.5c-0.6-0.2-2.6-1-3.3-1.3
		c-0.2-0.1-0.3-0.1-0.3-0.1c-0.6,0-0.8,0.5-0.7,0.8C49.2,355,50.9,361.1,51.6,363.9z"/>
	<path class="st3" d="M86.2,363.9c-0.5,0.2-1.6,0.3-2.2,0.2c-0.2,0-0.3,0-0.4-0.1l-0.1-0.1l-1.1-5.4c-0.2-1-1-0.9-0.9,0.2l0.6,5.6
		c-0.2,0.3-1,1.7-1.8,1.7c-0.8,0-1.6-1.4-1.8-1.7l0.6-5.6c0.1-1.1-0.7-1.2-0.9-0.2L77,364l-0.1,0.1c-0.1,0-0.2,0.1-0.4,0.1
		c-0.6,0-1.7,0-2.2-0.2c0.7-2.8,2.3-9,2.8-10.9c0.1-0.3-0.1-0.8-0.7-0.8c-0.1,0-0.2,0-0.3,0.1c-0.7,0.3-2.7,1-3.3,1.3l0.4-4.5
		c0.1-1.1-0.8-1.2-1-0.2c-0.9,4-1.4,9.3-4.2,11.1c0.2-1.9,2.1-16,2.4-17.9c0.1-0.4,0.1-0.8,0.6-0.9c0.4-0.1,0.7,0,1,0.4
		c0,0,4.7,4.3,4.7,4.3c0.2,0.2,0.5,0.3,0.8,0.3c0.3-0.1,0.5-0.3,0.5-0.6l0.7-5.3c0-0.2,0-0.4-0.2-0.6c-0.1-0.2-0.3-0.3-0.5-0.3
		c0,0-0.4,0-0.7,0l0.2-1.7c0.5-0.3,2-0.9,2.6-1c0,0,0,0,0,0c0,0,0.3,0,0.3,0c0.4,0,0.8,0.1,1.1,0.3c0.3,0.2,0.5,0.5,0.5,0.9l0.8,7.6
		c0,0.3,0.2,0.5,0.5,0.6c0.3,0.1,0.6,0,0.8-0.3c0,0,4.7-4.3,4.7-4.3c0.3-0.3,0.6-0.5,1-0.4c0.5,0.2,0.5,0.5,0.6,0.9
		c0.3,1.9,2.1,16,2.4,17.9c-2.9-1.8-3.4-7.1-4.2-11.1c-0.2-1-1.1-0.9-1,0.2l0.4,4.5c-0.6-0.2-2.6-1-3.3-1.3
		c-0.2-0.1-0.3-0.1-0.3-0.1c-0.6,0-0.8,0.5-0.7,0.8C83.9,355,85.5,361.1,86.2,363.9z"/>
	<path class="st3" d="M51.6,404.8c-0.5,0.2-1.6,0.3-2.2,0.2c-0.2,0-0.3,0-0.4-0.1l-0.1-0.1l-1.1-5.4c-0.2-1-1-0.9-0.9,0.2l0.6,5.6
		c-0.2,0.3-1,1.7-1.8,1.7c-0.8,0-1.6-1.4-1.8-1.7l0.6-5.6c0.1-1.1-0.7-1.2-0.9-0.2l-1.1,5.4l-0.1,0.1c-0.1,0-0.2,0.1-0.4,0.1
		c-0.6,0-1.7,0-2.2-0.2c0.7-2.8,2.3-9,2.8-10.9c0.1-0.3-0.1-0.8-0.7-0.8c-0.1,0-0.2,0-0.3,0.1c-0.7,0.3-2.7,1-3.3,1.3l0.4-4.5
		c0.1-1.1-0.8-1.2-1-0.2c-0.9,4-1.4,9.3-4.2,11.1c0.2-1.9,2.1-16,2.4-17.9c0.1-0.4,0.1-0.8,0.6-0.9c0.4-0.1,0.7,0,1,0.4
		c0,0,4.7,4.3,4.7,4.3c0.2,0.2,0.5,0.3,0.8,0.3c0.3-0.1,0.5-0.3,0.5-0.6l0.7-5.3c0-0.2,0-0.4-0.2-0.6c-0.1-0.2-0.3-0.3-0.5-0.3
		c0,0-0.4,0-0.7,0l0.2-1.7c0.5-0.3,2-0.9,2.6-1c0,0,0,0,0,0c0,0,0.3,0,0.3,0c0.4,0,0.8,0.1,1.1,0.3c0.3,0.2,0.5,0.5,0.5,0.9l0.8,7.6
		c0,0.3,0.2,0.5,0.5,0.6c0.3,0.1,0.6,0,0.8-0.3c0,0,4.7-4.3,4.7-4.3c0.3-0.3,0.6-0.5,1-0.4c0.5,0.2,0.5,0.5,0.6,0.9
		c0.3,1.9,2.1,16,2.4,17.9c-2.9-1.8-3.4-7.1-4.2-11.1c-0.2-1-1.1-0.9-1,0.2l0.4,4.5c-0.6-0.2-2.6-1-3.3-1.3
		c-0.2-0.1-0.3-0.1-0.3-0.1c-0.6,0-0.8,0.5-0.7,0.8C49.2,395.8,50.9,402,51.6,404.8z"/>
	<path class="st3" d="M86.2,404.8c-0.5,0.2-1.6,0.3-2.2,0.2c-0.2,0-0.3,0-0.4-0.1l-0.1-0.1l-1.1-5.4c-0.2-1-1-0.9-0.9,0.2l0.6,5.6
		c-0.2,0.3-1,1.7-1.8,1.7c-0.8,0-1.6-1.4-1.8-1.7l0.6-5.6c0.1-1.1-0.7-1.2-0.9-0.2l-1.1,5.4l-0.1,0.1c-0.1,0-0.2,0.1-0.4,0.1
		c-0.6,0-1.7,0-2.2-0.2c0.7-2.8,2.3-9,2.8-10.9c0.1-0.3-0.1-0.8-0.7-0.8c-0.1,0-0.2,0-0.3,0.1c-0.7,0.3-2.7,1-3.3,1.3l0.4-4.5
		c0.1-1.1-0.8-1.2-1-0.2c-0.9,4-1.4,9.3-4.2,11.1c0.2-1.9,2.1-16,2.4-17.9c0.1-0.4,0.1-0.8,0.6-0.9c0.4-0.1,0.7,0,1,0.4
		c0,0,4.7,4.3,4.7,4.3c0.2,0.2,0.5,0.3,0.8,0.3c0.3-0.1,0.5-0.3,0.5-0.6l0.7-5.3c0-0.2,0-0.4-0.2-0.6c-0.1-0.2-0.3-0.3-0.5-0.3
		c0,0-0.4,0-0.7,0l0.2-1.7c0.5-0.3,2-0.9,2.6-1c0,0,0,0,0,0c0,0,0.3,0,0.3,0c0.4,0,0.8,0.1,1.1,0.3c0.3,0.2,0.5,0.5,0.5,0.9l0.8,7.6
		c0,0.3,0.2,0.5,0.5,0.6c0.3,0.1,0.6,0,0.8-0.3c0,0,4.7-4.3,4.7-4.3c0.3-0.3,0.6-0.5,1-0.4c0.5,0.2,0.5,0.5,0.6,0.9
		c0.3,1.9,2.1,16,2.4,17.9c-2.9-1.8-3.4-7.1-4.2-11.1c-0.2-1-1.1-0.9-1,0.2l0.4,4.5c-0.6-0.2-2.6-1-3.3-1.3
		c-0.2-0.1-0.3-0.1-0.3-0.1c-0.6,0-0.8,0.5-0.7,0.8C83.9,395.8,85.5,402,86.2,404.8z"/>
	<path class="st3" d="M161.8,363.9c-0.5,0.2-1.6,0.3-2.2,0.2c-0.2,0-0.3,0-0.4-0.1l-0.1-0.1l-1.1-5.4c-0.2-1-1-0.9-0.9,0.2l0.6,5.6
		c-0.2,0.3-1,1.7-1.8,1.7c-0.8,0-1.6-1.4-1.8-1.7l0.6-5.6c0.1-1.1-0.7-1.2-0.9-0.2l-1.1,5.4l-0.1,0.1c-0.1,0-0.2,0.1-0.4,0.1
		c-0.6,0-1.7,0-2.2-0.2c0.7-2.8,2.3-9,2.8-10.9c0.1-0.3-0.1-0.8-0.7-0.8c-0.1,0-0.2,0-0.3,0.1c-0.7,0.3-2.7,1-3.3,1.3l0.4-4.5
		c0.1-1.1-0.8-1.2-1-0.2c-0.9,4-1.4,9.3-4.2,11.1c0.2-1.9,2.1-16,2.4-17.9c0.1-0.4,0.1-0.8,0.6-0.9c0.4-0.1,0.7,0,1,0.4
		c0,0,4.7,4.3,4.7,4.3c0.2,0.2,0.5,0.3,0.8,0.3c0.3-0.1,0.5-0.3,0.5-0.6l0.7-5.3c0-0.2,0-0.4-0.2-0.6c-0.1-0.2-0.3-0.3-0.5-0.3
		c0,0-0.4,0-0.7,0l0.2-1.7c0.5-0.3,2-0.9,2.6-1c0,0,0,0,0,0c0,0,0.3,0,0.3,0c0.4,0,0.8,0.1,1.1,0.3c0.3,0.2,0.5,0.5,0.5,0.9l0.8,7.6
		c0,0.3,0.2,0.5,0.5,0.6c0.3,0.1,0.6,0,0.8-0.3c0,0,4.7-4.3,4.7-4.3c0.3-0.3,0.6-0.5,1-0.4c0.5,0.2,0.5,0.5,0.6,0.9
		c0.3,1.9,2.1,16,2.4,17.9c-2.9-1.8-3.4-7.1-4.2-11.1c-0.2-1-1.1-0.9-1,0.2l0.4,4.5c-0.6-0.2-2.6-1-3.3-1.3
		c-0.2-0.1-0.3-0.1-0.3-0.1c-0.6,0-0.8,0.5-0.7,0.8C159.5,355,161.1,361.1,161.8,363.9z"/>
	<path class="st3" d="M196.4,363.9c-0.5,0.2-1.6,0.3-2.2,0.2c-0.2,0-0.3,0-0.4-0.1l-0.1-0.1l-1.1-5.4c-0.2-1-1-0.9-0.9,0.2l0.6,5.6
		c-0.2,0.3-1,1.7-1.8,1.7c-0.8,0-1.6-1.4-1.8-1.7l0.6-5.6c0.1-1.1-0.7-1.2-0.9-0.2l-1.1,5.4l-0.1,0.1c-0.1,0-0.2,0.1-0.4,0.1
		c-0.6,0-1.7,0-2.2-0.2c0.7-2.8,2.3-9,2.8-10.9c0.1-0.3-0.1-0.8-0.7-0.8c-0.1,0-0.2,0-0.3,0.1c-0.7,0.3-2.7,1-3.3,1.3l0.4-4.5
		c0.1-1.1-0.8-1.2-1-0.2c-0.9,4-1.4,9.3-4.2,11.1c0.2-1.9,2.1-16,2.4-17.9c0.1-0.4,0.1-0.8,0.6-0.9c0.4-0.1,0.7,0,1,0.4
		c0,0,4.7,4.3,4.7,4.3c0.2,0.2,0.5,0.3,0.8,0.3c0.3-0.1,0.5-0.3,0.5-0.6l0.7-5.3c0-0.2,0-0.4-0.2-0.6c-0.1-0.2-0.3-0.3-0.5-0.3
		c0,0-0.4,0-0.7,0l0.2-1.7c0.5-0.3,2-0.9,2.6-1c0,0,0,0,0,0c0,0,0.3,0,0.3,0c0.4,0,0.8,0.1,1.1,0.3c0.3,0.2,0.5,0.5,0.5,0.9l0.8,7.6
		c0,0.3,0.2,0.5,0.5,0.6c0.3,0.1,0.6,0,0.8-0.3c0,0,4.7-4.3,4.7-4.3c0.3-0.3,0.6-0.5,1-0.4c0.5,0.2,0.5,0.5,0.6,0.9
		c0.3,1.9,2.1,16,2.4,17.9c-2.9-1.8-3.4-7.1-4.2-11.1c-0.2-1-1.1-0.9-1,0.2l0.4,4.5c-0.6-0.2-2.6-1-3.3-1.3
		c-0.2-0.1-0.3-0.1-0.3-0.1c-0.6,0-0.8,0.5-0.7,0.8C194.1,355,195.7,361.1,196.4,363.9z"/>
	<path class="st3" d="M161.8,404.8c-0.5,0.2-1.6,0.3-2.2,0.2c-0.2,0-0.3,0-0.4-0.1l-0.1-0.1l-1.1-5.4c-0.2-1-1-0.9-0.9,0.2l0.6,5.6
		c-0.2,0.3-1,1.7-1.8,1.7c-0.8,0-1.6-1.4-1.8-1.7l0.6-5.6c0.1-1.1-0.7-1.2-0.9-0.2l-1.1,5.4l-0.1,0.1c-0.1,0-0.2,0.1-0.4,0.1
		c-0.6,0-1.7,0-2.2-0.2c0.7-2.8,2.3-9,2.8-10.9c0.1-0.3-0.1-0.8-0.7-0.8c-0.1,0-0.2,0-0.3,0.1c-0.7,0.3-2.7,1-3.3,1.3l0.4-4.5
		c0.1-1.1-0.8-1.2-1-0.2c-0.9,4-1.4,9.3-4.2,11.1c0.2-1.9,2.1-16,2.4-17.9c0.1-0.4,0.1-0.8,0.6-0.9c0.4-0.1,0.7,0,1,0.4
		c0,0,4.7,4.3,4.7,4.3c0.2,0.2,0.5,0.3,0.8,0.3c0.3-0.1,0.5-0.3,0.5-0.6l0.7-5.3c0-0.2,0-0.4-0.2-0.6c-0.1-0.2-0.3-0.3-0.5-0.3
		c0,0-0.4,0-0.7,0l0.2-1.7c0.5-0.3,2-0.9,2.6-1c0,0,0,0,0,0c0,0,0.3,0,0.3,0c0.4,0,0.8,0.1,1.1,0.3c0.3,0.2,0.5,0.5,0.5,0.9l0.8,7.6
		c0,0.3,0.2,0.5,0.5,0.6c0.3,0.1,0.6,0,0.8-0.3c0,0,4.7-4.3,4.7-4.3c0.3-0.3,0.6-0.5,1-0.4c0.5,0.2,0.5,0.5,0.6,0.9
		c0.3,1.9,2.1,16,2.4,17.9c-2.9-1.8-3.4-7.1-4.2-11.1c-0.2-1-1.1-0.9-1,0.2l0.4,4.5c-0.6-0.2-2.6-1-3.3-1.3
		c-0.2-0.1-0.3-0.1-0.3-0.1c-0.6,0-0.8,0.5-0.7,0.8C159.5,395.8,161.1,402,161.8,404.8z"/>
	<path class="st3" d="M196.4,404.8c-0.5,0.2-1.6,0.3-2.2,0.2c-0.2,0-0.3,0-0.4-0.1l-0.1-0.1l-1.1-5.4c-0.2-1-1-0.9-0.9,0.2l0.6,5.6
		c-0.2,0.3-1,1.7-1.8,1.7c-0.8,0-1.6-1.4-1.8-1.7l0.6-5.6c0.1-1.1-0.7-1.2-0.9-0.2l-1.1,5.4l-0.1,0.1c-0.1,0-0.2,0.1-0.4,0.1
		c-0.6,0-1.7,0-2.2-0.2c0.7-2.8,2.3-9,2.8-10.9c0.1-0.3-0.1-0.8-0.7-0.8c-0.1,0-0.2,0-0.3,0.1c-0.7,0.3-2.7,1-3.3,1.3l0.4-4.5
		c0.1-1.1-0.8-1.2-1-0.2c-0.9,4-1.4,9.3-4.2,11.1c0.2-1.9,2.1-16,2.4-17.9c0.1-0.4,0.1-0.8,0.6-0.9c0.4-0.1,0.7,0,1,0.4
		c0,0,4.7,4.3,4.7,4.3c0.2,0.2,0.5,0.3,0.8,0.3c0.3-0.1,0.5-0.3,0.5-0.6l0.7-5.3c0-0.2,0-0.4-0.2-0.6c-0.1-0.2-0.3-0.3-0.5-0.3
		c0,0-0.4,0-0.7,0l0.2-1.7c0.5-0.3,2-0.9,2.6-1c0,0,0,0,0,0c0,0,0.3,0,0.3,0c0.4,0,0.8,0.1,1.1,0.3c0.3,0.2,0.5,0.5,0.5,0.9l0.8,7.6
		c0,0.3,0.2,0.5,0.5,0.6c0.3,0.1,0.6,0,0.8-0.3c0,0,4.7-4.3,4.7-4.3c0.3-0.3,0.6-0.5,1-0.4c0.5,0.2,0.5,0.5,0.6,0.9
		c0.3,1.9,2.1,16,2.4,17.9c-2.9-1.8-3.4-7.1-4.2-11.1c-0.2-1-1.1-0.9-1,0.2l0.4,4.5c-0.6-0.2-2.6-1-3.3-1.3
		c-0.2-0.1-0.3-0.1-0.3-0.1c-0.6,0-0.8,0.5-0.7,0.8C194.1,395.8,195.7,402,196.4,404.8z"/>
</g>
</svg>
