<svg xmlns="http://www.w3.org/2000/svg" xmlns:xlink="http://www.w3.org/1999/xlink" width="216.053" height="150.2" viewBox="0 0 162.04 112.65"><path stroke-width=".399" stroke-miterlimit="10" fill="none" stroke="#000" d="M.199 84.074h155.447"/><path stroke-width=".319" stroke-linecap="round" stroke-linejoin="round" fill="none" stroke="#000" d="M154.45 82.48c.1.598 1.196 1.494 1.495 1.594-.299.1-1.395.996-1.494 1.594"/><path stroke-width=".399" stroke-miterlimit="10" fill="none" stroke="#000" d="M11.335 83.291v1.566"/><symbol id="a"><path d="M.611 0c.016 0 .038 0 .038.023S.627.046.611.046H.038C.022.046 0 .046 0 .023S.022 0 .038 0h.573z"/></symbol><use xlink:href="#a" transform="matrix(7.9701 0 0 -7.9701 6.625 91.704)"/><symbol id="b"><path d="M.218.637c0 .027-.002.028-.029.028C.148.625.095.601 0 .601V.568c.027 0 .081 0 .139.027V.082C.139.045.136.033.041.033H.006V0c.041.003.127.003.172.003C.223.003.31.003.351 0v.033H.316C.221.033.218.045.218.082v.555z"/></symbol><use xlink:href="#b" transform="matrix(7.9701 0 0 -7.9701 13.276 93.513)"/><path stroke-width=".399" stroke-miterlimit="10" fill="none" stroke="#000" d="M55.88 83.291v1.566"/><use xlink:href="#b" transform="matrix(7.9701 0 0 -7.9701 54.527 93.513)"/><path stroke-width=".399" stroke-miterlimit="10" fill="none" stroke="#000" d="M78.151 83.291v1.566"/><symbol id="c"><path d="M.229.204c.016.015.058.048.074.062.062.057.121.112.121.203 0 .119-.1.196-.225.196C.079.665 0 .574 0 .485 0 .436.039.429.053.429c.021 0 .052.015.052.053 0 .052-.05.052-.062.052a.155.155 0 0 0 .145.098C.281.632.329.553.329.469.329.365.256.289.138.168L.012.038C0 .027 0 .025 0 0h.395l.029.179H.393A.316.316 0 0 0 .37.09C.364.082.288.082.272.082H.094l.135.122z"/></symbol><use xlink:href="#c" transform="matrix(7.9701 0 0 -7.9701 76.456 93.513)"/><path stroke-width=".399" stroke-miterlimit="10" fill="none" stroke="#000" d="M100.424 83.291v1.566"/><symbol id="d"><path d="M.209.355C.288.355.338.297.338.192.338.067.267.03.214.03.159.03.084.05.049.103.085.103.11.126.11.159a.053.053 0 0 1-.055.055C.028.214 0 .197 0 .157 0 .062.102 0 .216 0c.133 0 .226.092.226.192 0 .083-.066.159-.168.181.079.028.138.096.138.176 0 .08-.09.137-.194.137C.111.686.03.628.03.552.03.515.055.499.081.499c.031 0 .051.022.051.051C.132.587.1.601.078.602.12.657.197.66.215.66.241.66.317.652.317.549A.193.193 0 0 0 .274.421C.244.39.221.388.16.384.141.383.133.382.133.369c0-.014.009-.014.026-.014h.05z"/></symbol><use xlink:href="#d" transform="matrix(7.9701 0 0 -7.9701 98.658 93.68)"/><path stroke-width=".399" stroke-miterlimit="10" fill="none" stroke="#000" d="M122.696 83.291v1.566"/><symbol id="e"><path d="M.364.647c0 .02 0 .028-.021.028C.33.675.329.674.319.66L0 .197V.164h.282V.081C.282.044.279.033.202.033H.179V0c.085.003.087.003.144.003C.38.003.382.003.467 0v.033H.444c-.077 0-.08.011-.08.048v.083H.47v.033H.364v.45M.289.566V.197H.035l.254.369z"/></symbol><use xlink:href="#e" transform="matrix(7.9701 0 0 -7.9701 120.818 93.513)"/><path stroke-width=".399" stroke-miterlimit="10" fill="none" stroke="#000" d="M144.968 83.291v1.566"/><symbol id="f"><path d="M.087.583A.36.36 0 0 1 .182.569c.125 0 .201.088.201.103 0 .011-.007.014-.012.014-.002 0-.004 0-.013-.005a.382.382 0 0 0-.278 0C.07.686.068.686.067.686.054.686.054.675.054.657V.364c0-.018 0-.03.016-.03.008 0 .011.004.016.012.012.015.05.066.135.066.056 0 .083-.046.092-.065A.293.293 0 0 0 .332.226.25.25 0 0 0 .303.091.134.134 0 0 0 .191.03a.162.162 0 0 0-.152.106l.01-.001c.028 0 .05.018.05.049 0 .037-.029.05-.049.05C.032.234 0 .224 0 .181 0 .091.078 0 .193 0c.125 0 .231.097.231.221C.424.337.34.44.222.44A.198.198 0 0 1 .087.39v.193z"/></symbol><use xlink:href="#f" transform="matrix(7.9701 0 0 -7.9701 143.273 93.68)"/><path stroke-width=".399" stroke-miterlimit="10" fill="none" stroke="#000" d="M33.607 106.346V6.58"/><path stroke-width=".319" stroke-linecap="round" stroke-linejoin="round" fill="none" stroke="#000" d="M32.013 7.775c.598-.1 1.494-1.196 1.594-1.494.1.298.996 1.394 1.594 1.494"/><path stroke-width=".399" stroke-miterlimit="10" fill="none" stroke="#000" d="M32.824 106.346h1.566"/><use xlink:href="#a" transform="matrix(7.9701 0 0 -7.9701 20.75 106.69)"/><use xlink:href="#b" transform="matrix(7.9701 0 0 -7.9701 27.401 108.499)"/><path stroke-width=".399" stroke-miterlimit="10" fill="none" stroke="#000" d="M32.824 61.802h1.566"/><use xlink:href="#b" transform="matrix(7.9701 0 0 -7.9701 27.401 64.37)"/><path stroke-width=".399" stroke-miterlimit="10" fill="none" stroke="#000" d="M32.824 39.53h1.566"/><use xlink:href="#c" transform="matrix(7.9701 0 0 -7.9701 27.058 42.098)"/><path stroke-width=".399" stroke-miterlimit="10" fill="none" stroke="#000" d="M32.824 17.257h1.566"/><use xlink:href="#d" transform="matrix(7.9701 0 0 -7.9701 26.987 19.992)"/><path stroke-width=".797" stroke-miterlimit="10" fill="none" stroke="#000" d="M33.607 84.074s.162-1.798.225-2.237c.062-.439.162-.699.224-.926a13.54 13.54 0 0 1 .899-2.316 18.624 18.624 0 0 1 .45-.848 20.671 20.671 0 0 1 .448-.746 22.528 22.528 0 0 1 .45-.675 24.91 24.91 0 0 1 .449-.621 27.126 27.126 0 0 1 .45-.578 29.515 29.515 0 0 1 .673-.803 31.643 31.643 0 0 1 .674-.741 33.957 33.957 0 0 1 .899-.914 39.358 39.358 0 0 1 .898-.846 49.353 49.353 0 0 1 .674-.598 47.872 47.872 0 0 1 .899-.757 54.51 54.51 0 0 1 1.123-.89 65.13 65.13 0 0 1 .898-.674 61.453 61.453 0 0 1 1.348-.96 72.049 72.049 0 0 1 1.573-1.051l.224-.145.225-.144.225-.143a72.306 72.306 0 0 1 1.572-.967l.225-.134.224-.134a78.233 78.233 0 0 1 1.573-.907 100.967 100.967 0 0 1 1.123-.623l.225-.123.224-.12a159.397 159.397 0 0 1 1.123-.599l.225-.117.225-.118a106.79 106.79 0 0 1 .45-.231l.224-.116a128.418 128.418 0 0 1 .898-.454M55.88 61.802s.65-.323.899-.445a163.94 163.94 0 0 1 1.799-.866 175.327 175.327 0 0 1 2.699-1.242 198.218 198.218 0 0 1 2.698-1.182 214.938 214.938 0 0 1 2.7-1.131 251.53 251.53 0 0 1 2.698-1.086 273.916 273.916 0 0 1 3.598-1.386 319.874 319.874 0 0 1 2.699-.998 347.827 347.827 0 0 1 2.699-.966 377.745 377.745 0 0 1 2.698-.938 404.36 404.36 0 0 1 3.599-1.21 415.959 415.959 0 0 1 3.598-1.168 502.745 502.745 0 0 1 2.699-.851 533.957 533.957 0 0 1 2.698-.831 556.615 556.615 0 0 1 3.599-1.08 576.684 576.684 0 0 1 4.498-1.308 669.59 669.59 0 0 1 3.598-1.015 778.722 778.722 0 0 1 3.598-.99 769.17 769.17 0 0 1 3.599-.967l.9-.238.899-.237a697.18 697.18 0 0 1 8.995-2.3 819.815 819.815 0 0 1 13.494-3.243 1215.547 1215.547 0 0 1 5.398-1.238l.9-.203.899-.203.9-.201"/><symbol id="g"><path d="M.462.415A.057.057 0 0 1 .414.361c0-.019.014-.036.039-.036.028 0 .055.024.055.059 0 .046-.05.069-.097.069C.351.453.316.4.304.379a.115.115 0 0 1-.111.074C.086.453.028.325.028.299.028.29.035.287.042.287c.009 0 .012.005.014.011.031.099.097.13.135.13C.22.428.246.409.246.362A2.09 2.09 0 0 0 .19.118C.182.087.152.025.097.025a.112.112 0 0 0-.051.013.056.056 0 0 1 .047.054c0 .025-.019.036-.038.036C.026.128 0 .103 0 .069 0 .02.054 0 .096 0c.058 0 .092.048.107.075A.114.114 0 0 1 .314 0c.108 0 .165.13.165.154 0 .005-.003.012-.013.012C.455.166.454.162.449.147.427.075.369.025.317.025.288.025.261.043.261.091c0 .022.014.077.023.115l.033.133C.329.375.359.428.41.428A.094.094 0 0 0 .462.415z"/></symbol><use xlink:href="#g" transform="matrix(8.9664 0 0 -8.9664 153.762 91.553)"/><symbol id="h"><path d="M.473.59c.001.005.003.011.003.017C.476.62.467.636.445.636A.044.044 0 0 1 .406.609L.389.542l-.05-.2-.01-.04C.328.298.286.219.214.219.152.219.152.282.152.301c0 .045.013.094.056.206.008.023.014.037.014.056a.083.083 0 0 1-.086.084C.04.647 0 .505 0 .493 0 .484.007.481.014.481.025.481.026.487.03.5c.021.074.061.122.103.122.024 0 .024-.019.024-.033A.166.166 0 0 0 .144.53C.097.406.084.364.084.316c0-.111.09-.122.127-.122.049 0 .084.026.102.044C.3.187.289.142.25.092.22.052.18.025.136.025c-.028 0-.061.01-.075.038.053 0 .06.044.06.054 0 .022-.016.036-.038.036C.059.153.027.134.027.088.027.036.073 0 .136 0c.102 0 .211.087.24.204L.473.59z"/></symbol><use xlink:href="#h" transform="matrix(8.9664 0 0 -8.9664 25.487 9.018)"/><use xlink:href="#h" transform="matrix(8.9664 0 0 -8.9664 63.386 35.721)"/><symbol id="i"><path d="M.651.204c.014 0 .033 0 .033.021 0 .022-.022.022-.037.022h-.61C.022.247 0 .247 0 .225 0 .204.02.204.033.204h.618M.647 0c.015 0 .037 0 .037.022 0 .021-.019.021-.033.021H.033C.02.043 0 .043 0 .022 0 0 .022 0 .037 0h.61z"/></symbol><use xlink:href="#i" transform="matrix(8.9664 0 0 -8.9664 71.057 32.744)"/><symbol id="j"><path d="M.326.108.144.497C.137.512.133.513.128.513.123.513.121.511.113.505l-.1-.073C.004.426 0 .422 0 .415 0 .411.003.403.012.403c.006 0 .012.005.034.022l.033.024.202-.432C.289 0 .294 0 .303 0 .318 0 .322.004.33.02l.466.939c.003.006.007.014.007.02 0 .013-.01.022-.021.022-.009 0-.016-.004-.025-.022L.326.108z"/></symbol><use xlink:href="#j" transform="matrix(8.9664 0 0 -8.9664 80.938 36.013)"/><path stroke-width=".379" stroke-miterlimit="10" fill="none" stroke="#000" d="M87.953 27.233h5.223"/><use xlink:href="#g" transform="matrix(8.9664 0 0 -8.9664 88.222 33.982)"/></svg>