<svg xmlns="http://www.w3.org/2000/svg" xmlns:xlink="http://www.w3.org/1999/xlink" width="164.9pt" height="216.693" viewBox="0 0 164.9 162.52"><symbol id="a"><path d="M.263.316h.17c.142 0 .281.104.281.216 0 .077-.066.151-.197.151H.193c-.019 0-.03 0-.03-.019 0-.012.009-.012.029-.012A.59.59 0 0 0 .235.65C.251.648.257.645.257.634L.253.615.119.078C.109.039.107.031.028.031.011.031 0 .031 0 .012 0 0 .012 0 .015 0l.127.003.064-.001L.271 0c.007 0 .02 0 .02.02 0 .011-.009.011-.028.011-.037 0-.065 0-.065.018C.198.055.2.06.201.066l.062.25m.072.298c.009.035.011.038.054.038h.096C.568.652.621.625.621.556.621.517.601.431.562.395A.224.224 0 0 0 .408.342H.267l.068.272z"/></symbol><use xlink:href="#a" transform="matrix(9.9626 0 0 -9.9626 85.444 70.065)"/><symbol id="b"><path d="M.691.458c0 .161-.106.269-.255.269C.22.727 0 .5 0 .267 0 .101.112 0 .256 0c.212 0 .435.219.435.458M.262.026C.163.026.093.107.093.239c0 .044.014.19.091.307C.253.65.351.702.43.702.512.702.602.646.602.497A.609.609 0 0 0 .476.146C.428.085.346.026.262.026z"/></symbol><use xlink:href="#b" transform="matrix(9.9626 0 0 -9.9626 41.271 120.888)"/><path stroke-width=".399" stroke-miterlimit="10" fill="none" stroke="#000" d="M67.77 110.341c0-4.132-1.642-8.096-4.238-10.694"/><path stroke-width=".31899362" stroke-linecap="round" stroke-linejoin="round" fill="none" stroke="#000" d="M63.25 101.619c.352-.493.212-1.902.071-2.184.282.141 1.69.283 2.184-.07"/><path d="M52.179 110.341h15.59c0-4.132-1.64-8.096-4.56-11.019z" fill="#b7b7b7"/><path stroke-width=".399" stroke-miterlimit="10" fill="none" stroke="#000" d="M67.77 110.341c0-4.132-1.642-8.096-4.238-10.694"/><path stroke-width=".31899362" stroke-linecap="round" stroke-linejoin="round" fill="none" stroke="#000" d="M63.25 101.619c.352-.493.212-1.902.071-2.184.282.141 1.69.283 2.184-.07"/><symbol id="c"><path d="M.413.511c0 .066-.018.205-.12.205C.154.716 0 .434 0 .205 0 .111.029 0 .12 0c.141 0 .293.287.293.511M.106.374c.017.064.037.144.077.215.027.049.064.105.109.105C.341.694.347.63.347.573c0-.049-.008-.1-.032-.199H.106m.2-.032a.893.893 0 0 0-.07-.203C.201.071.163.022.12.022.087.022.066.051.066.144c0 .042.006.1.032.198h.208z"/></symbol><use xlink:href="#c" transform="matrix(9.9626 0 0 -9.9626 74.128 103.973)"/><symbol id="d"><path d="M.059.07C.056.055.05.032.05.027.05.009.064 0 .079 0a.04.04 0 0 1 .037.028l.04.158.032.13c.004.013.032.06.056.082.008.007.037.033.08.033C.35.431.365.419.366.419.336.414.314.39.314.364c0-.016.011-.035.038-.035s.055.023.055.059c0 .035-.032.065-.083.065C.259.453.215.404.196.376a.09.09 0 0 1-.091.077C.059.453.04.414.031.396A.42.42 0 0 1 0 .299c0-.01.01-.01.012-.01.01 0 .011.001.017.023.017.071.037.119.073.119.017 0 .031-.008.031-.046C.133.364.13.353.117.301L.059.07z"/></symbol><use xlink:href="#d" transform="scale(9.9625 -9.9625) rotate(45 14.376 3.508)"/><path stroke-width=".399" stroke-miterlimit="10" fill="none" stroke="#000" d="M.198 110.341h155.484"/><path stroke-width=".319" stroke-linecap="round" stroke-linejoin="round" fill="none" stroke="#000" d="M154.486 108.747c.1.598 1.196 1.494 1.495 1.594-.3.1-1.395.996-1.495 1.594"/><symbol id="e"><path d="M.189.376v.257c0 .026.002.035.021.039a.527.527 0 0 0 .062.002c.086 0 .213 0 .213-.149C.485.439.441.376.305.376H.189M.414.361c.095.027.173.086.173.164 0 .099-.121.18-.268.18H0V.674h.023C.1.674.102.663.102.626V.101C.102.064.1.053.023.053H0V.022c.047.003.097.003.145.003.048 0 .098 0 .146-.003v.031H.268C.191.053.189.064.189.101v.25h.12C.381.351.413.313.417.309c.03-.037.03-.052.03-.123 0-.067 0-.111.048-.149C.542 0 .602 0 .613 0c.084 0 .099.087.099.111 0 .006 0 .018-.014.018C.685.129.685.12.684.112.679.049.648.025.617.025c-.032 0-.043.02-.051.037C.557.084.548.152.542.197.534.259.525.326.414.361z"/></symbol><symbol id="f"><path d="M.371.24c.022 0 .027 0 .027.021 0 .103-.056.198-.184.198C.094.459 0 .355 0 .231 0 .1.105 0 .227 0c.122 0 .171.107.171.13 0 .007-.005.013-.014.013C.374.143.371.136.37.132A.142.142 0 0 0 .232.028.137.137 0 0 0 .12.089.265.265 0 0 0 .086.24h.285M.087.264c.009.154.099.17.127.17.055 0 .115-.042.116-.17H.087z"/></symbol><use xlink:href="#e" transform="matrix(8.9664 0 0 -8.9664 151.058 120.185)"/><use xlink:href="#f" transform="matrix(8.9664 0 0 -8.9664 157.747 120.087)"/><path stroke-width=".399" stroke-miterlimit="10" fill="none" stroke="#000" d="M52.179 162.322V6.838"/><path stroke-width=".319" stroke-linecap="round" stroke-linejoin="round" fill="none" stroke="#000" d="M50.585 8.034c.598-.1 1.494-1.196 1.594-1.495.1.3.996 1.395 1.594 1.495"/><symbol id="g"><path d="M.197.604c0 .036.002.048.082.048h.025v.031C.263.68.195.68.152.68S.041.68 0 .683V.652h.025C.105.652.107.64.107.604V.079C.107.043.105.031.025.031H0V0c.041.003.109.003.152.003S.263.003.304 0v.031H.279c-.08 0-.082.012-.082.048v.525z"/></symbol><symbol id="h"><path d="M.151.259c0 .108.078.158.138.158.055 0 .073-.039.073-.109V.077C.362.031.351.031.285.031V0c.047.002.066.003.114.003S.46.002.513 0v.031c-.066 0-.077 0-.077.046v.182c0 .108.078.158.138.158.055 0 .073-.039.073-.109V.077C.647.031.636.031.57.031V0c.047.002.066.003.114.003S.745.002.798 0v.031c-.051 0-.076 0-.077.031v.192c0 .087 0 .115-.033.152C.667.43.627.442.581.442A.165.165 0 0 1 .432.347C.42.406.38.442.296.442a.163.163 0 0 1-.15-.098H.145v.098L0 .431V.4C.068.4.077.393.077.344V.077C.077.031.066.031 0 .031V0c.047.002.066.003.114.003S.175.002.228 0v.031c-.066 0-.077 0-.077.046v.182z"/></symbol><use xlink:href="#g" transform="matrix(8.9664 0 0 -8.9664 37.949 9.443)"/><use xlink:href="#h" transform="matrix(8.9664 0 0 -8.9664 41.293 9.443)"/><path stroke-width=".598" stroke-miterlimit="10" fill="none" stroke="#000" d="m52.179 110.341 36.756-36.756"/><path d="M90.13 73.585a1.195 1.195 0 1 0-2.39 0 1.195 1.195 0 0 0 2.39 0zm-1.195 0"/><path stroke-width=".399" stroke-miterlimit="10" fill="none" stroke="#000" d="M90.13 73.585a1.195 1.195 0 1 0-2.39 0 1.195 1.195 0 0 0 2.39 0zm-1.195 0"/><path d="M53.375 110.341a1.196 1.196 0 1 0-2.392 0 1.196 1.196 0 0 0 2.392 0zm-1.196 0"/><path stroke-width=".399" stroke-miterlimit="10" fill="none" stroke="#000" d="M53.375 110.341a1.196 1.196 0 1 0-2.392 0 1.196 1.196 0 0 0 2.392 0zm-1.196 0"/></svg>